<svg width="586" height="432" viewBox="0 0 586 432" fill="none" xmlns="http://www.w3.org/2000/svg">
<g clip-path="url(#clip0)">
<path d="M64.5674 112.327H519.656" stroke="#DED8D5" stroke-width="1.97" stroke-miterlimit="10"/>
<path d="M513.714 82.5269H70.5092C67.2276 82.5269 64.5674 85.1847 64.5674 88.4633V357.895C64.5674 361.174 67.2276 363.832 70.5092 363.832H513.714C516.995 363.832 519.656 361.174 519.656 357.895V88.4633C519.656 85.1847 516.995 82.5269 513.714 82.5269Z" stroke="#DED8D5" stroke-width="1.97" stroke-miterlimit="10"/>
<path d="M94.559 97.7319C94.5608 98.5552 94.3181 99.3606 93.8615 100.046C93.405 100.732 92.7552 101.266 91.9943 101.583C91.2335 101.899 90.3958 101.983 89.5873 101.823C88.7789 101.664 88.0359 101.268 87.4525 100.686C86.8692 100.105 86.4716 99.3635 86.3102 98.5561C86.1488 97.7487 86.2307 96.9116 86.5456 96.1508C86.8606 95.39 87.3944 94.7396 88.0795 94.282C88.7646 93.8244 89.5701 93.5801 90.3942 93.5801C91.4972 93.5801 92.5552 94.0172 93.3359 94.7956C94.1167 95.5739 94.5566 96.6299 94.559 97.7319V97.7319Z" fill="#FFB1A5"/>
<path d="M110.735 97.7319C110.737 98.5552 110.494 99.3606 110.038 100.046C109.581 100.732 108.931 101.266 108.17 101.583C107.41 101.899 106.572 101.983 105.763 101.823C104.955 101.664 104.212 101.268 103.629 100.686C103.045 100.105 102.648 99.3635 102.486 98.5561C102.325 97.7487 102.407 96.9116 102.722 96.1508C103.037 95.39 103.57 94.7396 104.256 94.282C104.941 93.8244 105.746 93.5801 106.57 93.5801C107.673 93.5801 108.731 94.0172 109.512 94.7956C110.293 95.5739 110.733 96.6299 110.735 97.7319V97.7319Z" fill="#EAD254"/>
<path d="M126.911 97.7319C126.913 98.5553 126.67 99.3606 126.214 100.046C125.757 100.732 125.107 101.266 124.346 101.583C123.586 101.899 122.748 101.983 121.939 101.823C121.131 101.664 120.388 101.268 119.805 100.686C119.221 100.105 118.824 99.3635 118.662 98.5561C118.501 97.7487 118.583 96.9117 118.898 96.1508C119.213 95.39 119.746 94.7396 120.432 94.282C121.117 93.8244 121.922 93.5801 122.746 93.5801C123.293 93.5789 123.834 93.6854 124.339 93.8935C124.845 94.1016 125.304 94.4072 125.691 94.7929C126.078 95.1786 126.384 95.6367 126.594 96.141C126.803 96.6453 126.911 97.1859 126.911 97.7319Z" fill="#00857B"/>
<path d="M578.773 102.985H471.82C468.805 102.985 466.361 105.427 466.361 108.439V207.264C466.361 210.276 468.805 212.718 471.82 212.718H578.773C581.788 212.718 584.232 210.276 584.232 207.264V108.439C584.232 105.427 581.788 102.985 578.773 102.985Z" fill="#EDEDED"/>
<path d="M578.773 102.985H471.82C468.805 102.985 466.361 105.427 466.361 108.439V207.264C466.361 210.276 468.805 212.718 471.82 212.718H578.773C581.788 212.718 584.232 210.276 584.232 207.264V108.439C584.232 105.427 581.788 102.985 578.773 102.985Z" stroke="#DED8D5" stroke-width="1.97" stroke-miterlimit="10"/>
<path d="M497.675 184.174H553.265C556.295 184.174 558.751 181.72 558.751 178.693V133.177C558.751 130.15 556.295 127.696 553.265 127.696H497.675C494.645 127.696 492.188 130.15 492.188 133.177V178.693C492.188 181.72 494.645 184.174 497.675 184.174Z" fill="#C98BD2"/>
<path d="M540.653 165.327H514.634H509.941V144.74H540.653V149.885V165.327Z" stroke="white" stroke-width="1.65" stroke-linecap="round" stroke-linejoin="round"/>
<path d="M509.941 144.74L525.297 156.832L540.653 144.74" stroke="white" stroke-width="1.65" stroke-linecap="round" stroke-linejoin="round"/>
<path d="M108.101 196.22H6.09673C3.22283 196.22 0.893066 198.547 0.893066 201.419V290.273C0.893066 293.145 3.22283 295.472 6.09673 295.472H108.101C110.975 295.472 113.305 293.145 113.305 290.273V201.419C113.305 198.547 110.975 196.22 108.101 196.22Z" fill="#EDEDED"/>
<path d="M108.101 196.22H6.09673C3.22283 196.22 0.893066 198.547 0.893066 201.419V290.273C0.893066 293.145 3.22283 295.472 6.09673 295.472H108.101C110.975 295.472 113.305 293.145 113.305 290.273V201.419C113.305 198.547 110.975 196.22 108.101 196.22Z" stroke="#DED8D5" stroke-width="1.97" stroke-miterlimit="10"/>
<path d="M83.2951 213.219H30.3927C27.0508 213.219 24.3416 215.925 24.3416 219.264V270.306C24.3416 273.645 27.0508 276.352 30.3927 276.352H83.2951C86.6371 276.352 89.3463 273.645 89.3463 270.306V219.264C89.3463 215.925 86.6371 213.219 83.2951 213.219Z" fill="#FFB1A5"/>
<path d="M44.2358 232.393C41.6645 234.962 39.9132 238.234 39.2035 241.796C38.4938 245.359 38.8574 249.052 40.2485 252.408C41.6396 255.764 43.9955 258.632 47.0185 260.65C50.0414 262.669 53.5955 263.746 57.2313 263.746C60.867 263.746 64.4211 262.669 67.4441 260.65C70.467 258.632 72.823 255.764 74.2141 252.408C75.6051 249.052 75.9688 245.359 75.2591 241.796C74.5493 238.234 72.7981 234.962 70.2268 232.393C66.7704 228.968 62.0994 227.047 57.2313 227.047C52.3631 227.047 47.6922 228.968 44.2358 232.393V232.393ZM70.1812 235.043H64.3305C63.7163 233.147 62.9546 231.302 62.0522 229.525C65.259 230.499 68.094 232.423 70.1812 235.043V235.043ZM50.4875 244.303C50.5031 241.901 50.8091 239.511 51.3988 237.183H63.1549C63.7445 239.511 64.0505 241.901 64.0662 244.303H50.4875ZM63.9113 246.47C63.7376 248.88 63.313 251.267 62.6445 253.59H51.8271C51.1615 251.266 50.7401 248.88 50.5695 246.47H63.9113ZM57.2313 228.833C58.101 228.831 58.9695 228.898 59.8286 229.034C60.9119 230.951 61.8032 232.969 62.4896 235.061H51.9729C52.6615 232.97 53.5528 230.952 54.634 229.034C55.4925 228.892 56.3611 228.819 57.2313 228.815V228.833ZM52.4104 229.544C51.508 231.321 50.7462 233.165 50.1321 235.061H44.2814C46.3675 232.436 49.2022 230.506 52.4104 229.525V229.544ZM42.8232 237.201H49.5306C48.9553 239.532 48.6495 241.92 48.6193 244.321H40.6907C40.8472 241.81 41.5767 239.368 42.8232 237.183V237.201ZM42.8232 253.59C41.5782 251.41 40.8487 248.974 40.6907 246.47H48.6193C48.7428 248.876 49.1185 251.262 49.7402 253.59H42.8232ZM44.2814 255.738H50.3781C51.0029 257.648 51.7581 259.513 52.6382 261.32C49.341 260.359 46.4219 258.404 44.2814 255.72V255.738ZM57.2313 261.948C56.5059 261.946 55.7815 261.897 55.0623 261.802C54.0713 259.834 53.2127 257.802 52.4924 255.72H61.9702C61.2538 257.804 60.3951 259.836 59.4002 261.802C58.6811 261.897 57.9566 261.946 57.2313 261.948V261.948ZM61.7879 261.301C62.6671 259.493 63.4251 257.629 64.0571 255.72H70.1448C68.0205 258.388 65.1246 260.337 61.8517 261.301H61.7879ZM71.612 253.571H64.6859C65.3076 251.244 65.6833 248.857 65.8068 246.451H73.7445C73.5936 248.953 72.8769 251.387 71.6484 253.571H71.612ZM73.7445 244.303H65.8433C65.804 241.903 65.4984 239.515 64.932 237.183H71.6393C72.8823 239.364 73.6145 241.798 73.7809 244.303H73.7445Z" fill="white"/>
<path d="M102.023 56.5687H9.61457C8.69853 56.5687 7.82001 56.2052 7.17227 55.558C6.52454 54.9109 6.16064 54.0332 6.16064 53.118V53.118C6.16064 52.2028 6.52454 51.3251 7.17227 50.6779C7.82001 50.0308 8.69853 49.6672 9.61457 49.6672H102.023C102.939 49.6672 103.817 50.0308 104.465 50.6779C105.113 51.3251 105.477 52.2028 105.477 53.118V53.118C105.477 54.0332 105.113 54.9109 104.465 55.558C103.817 56.2052 102.939 56.5687 102.023 56.5687V56.5687Z" fill="#C98BD2"/>
<path d="M582.537 282.088H537.681C536.765 282.085 535.886 281.72 535.239 281.071C534.591 280.423 534.228 279.544 534.228 278.628C534.228 277.713 534.591 276.835 535.239 276.188C535.887 275.541 536.765 275.177 537.681 275.177H582.537C583.453 275.177 584.331 275.541 584.979 276.188C585.627 276.835 585.991 277.713 585.991 278.628V278.628C585.991 279.544 585.627 280.423 584.98 281.071C584.332 281.72 583.454 282.085 582.537 282.088V282.088Z" fill="#56DFED"/>
<path d="M551.133 311.679H545.646C544.207 311.679 543.04 312.845 543.04 314.283V319.427C543.04 320.865 544.207 322.031 545.646 322.031H551.133C552.572 322.031 553.739 320.865 553.739 319.427V314.283C553.739 312.845 552.572 311.679 551.133 311.679Z" fill="#C98BD2"/>
<path d="M31.6321 335.606H26.1459C24.7065 335.606 23.5396 336.772 23.5396 338.21V343.355C23.5396 344.793 24.7065 345.959 26.1459 345.959H31.6321C33.0716 345.959 34.2385 344.793 34.2385 343.355V338.21C34.2385 336.772 33.0716 335.606 31.6321 335.606Z" fill="#FFB1A5"/>
<path d="M451.097 25.2661H359.882C358.367 25.2661 357.139 26.4931 357.139 28.0067V50.2591C357.139 51.7726 358.367 52.9996 359.882 52.9996H451.097C452.612 52.9996 453.84 51.7726 453.84 50.2591V28.0067C453.84 26.4931 452.612 25.2661 451.097 25.2661Z" fill="#FFB1A5"/>
<path d="M370.308 35.1448H435.176" stroke="white" stroke-width="1.18" stroke-miterlimit="10"/>
<path d="M370.308 41.8005H396.727" stroke="white" stroke-width="1.18" stroke-miterlimit="10"/>
<path d="M367.665 49.8584V60.675L381.271 49.8584H367.665Z" fill="#FFB1A5"/>
<path d="M180.971 0H227.002C228.563 0 230.061 0.619684 231.165 1.72273C232.269 2.82577 232.889 4.32182 232.889 5.88176V48.7658C232.884 50.3226 232.262 51.814 231.158 52.9131C230.055 54.0122 228.56 54.6294 227.002 54.6294H182.848C180.789 54.6294 178.814 53.8121 177.358 52.3573C175.902 50.9025 175.084 48.9294 175.084 46.872V5.89997C175.081 5.12604 175.232 4.35924 175.527 3.64353C175.821 2.92782 176.255 2.27726 176.802 1.72916C177.349 1.18106 177.998 0.746183 178.714 0.449458C179.429 0.152734 180.196 -3.70907e-06 180.971 0V0Z" fill="#56DFED"/>
<path d="M217.469 31.3665L214.179 28.0796C213.917 27.7749 213.593 27.529 213.228 27.358C212.864 27.187 212.468 27.0947 212.065 27.0872C211.268 27.0995 210.507 27.4268 209.951 27.9977L208.064 29.8733L207.718 29.7003C207.481 29.5819 207.308 29.5182 207.126 29.4089C205.268 28.1934 203.621 26.6834 202.25 24.9384C201.631 24.2116 201.116 23.4027 200.719 22.5347C201.193 22.125 201.631 21.6242 202.013 21.2418L202.542 20.7137C202.856 20.4454 203.107 20.1123 203.28 19.7375C203.453 19.3626 203.542 18.9549 203.542 18.5422C203.542 18.1296 203.453 17.7219 203.28 17.347C203.107 16.9722 202.856 16.6391 202.542 16.3707L200.901 14.7227C200.709 14.5413 200.529 14.3466 200.364 14.14L199.252 13.0201C198.692 12.4542 197.934 12.1277 197.138 12.1096C196.742 12.1096 196.35 12.1903 195.986 12.3468C195.623 12.5034 195.295 12.7325 195.023 13.0201L192.964 15.0778C192.191 15.8495 191.714 16.8677 191.615 17.955C191.546 19.4789 191.804 21 192.371 22.4164C193.4 25.2407 194.945 27.8495 196.928 30.11C199.51 33.1909 202.715 35.6917 206.333 37.4485C207.989 38.2876 209.782 38.8241 211.628 39.0328H212.038C212.7 39.0434 213.357 38.9133 213.965 38.6511C214.573 38.389 215.118 38.0008 215.565 37.5123L215.619 37.4485C215.944 37.0697 216.297 36.7165 216.676 36.3924L217.442 35.6276C217.733 35.3547 217.965 35.0257 218.124 34.6605C218.284 34.2952 218.368 33.9014 218.37 33.5029C218.373 33.1044 218.294 32.7095 218.139 32.3422C217.985 31.975 217.757 31.643 217.469 31.3665ZM216.121 34.4257L215.419 35.1268C215 35.4819 214.653 35.8916 214.243 36.3013C213.975 36.5954 213.646 36.8288 213.28 36.9858C212.914 37.1428 212.518 37.2199 212.12 37.2118H211.828C210.232 37.042 208.684 36.5626 207.272 35.8006C203.886 34.1336 200.892 31.7691 198.486 28.8626C196.675 26.7468 195.225 24.3475 194.194 21.7608C193.65 20.6277 193.408 19.373 193.492 18.1189C193.51 17.7951 193.592 17.4781 193.733 17.186C193.874 16.8939 194.071 16.6323 194.313 16.4162L196.308 14.4223C196.523 14.1861 196.819 14.0398 197.138 14.0125C197.296 14.0192 197.45 14.0592 197.592 14.1298C197.733 14.2004 197.858 14.3001 197.958 14.4223L199.015 15.4784C199.199 15.6892 199.396 15.8869 199.607 16.0703L201.248 17.7091C201.477 17.9256 201.622 18.2157 201.658 18.5286C201.634 18.8475 201.487 19.1448 201.248 19.3571L200.719 19.8852L199.252 21.3511L199.188 21.4057C198.984 21.5847 198.84 21.8232 198.778 22.0877C198.716 22.3522 198.738 22.6295 198.842 22.8807V22.9353C199.337 24.0857 199.99 25.1614 200.783 26.1312C202.281 28.0451 204.089 29.6947 206.132 31.0114C206.373 31.1688 206.626 31.3059 206.889 31.4211C207.092 31.5054 207.29 31.6028 207.481 31.7125L207.536 31.7762C207.805 31.9178 208.114 31.9652 208.413 31.9107C208.712 31.8562 208.984 31.7031 209.185 31.4757L211.245 29.4271C211.347 29.3065 211.472 29.2074 211.613 29.1355C211.754 29.0636 211.908 29.0204 212.065 29.0083C212.363 29.0506 212.635 29.1994 212.831 29.4271L216.121 32.714C216.247 32.8182 216.348 32.949 216.418 33.0969C216.488 33.2449 216.524 33.4064 216.524 33.5699C216.524 33.7334 216.488 33.8949 216.418 34.0428C216.348 34.1907 216.247 34.3215 216.121 34.4257V34.4257Z" fill="white"/>
<path d="M419.091 261.565L385.827 257.14L386.092 260.445L357.649 264.224C357.649 264.224 339.277 310.204 355.435 411.268H378.573L386.894 308.792H389.856L397.921 411.268H421.05C437.208 310.204 419.091 261.565 419.091 261.565Z" fill="#8E716C"/>
<path d="M376.322 308.756H400.463" stroke="#282828" stroke-width="1.23" stroke-linecap="round" stroke-linejoin="round"/>
<path d="M438.484 213.091C435.641 208.539 419.647 208.712 418.808 208.611C414.489 208.111 421.542 242.463 430.564 272.5C430.974 273.856 431.665 275.111 432.592 276.182C433.519 277.253 434.661 278.118 435.945 278.719C437.228 279.32 438.624 279.645 440.041 279.671C441.458 279.698 442.865 279.426 444.17 278.874L444.353 278.801C446.478 277.903 448.232 276.304 449.321 274.272C450.411 272.239 450.77 269.895 450.34 267.629C446.066 245.004 441.774 218.335 438.484 213.091Z" fill="#FFB1A5"/>
<path d="M442.293 225.51L421.889 233.422L419.975 223.753L441.108 218.481L442.293 225.51Z" fill="#F3978E"/>
<path d="M446.148 244.876C446.148 244.876 436.479 257.842 436.944 257.25C437.408 256.658 444.526 236.309 444.526 236.309L446.148 244.876Z" fill="#F3978E"/>
<path d="M459.973 227.431L432.259 263.314C431.399 264.427 430.779 265.707 430.438 267.071C430.097 268.436 430.043 269.857 430.279 271.244C430.516 272.631 431.037 273.953 431.811 275.129C432.585 276.304 433.594 277.306 434.775 278.073V278.073C435.952 278.838 437.274 279.353 438.659 279.584C440.045 279.815 441.463 279.758 442.825 279.416C444.187 279.074 445.463 278.455 446.575 277.597C447.686 276.739 448.608 275.661 449.283 274.431L472.358 231.902L459.973 227.431Z" fill="#FFB1A5"/>
<path d="M467.145 236.645C464.995 235.949 463.1 234.633 461.7 232.861C460.299 231.09 459.456 228.943 459.276 226.693C459.096 224.442 459.588 222.189 460.689 220.218C461.791 218.247 463.452 216.646 465.464 215.618C467.476 214.59 469.748 214.182 471.992 214.443C474.236 214.705 476.353 215.625 478.074 217.088C479.794 218.551 481.043 220.491 481.66 222.663C482.278 224.834 482.237 227.14 481.544 229.289C481.083 230.717 480.344 232.04 479.371 233.183C478.397 234.326 477.208 235.266 475.871 235.949C474.533 236.632 473.074 237.046 471.577 237.165C470.08 237.285 468.574 237.108 467.145 236.645V236.645Z" fill="#FFB1A5"/>
<path d="M478.992 218.909C478.992 218.909 482.127 215.668 476.577 213.392C471.027 211.115 464.165 211.643 459.781 222.269L478.992 218.909Z" fill="#FFB1A5"/>
<path d="M484.706 196.238L496.316 201.264C496.47 201.334 496.608 201.436 496.719 201.564C496.831 201.691 496.914 201.841 496.963 202.003C497.012 202.164 497.026 202.335 497.004 202.503C496.982 202.67 496.925 202.832 496.836 202.976L481.608 231.465C481.443 231.785 481.166 232.032 480.829 232.16C480.493 232.288 480.121 232.287 479.785 232.157L468.184 227.131C468.03 227.061 467.893 226.96 467.782 226.834C467.67 226.707 467.587 226.559 467.537 226.398C467.487 226.237 467.472 226.068 467.492 225.9C467.513 225.733 467.568 225.572 467.655 225.428L482.92 196.939C483.082 196.626 483.353 196.382 483.681 196.253C484.01 196.125 484.374 196.119 484.706 196.238V196.238Z" fill="#372F5F"/>
<path d="M483.64 195.737L495.241 200.763C495.395 200.832 495.532 200.934 495.643 201.06C495.755 201.186 495.838 201.335 495.888 201.496C495.938 201.656 495.953 201.826 495.933 201.993C495.912 202.16 495.857 202.321 495.77 202.465L480.505 230.991C480.342 231.313 480.065 231.562 479.729 231.692C479.392 231.821 479.019 231.821 478.682 231.692L467.072 226.666C466.918 226.596 466.781 226.494 466.669 226.366C466.558 226.239 466.475 226.089 466.426 225.928C466.377 225.766 466.363 225.595 466.385 225.427C466.406 225.26 466.464 225.098 466.553 224.955L481.827 196.393C481.997 196.081 482.275 195.843 482.609 195.722C482.943 195.602 483.31 195.607 483.64 195.737Z" fill="#261B43"/>
<path d="M482.328 198.632L492.525 203.048L480.086 226.266L469.888 221.85L482.328 198.632Z" fill="#E6E6E6"/>
<path d="M492.525 203.048L469.888 221.85L482.328 198.632L492.525 203.048Z" fill="white"/>
<path d="M473.242 212.445C474.961 212.814 476.618 213.427 478.163 214.266C478.662 214.548 479.055 214.985 479.284 215.511C479.512 216.036 479.563 216.622 479.43 217.179V217.179C479.302 217.689 479.023 218.149 478.629 218.498C478.236 218.847 477.746 219.07 477.224 219.137L471.191 219.892C471.191 219.892 468.047 225.355 463.901 225.92L467.701 216.423L473.242 212.445Z" fill="#FFB1A5"/>
<path d="M396.198 167.912C395.533 167.912 438.976 173.922 446.148 223.452L423.647 226.867L419.091 264.197H356.209L343.715 195.163C343.715 195.163 357.649 175.214 383.531 167.849L396.198 167.912Z" fill="#56DFED"/>
<path d="M423.602 226.858L425.561 205.252" stroke="#282828" stroke-width="1.23" stroke-linecap="round" stroke-linejoin="round"/>
<path d="M400.326 168.623V151.433H380.159V168.823C378.302 169.419 376.493 170.153 374.746 171.017L390.466 180.377L406.551 171.017C404.587 169.956 402.495 169.152 400.326 168.623V168.623Z" fill="#FFB1A5"/>
<path d="M379.977 153.527C379.977 153.527 383.622 163.132 393.264 162.304C402.149 161.548 400.737 148.228 400.737 148.228L379.977 153.527Z" fill="#282828"/>
<path d="M371.183 140.753C368.02 143.621 360.948 132.758 364.01 129.708C367.072 126.658 369.387 131.438 369.387 131.438L370.754 134.68L371.784 139.077L372.03 140.224L371.183 140.753Z" fill="#F3978E"/>
<path d="M365.478 133.569C365.478 133.569 367.874 132.494 370.034 135.963" stroke="#282828" stroke-width="0.99" stroke-linecap="round" stroke-linejoin="round"/>
<path d="M408.556 140.425C411.463 143.548 419.428 133.314 416.639 130.018C413.851 126.722 411.171 131.293 411.171 131.293L409.54 134.406L408.146 138.704L407.799 139.824L408.556 140.425Z" fill="#F3978E"/>
<path d="M414.844 133.733C414.844 133.733 412.548 132.458 410.142 135.727" stroke="#282828" stroke-width="0.99" stroke-linecap="round" stroke-linejoin="round"/>
<path d="M365.633 119.338C365.633 133.724 376.614 140.543 390.147 140.543C403.68 140.543 414.662 133.724 414.662 119.338C414.662 104.952 403.726 95.1736 390.147 95.1736C376.568 95.1736 365.633 104.961 365.633 119.338Z" fill="#282828"/>
<path d="M368.968 120.339C368.978 127.694 369.815 135.024 371.465 142.191C372.686 147.49 376.113 151.187 380.97 154.164L381.881 154.71C384.435 156.258 387.359 157.091 390.345 157.123C393.332 157.155 396.273 156.385 398.859 154.892V154.892C404.118 151.833 407.8 147.8 408.93 142.146C410.244 134.954 411.009 127.674 411.217 120.367C411.217 120.367 413.176 98.0869 390.402 98.5149C367.628 98.9428 368.968 120.339 368.968 120.339Z" fill="#FFB1A5"/>
<path d="M388.698 133.059V136.145C388.699 136.323 388.733 136.499 388.798 136.664C388.934 136.967 389.176 137.21 389.477 137.349C389.778 137.488 390.12 137.513 390.439 137.42L391.851 137.047" stroke="#282828" stroke-width="1.23" stroke-linecap="round" stroke-linejoin="round"/>
<path d="M385.08 121.104L373.761 123.754C373.761 123.754 374.272 120.877 378.901 119.83C383.531 118.783 385.08 121.104 385.08 121.104Z" fill="#282828"/>
<path d="M395.123 121.104L406.059 123.754C406.059 123.754 405.558 120.877 401.092 119.83C396.627 118.783 395.123 121.104 395.123 121.104Z" fill="#282828"/>
<path d="M380.779 131.302C381.831 131.302 382.683 130.45 382.683 129.399C382.683 128.348 381.831 127.496 380.779 127.496C379.727 127.496 378.874 128.348 378.874 129.399C378.874 130.45 379.727 131.302 380.779 131.302Z" fill="#282828"/>
<path d="M400.773 129.408C400.773 129.784 400.661 130.152 400.452 130.465C400.243 130.778 399.945 131.022 399.597 131.166C399.249 131.31 398.866 131.348 398.497 131.274C398.127 131.201 397.788 131.02 397.522 130.753C397.255 130.487 397.074 130.148 397 129.779C396.927 129.41 396.965 129.027 397.109 128.68C397.253 128.332 397.497 128.035 397.81 127.826C398.124 127.616 398.492 127.505 398.869 127.505C399.374 127.505 399.858 127.705 400.215 128.062C400.572 128.419 400.773 128.903 400.773 129.408Z" fill="#282828"/>
<path d="M382.683 141.008H397.401C397.401 141.008 390.84 148.938 382.683 141.008Z" fill="white"/>
<path d="M385.717 135.87C388.885 132.705 388.885 127.574 385.717 124.41C382.55 121.245 377.414 121.245 374.247 124.41C371.079 127.574 371.079 132.705 374.247 135.87C377.414 139.034 382.55 139.034 385.717 135.87Z" stroke="#C98BD2" stroke-width="1.34" stroke-miterlimit="10"/>
<path d="M405.652 135.875C408.819 132.71 408.819 127.579 405.652 124.415C402.484 121.25 397.349 121.25 394.182 124.415C391.014 127.579 391.014 132.71 394.181 135.875C397.349 139.039 402.484 139.039 405.652 135.875Z" stroke="#C98BD2" stroke-width="1.34" stroke-miterlimit="10"/>
<path d="M388.106 130.145C388.106 130.145 390.029 128.324 391.815 130.145" stroke="#C98BD2" stroke-width="1.34" stroke-miterlimit="10"/>
<path d="M371.866 130.145L369.305 130.073" stroke="#C98BD2" stroke-width="1.34" stroke-miterlimit="10"/>
<path d="M408.027 130.145L410.597 130.073" stroke="#C98BD2" stroke-width="1.34" stroke-miterlimit="10"/>
<path d="M410.889 127.733C410.889 127.733 401.776 115.432 403.881 102.976C406.089 104.277 407.992 106.036 409.462 108.135C410.932 110.233 411.935 112.622 412.402 115.14C414.17 123.908 410.889 127.733 410.889 127.733Z" fill="#282828"/>
<path d="M368.968 128.561C368.968 128.561 379.548 114.594 377.443 102.157C372.804 105.117 369.528 109.791 368.33 115.159C366.571 123.909 368.968 128.561 368.968 128.561Z" fill="#282828"/>
<path d="M410.132 107.884C410.132 107.884 398.44 120.631 366.462 118.482C366.462 118.482 371.355 99.7168 386.857 97.7229C386.857 97.7229 404.756 95.5832 410.132 107.884Z" fill="#282828"/>
<path d="M424.397 95.3625C425.742 87.0424 420.08 79.2088 411.753 77.8658C403.425 76.5227 395.584 82.1787 394.24 90.4987C392.896 98.8188 398.557 106.652 406.884 107.995C415.212 109.338 423.053 103.682 424.397 95.3625Z" fill="#282828"/>
<path d="M222.901 261.529L194.468 257.75L194.723 254.445L161.459 258.87C161.459 258.87 143.306 307.472 159.464 408.537H182.593L190.658 306.061H193.62L201.95 408.537H225.079C241.237 307.472 222.901 261.529 222.901 261.529Z" fill="#282828"/>
<path d="M220.641 123.28C216.395 118.2 213.154 112.361 211.09 106.072C208.274 98.1236 199.07 101.356 199.07 101.356C199.07 101.356 191.396 91.4952 179.85 94.9277C168.303 98.3603 164.293 106.573 164.057 116.324C163.82 126.076 156.137 127.614 150.223 138.904C139.779 158.835 157.358 175.615 189.41 170.963V170.653C193.227 171.706 197.201 172.076 201.147 171.746C239.56 169.47 235.914 141.208 220.641 123.28Z" fill="#282828"/>
<path d="M208.046 138.058C211.209 140.926 218.271 130.063 215.218 127.013C212.165 123.963 209.842 128.743 209.842 128.743L208.475 131.985L207.445 136.382L207.199 137.529L208.046 138.058Z" fill="#F3978E"/>
<path d="M213.742 130.837C213.742 130.837 211.354 129.763 209.231 133.232" stroke="#282828" stroke-width="0.99" stroke-linecap="round" stroke-linejoin="round"/>
<path d="M170.673 137.73C167.766 140.853 159.801 130.628 162.589 127.323C165.378 124.018 168.057 128.598 168.057 128.598L169.698 131.721L171.092 136.009L171.429 137.129L170.673 137.73Z" fill="#F3978E"/>
<path d="M164.385 131.038C164.385 131.038 166.672 129.763 169.087 133.032" stroke="#282828" stroke-width="0.99" stroke-linecap="round" stroke-linejoin="round"/>
<path d="M213.587 116.652C213.587 131.029 202.651 137.848 189.082 137.848C175.512 137.848 164.567 131.029 164.567 116.652C164.567 102.275 175.503 92.4875 189.082 92.4875C202.66 92.4875 213.587 102.266 213.587 116.652Z" fill="#282828"/>
<path d="M199.07 148.729H178.902V174.814H199.07V148.729Z" fill="#FFB1A5"/>
<path d="M175.958 147.108C175.958 147.108 181.572 158.298 188.48 160.046C190.336 160.493 192.283 160.382 194.076 159.727C196.673 158.817 199.963 154.938 200.528 150.622L200.783 148.173C200.783 148.173 188.526 154.883 175.958 147.108Z" fill="#282828"/>
<path d="M210.261 117.644C210.25 124.999 209.412 132.328 207.764 139.496C206.543 144.786 203.107 148.483 198.259 151.46L197.347 152.006C194.793 153.554 191.87 154.387 188.883 154.419C185.896 154.451 182.956 153.681 180.369 152.188V152.188C175.111 149.129 171.429 145.096 170.299 139.441C168.985 132.25 168.22 124.97 168.012 117.663C168.012 117.663 166.052 95.3828 188.817 95.8108C211.582 96.2387 210.261 117.644 210.261 117.644Z" fill="#FFB1A5"/>
<path d="M187.56 131.575V133.396C187.56 133.574 187.594 133.75 187.66 133.915C187.796 134.217 188.037 134.46 188.339 134.599C188.64 134.738 188.982 134.764 189.3 134.671L190.713 134.297" stroke="#282828" stroke-width="1.23" stroke-linecap="round" stroke-linejoin="round"/>
<path d="M192.299 119.493L204.419 122.361C204.419 122.361 203.863 119.247 198.906 118.118C193.948 116.989 192.299 119.493 192.299 119.493Z" fill="#282828"/>
<path d="M185.938 119.493L173.671 122.361C173.671 122.361 174.227 119.247 179.248 118.118C184.27 116.989 185.938 119.493 185.938 119.493Z" fill="#282828"/>
<path d="M181.545 127.004C181.549 127.383 181.439 127.755 181.231 128.072C181.022 128.389 180.724 128.637 180.374 128.784C180.024 128.932 179.638 128.972 179.266 128.899C178.893 128.827 178.55 128.645 178.281 128.378C178.012 128.11 177.829 127.769 177.755 127.397C177.68 127.025 177.718 126.639 177.864 126.289C178.01 125.938 178.256 125.639 178.573 125.429C178.889 125.22 179.261 125.109 179.64 125.11C180.144 125.11 180.627 125.31 180.984 125.664C181.341 126.019 181.543 126.501 181.545 127.004V127.004Z" fill="#282828"/>
<path d="M199.635 127.004C199.637 127.381 199.526 127.75 199.318 128.064C199.11 128.378 198.813 128.623 198.465 128.769C198.117 128.914 197.734 128.953 197.364 128.881C196.994 128.808 196.654 128.628 196.387 128.362C196.119 128.096 195.937 127.757 195.863 127.388C195.788 127.019 195.826 126.635 195.97 126.287C196.113 125.939 196.358 125.641 196.671 125.432C196.984 125.222 197.353 125.11 197.73 125.11C197.98 125.109 198.227 125.157 198.458 125.252C198.689 125.347 198.899 125.486 199.076 125.662C199.253 125.838 199.394 126.047 199.49 126.277C199.585 126.508 199.635 126.755 199.635 127.004V127.004Z" fill="#282828"/>
<path d="M180.324 137.848H197.074C197.074 137.848 195.889 142.446 188.298 142.446C186.675 142.48 185.074 142.07 183.668 141.259C182.262 140.449 181.106 139.269 180.324 137.848V137.848Z" fill="white"/>
<path d="M168.331 125.037C168.331 125.037 177.444 112.737 175.339 100.281C173.13 101.582 171.227 103.341 169.757 105.44C168.287 107.538 167.285 109.927 166.818 112.445C165.059 121.223 168.331 125.037 168.331 125.037Z" fill="#282828"/>
<path d="M210.27 124.628C210.27 124.628 199.699 111.881 201.795 99.4436C206.433 102.403 209.71 107.078 210.908 112.445C212.658 121.223 210.27 124.628 210.27 124.628Z" fill="#282828"/>
<path d="M169.096 105.189C169.096 105.189 179.54 119.219 211.518 117.025C211.518 117.025 207.873 96.9944 192.381 95.0278C192.371 95.0278 174.473 92.8881 169.096 105.189Z" fill="#282828"/>
<path d="M139.943 323.233C139.478 323.97 166.563 205.507 158.516 207.291C157.787 207.455 143.707 208.766 141.611 213.018C135.541 225.337 131.194 322.341 131.194 322.341L139.943 323.233Z" fill="#FFB1A5"/>
<path d="M131.194 322.341C131.194 322.341 126.829 342.572 143.333 344.802C143.861 344.874 144.397 344.76 144.85 344.481C145.304 344.203 145.647 343.776 145.821 343.273L145.876 343.136C146.06 342.584 146.03 341.983 145.793 341.452C145.555 340.921 145.126 340.498 144.591 340.268C141.902 339.066 137.728 336.034 139.797 329.133C139.797 329.133 142.185 328.841 143.497 333.285C143.575 333.554 143.71 333.802 143.895 334.013C144.079 334.224 144.308 334.392 144.564 334.505C144.821 334.618 145.099 334.673 145.379 334.667C145.659 334.66 145.934 334.593 146.185 334.468C146.541 334.29 146.831 334.006 147.018 333.655C147.204 333.304 147.276 332.904 147.224 332.511C146.823 329.397 145.256 321.904 139.241 319.891L131.194 322.341Z" fill="#FFB1A5"/>
<path d="M136.744 241.48C136.744 241.48 152.346 263.432 152.428 263.013C152.51 262.594 157.896 232.184 157.896 232.184L138.959 223.99L136.744 241.48Z" fill="#F3978E"/>
<path d="M180.105 170.526C180.77 170.526 141.538 171.227 134.366 220.721L156.912 224.172L161.469 261.502H224.35L236.826 192.496C236.826 192.496 227.95 177.546 202.077 170.216L180.105 170.526Z" fill="#00857B"/>
<path d="M160.931 176.507C160.931 176.507 166.472 183.864 189.182 183.864C211.682 183.864 217.433 176.125 217.433 176.125C217.433 176.125 204.164 168.723 188.772 166.328C179.044 168.346 169.664 171.775 160.931 176.507V176.507Z" fill="#FFB1A5"/>
<path d="M238.12 333.294L238.175 432H287.049L290.804 333.294H238.12Z" fill="#005683"/>
<path d="M344.234 333.294L344.18 432H295.305L291.551 333.294H344.234Z" fill="#005683"/>
<path d="M317.542 333.294H267.009V367.583H317.542V333.294Z" fill="#005683"/>
<path d="M274.072 367.583H308.921" stroke="#282828" stroke-width="1.4" stroke-linecap="round" stroke-linejoin="round"/>
<path d="M375.11 247.162C378.136 280.613 374.937 304.978 375.821 366.518L346.659 367.747L342.312 252.543L375.11 247.162Z" fill="#FFB1A5"/>
<path d="M345.902 273.265C345.902 273.265 363.965 271.608 376.322 263.468L375.994 256.312L345.921 260.409L345.902 273.265Z" fill="#F3978E"/>
<path d="M316.922 170.161C316.922 170.161 374.336 184.574 384.697 257.341C384.697 257.341 356.619 269.505 328.478 264.27L334.802 239.932L316.922 170.161Z" fill="#C98BD2"/>
<path d="M145.538 200.417L188.261 250.822L175.193 287.605C175.193 287.605 142.722 242.5 128.132 207.637L145.538 200.417Z" fill="#FFB1A5"/>
<path d="M146.942 202.229C146.942 202.229 131.941 210.705 128.132 207.637C121.461 202.283 115.948 182.69 115.948 182.69C115.948 182.69 144.007 172.128 143.743 172.538C143.479 172.947 146.942 202.229 146.942 202.229Z" fill="#FFB1A5"/>
<path d="M146.942 202.229C146.678 200.727 152.51 184.447 154.506 178.347C154.604 177.983 154.626 177.603 154.57 177.231C154.515 176.859 154.383 176.502 154.182 176.183C153.982 175.864 153.718 175.59 153.407 175.378C153.095 175.166 152.744 175.02 152.373 174.951V174.951C151.719 174.779 151.026 174.824 150.399 175.08C149.773 175.337 149.247 175.79 148.901 176.371L141.866 188.389L146.942 202.229Z" fill="#FFB1A5"/>
<path d="M146.432 184.638L141.602 160.628C141.449 159.85 140.997 159.163 140.343 158.713C139.689 158.264 138.884 158.089 138.102 158.225V158.225C137.444 158.343 136.857 158.708 136.459 159.244C136.061 159.78 135.883 160.448 135.961 161.111L138.075 178.993L146.432 184.638Z" fill="#FFB1A5"/>
<path d="M136.826 175.779L130.265 158.635C129.993 157.914 129.455 157.324 128.763 156.985C128.07 156.647 127.274 156.585 126.537 156.814V156.814C125.917 157.017 125.396 157.447 125.078 158.018C124.761 158.588 124.67 159.257 124.824 159.891L129.691 179.703L136.826 175.779Z" fill="#FFB1A5"/>
<path d="M129.773 180.832L121.47 163.988C121.108 163.233 120.469 162.645 119.686 162.345C118.903 162.046 118.035 162.057 117.26 162.377V162.377C116.913 162.527 116.599 162.744 116.336 163.017C116.073 163.289 115.867 163.61 115.729 163.962C115.591 164.314 115.524 164.69 115.532 165.068C115.539 165.446 115.622 165.818 115.775 166.164L122.4 182.071L129.773 180.832Z" fill="#FFB1A5"/>
<path d="M115.948 182.735L109.441 172.419C109.308 172.14 109.232 171.837 109.217 171.528C109.202 171.219 109.249 170.91 109.355 170.619C109.461 170.329 109.624 170.062 109.835 169.835C110.045 169.608 110.298 169.425 110.58 169.296V169.296C111.145 169.052 111.776 169.009 112.369 169.175C112.961 169.34 113.478 169.705 113.833 170.207L122.4 182.043L115.948 182.735Z" fill="#FFB1A5"/>
<path d="M145.119 182.835C145.119 182.835 135.341 181.806 134.329 194.826" stroke="#282828" stroke-width="1.53" stroke-linecap="round" stroke-linejoin="round"/>
<path d="M166.526 270.397C166.526 270.397 174.564 298.176 190.576 294.489C206.588 290.801 231.54 256.631 231.54 256.631L225.954 198.286L181.016 253.553L166.526 270.397Z" fill="#FFB1A5"/>
<path d="M194.95 236.381C194.95 236.381 210.124 259.253 223.065 267.338L231.54 256.658L198.86 231.401L194.95 236.381Z" fill="#F3978E"/>
<path d="M261.331 168.896C261.331 168.896 216.777 178.929 193.082 230.654C193.082 230.654 207.427 252.242 230.447 261.839L245.848 243.001L261.331 168.896Z" fill="#C98BD2"/>
<path d="M261.331 168.741C250.849 174.115 241.286 181.115 232.998 189.482L236.425 340.678H346.085L345.729 190.265C345.729 190.265 331.904 176.744 316.922 170.161C304.2 164.525 273.707 162.404 261.331 168.741Z" fill="#C98BD2"/>
<path d="M298.003 211.935H328.505V227.167C328.505 231.209 326.898 235.086 324.037 237.945C321.176 240.803 317.296 242.409 313.25 242.409C309.205 242.406 305.327 240.799 302.468 237.941C299.609 235.083 298.003 231.208 298.003 227.167V211.935Z" stroke="#282828" stroke-width="1.4" stroke-linecap="round" stroke-linejoin="round"/>
<path d="M345.911 264.825L347.333 215.367" stroke="#282828" stroke-width="1.4" stroke-linecap="round" stroke-linejoin="round"/>
<path d="M234.684 256.585L232.315 213.71" stroke="#282828" stroke-width="1.4" stroke-linecap="round" stroke-linejoin="round"/>
<path d="M262.616 113.538L258.06 90.9488C257.795 89.1278 257.085 86.2689 257.96 83.6011C259.409 79.1853 264.731 70.7086 273.826 74.5873L275.794 83.5374C275.794 83.5374 266.344 85.4403 262.553 97.7775L262.616 113.538Z" fill="#282828"/>
<path d="M273.142 79.2217C272.978 82.1899 270.354 95.1826 261.14 99.9171C261.14 99.8807 253.057 82.5814 273.142 79.2217Z" fill="#282828"/>
<path d="M305.494 164.58V126.212H270.089V164.58L259.554 169.378C259.554 169.378 262.024 185.276 288.161 185.631C314.297 185.986 316.922 170.152 316.922 170.152L305.494 164.58Z" fill="#FFB1A5"/>
<path d="M273.816 74.56C273.816 74.56 280.314 57.4337 300.345 66.5386C312.475 72.047 315.838 79.4402 317.314 84.6755C317.79 86.6718 317.972 88.7271 317.852 90.7758L313.003 113.538L294.084 82.0806L275.785 83.4919L273.816 74.56Z" fill="#282828"/>
<path d="M313.003 113.538C313.003 113.538 315.391 109.75 320.294 111.617C325.197 113.483 323.028 125.42 315.61 126.95C314.78 127.095 313.929 127.06 313.114 126.847C312.299 126.633 311.54 126.246 310.889 125.711C310.889 125.711 312.721 116.861 313.003 113.538Z" fill="#F3978E"/>
<path d="M319.337 115.805C319.337 115.805 315.218 114.43 312.293 120.494" stroke="#282828" stroke-width="1.4" stroke-linecap="round" stroke-linejoin="round"/>
<path d="M262.616 113.538C262.616 113.538 260.229 109.75 255.326 111.617C250.423 113.483 252.592 125.42 260.019 126.95C260.849 127.095 261.7 127.06 262.515 126.847C263.33 126.633 264.089 126.246 264.74 125.711C264.74 125.711 262.908 116.861 262.616 113.538Z" fill="#F3978E"/>
<path d="M256.283 115.805C256.283 115.805 260.411 114.43 263.336 120.494" stroke="#282828" stroke-width="1.4" stroke-linecap="round" stroke-linejoin="round"/>
<path d="M313.496 102.184C313.496 109.377 312.794 124.446 308.365 133.387C304.209 141.781 297.329 146.297 288.316 146.561C279.303 146.826 272.577 143.366 267.191 132.467C261.805 121.569 262.061 102.312 262.061 102.312C262.061 102.312 262.06 76.5903 287.505 76.5903C314.289 76.5903 313.496 102.184 313.496 102.184Z" fill="#FFB1A5"/>
<path d="M270.354 137.839C270.354 137.839 273.324 152.862 286.411 154.592C301.475 156.577 305.494 138.203 305.494 138.203C305.494 138.203 298.832 146.534 288.307 146.543C284.852 146.531 281.445 145.742 278.337 144.235C275.23 142.728 272.501 140.542 270.354 137.839V137.839Z" fill="#282828"/>
<path d="M285.964 112.855V118.81C285.963 119.059 286.01 119.306 286.101 119.538C286.29 119.961 286.626 120.301 287.046 120.496C287.467 120.69 287.944 120.725 288.388 120.594L290.366 120.075" stroke="#282828" stroke-width="1.4" stroke-linecap="round" stroke-linejoin="round"/>
<path d="M278.446 110.015C278.446 110.472 278.31 110.919 278.056 111.299C277.801 111.68 277.44 111.976 277.017 112.151C276.594 112.326 276.129 112.372 275.68 112.283C275.231 112.194 274.818 111.973 274.494 111.65C274.171 111.326 273.95 110.914 273.861 110.466C273.772 110.017 273.817 109.552 273.993 109.13C274.168 108.707 274.464 108.346 274.845 108.092C275.226 107.838 275.673 107.702 276.131 107.702C276.435 107.702 276.736 107.762 277.017 107.878C277.298 107.994 277.553 108.165 277.768 108.379C277.983 108.594 278.153 108.849 278.27 109.13C278.386 109.41 278.446 109.711 278.446 110.015Z" fill="#282828"/>
<path d="M300.163 110.015C300.163 110.472 300.027 110.919 299.773 111.299C299.518 111.68 299.157 111.976 298.734 112.151C298.311 112.326 297.846 112.372 297.397 112.283C296.948 112.194 296.535 111.973 296.211 111.65C295.888 111.326 295.667 110.914 295.578 110.466C295.489 110.017 295.534 109.552 295.71 109.13C295.885 108.707 296.182 108.346 296.562 108.092C296.943 107.838 297.39 107.702 297.848 107.702C298.462 107.702 299.051 107.946 299.485 108.379C299.919 108.813 300.163 109.401 300.163 110.015V110.015Z" fill="#282828"/>
<path d="M291.916 98.5058L307.49 102.521C307.49 102.521 306.788 98.1598 300.418 96.5756C294.048 94.9913 291.916 98.5058 291.916 98.5058Z" fill="#282828"/>
<path d="M282.246 98.5058L266.672 102.521C266.672 102.521 267.374 98.1598 273.744 96.5756C280.114 94.9913 282.246 98.5058 282.246 98.5058Z" fill="#282828"/>
<path d="M279.148 124.81C279.148 124.81 281.444 126.567 287.486 126.567C290.553 126.636 293.597 126.036 296.408 124.81" stroke="#282828" stroke-width="1.4" stroke-linecap="round" stroke-linejoin="round"/>
<path d="M275.512 120.522C280.947 120.522 285.354 116.119 285.354 110.688C285.354 105.257 280.947 100.855 275.512 100.855C270.076 100.855 265.669 105.257 265.669 110.688C265.669 116.119 270.076 120.522 275.512 120.522Z" stroke="white" stroke-width="1.95" stroke-miterlimit="10"/>
<path d="M299.689 120.522C305.125 120.522 309.531 116.119 309.531 110.688C309.531 105.257 305.125 100.855 299.689 100.855C294.253 100.855 289.847 105.257 289.847 110.688C289.847 116.119 294.253 120.522 299.689 120.522Z" stroke="white" stroke-width="1.95" stroke-miterlimit="10"/>
<path d="M285.354 110.688C285.354 110.688 287.678 108.521 289.847 110.688" stroke="white" stroke-width="1.95" stroke-miterlimit="10"/>
<path d="M265.669 110.688L262.37 110.606" stroke="white" stroke-width="1.95" stroke-miterlimit="10"/>
<path d="M309.531 110.688L313.213 110.634" stroke="white" stroke-width="1.95" stroke-miterlimit="10"/>
<path d="M270.354 79.8499C270.354 79.8499 275.083 93.2614 296.417 92.8517C310.907 92.5694 314.371 103.049 314.371 103.049C314.371 103.049 311.846 79.6314 311.181 79.8499C310.516 80.0684 289.127 74.1411 289.127 74.1411L270.354 79.8499Z" fill="#282828"/>
</g>
<defs>
<clipPath id="clip0">
<rect width="586" height="432" fill="white"/>
</clipPath>
</defs>
</svg>
