<svg width="878" height="185" viewBox="0 0 878 185" fill="none" xmlns="http://www.w3.org/2000/svg">
<g clip-path="url(#clip0)">
<path d="M782.129 121.395C782.443 120.121 782.142 118.777 781.324 117.752L766.764 99.5887C765.893 98.5001 764.545 97.9093 763.155 98.0216C761.762 98.1262 760.518 98.9077 759.82 100.115L740.816 132.986C739.904 134.564 740.109 136.547 741.322 137.911C741.626 138.25 741.977 138.53 742.357 138.75C743.497 139.409 744.907 139.509 746.16 138.96L779.723 124.253C780.929 123.729 781.812 122.673 782.129 121.395Z" fill="#2196F3"/>
<path d="M875.796 67.3576C875.135 65.9163 873.726 64.9589 872.14 64.893L729.49 58.7677C727.803 58.6958 726.239 59.6368 725.505 61.1547C724.772 62.6804 725.02 64.4873 726.125 65.7564L803.3 154.23C803.611 154.579 803.971 154.878 804.37 155.109C805.033 155.492 805.794 155.692 806.576 155.676C807.828 155.646 809.005 155.06 809.783 154.086L875.258 71.7379C876.246 70.4898 876.454 68.8038 875.796 67.3576Z" fill="#64B5F6"/>
</g>
<path d="M1.99992 154.344C93.5224 113.605 217.383 64.0226 306.248 97.2362C395.112 130.45 443.715 170.221 547.648 173.957C630.794 176.946 692.273 159.143 712.619 149.868" stroke="black" stroke-opacity="0.5" stroke-width="5" stroke-dasharray="35 35"/>
<defs>
<clipPath id="clip0">
<rect width="135" height="135" fill="white" transform="translate(760.847) rotate(30.0333)"/>
</clipPath>
</defs>
</svg>
