<svg width="39" height="39" viewBox="0 0 39 39" fill="none" xmlns="http://www.w3.org/2000/svg">
<path d="M14.012 14.6624C14.0921 14.9612 14.2876 15.216 14.5555 15.3706C14.8234 15.5253 15.1418 15.5673 15.4406 15.4872L20.6881 14.082L14.6209 24.607C14.4662 24.875 14.4243 25.1935 14.5043 25.4923C14.5844 25.7912 14.78 26.046 15.0479 26.2007C15.3159 26.3554 15.6343 26.3974 15.9332 26.3173C16.2321 26.2372 16.4869 26.0417 16.6416 25.7737L22.7094 15.2477L24.1156 20.4957C24.1531 20.6461 24.2201 20.7874 24.3128 20.9115C24.4055 21.0356 24.522 21.1401 24.6555 21.2187C24.789 21.2973 24.9368 21.3485 25.0903 21.3694C25.2438 21.3903 25.3999 21.3804 25.5495 21.3403C25.6992 21.3002 25.8393 21.2307 25.9618 21.1359C26.0843 21.0411 26.1867 20.9228 26.263 20.788C26.3393 20.6531 26.3879 20.5045 26.4061 20.3506C26.4244 20.1968 26.4118 20.0408 26.3691 19.8919L24.8387 14.1775C24.7198 13.7335 24.5146 13.3172 24.2348 12.9525C23.9549 12.5878 23.606 12.2818 23.2079 12.052C22.8098 11.8222 22.3704 11.673 21.9146 11.613C21.4589 11.553 20.9958 11.5834 20.5518 11.7024L14.8368 13.2338C14.538 13.3139 14.2832 13.5094 14.1285 13.7773C13.9739 14.0452 13.9319 14.3636 14.012 14.6624Z" fill="#55FC3A"/>
</svg>
