<svg height="512pt" viewBox="0 -24 512 512" width="512pt" xmlns="http://www.w3.org/2000/svg"><path d="m53.179688 140.015625c2.546874-1.457031 3.839843-4.359375 3.285156-7.238281-.917969-4.746094-1.402344-9.644532-1.402344-14.660156 0-42.484376 34.441406-76.925782 76.925781-76.925782h.179688c2.800781.007813 5.292969-1.636718 6.402343-4.210937 9.28125-21.5 30.523438-36.628907 55.351563-36.9726565 34.140625-.4726565 63.109375 28.2578125 63.109375 62.4023435v338.46875c0 34.144532-28.972656 62.875-63.109375 62.402344-24.828125-.34375-46.070313-15.472656-55.351563-36.976562-1.109374-2.570313-3.601562-4.214844-6.402343-4.207032-.0625 0-.121094 0-.179688 0-42.484375 0-76.925781-34.441406-76.925781-76.925781 0-5.015625.484375-9.917969 1.402344-14.664063.554687-2.875-.738282-5.777343-3.285156-7.234374-31.761719-18.195313-53.179688-52.398438-53.179688-91.628907s21.417969-73.4375 53.179688-91.628906zm0 0" fill="#60b8ff"/><path d="m169.609375 426.304688c-1.109375-2.570313-3.605469-4.214844-6.40625-4.207032-.058594 0-.117187 0-.179687 0-42.484376 0-76.925782-34.441406-76.925782-76.925781 0-5.015625.484375-9.917969 1.402344-14.664063.558594-2.878906-.738281-5.777343-3.28125-7.234374-31.765625-18.195313-53.183594-52.398438-53.183594-91.628907s21.417969-73.4375 53.183594-91.628906c2.542969-1.457031 3.839844-4.359375 3.28125-7.234375-.917969-4.75-1.402344-9.648438-1.402344-14.664062 0-42.484376 34.441406-76.925782 76.925782-76.925782h.179687c2.800781.007813 5.292969-1.636718 6.402344-4.207031 7.375-17.078125 22.292969-30.128906 40.558593-34.949219-5.207031-1.386718-10.652343-2.1054685-16.242187-2.0273435-24.828125.3437495-46.070313 15.4726565-55.351563 36.9765625-1.109374 2.570313-3.601562 4.214844-6.402343 4.207031-.0625 0-.121094 0-.179688 0-42.484375 0-76.925781 34.441406-76.925781 76.925782 0 5.015624.484375 9.917968 1.402344 14.664062.554687 2.875-.738282 5.777344-3.285156 7.234375-31.761719 18.191406-53.179688 52.398437-53.179688 91.628906s21.417969 73.4375 53.179688 91.628907c2.546874 1.457031 3.839843 4.355468 3.285156 7.234374-.917969 4.746094-1.402344 9.648438-1.402344 14.664063 0 42.484375 34.441406 76.925781 76.925781 76.925781h.179688c2.800781-.007812 5.292969 1.636719 6.402343 4.207032 9.28125 21.503906 30.523438 36.632812 55.351563 36.976562 5.589844.078125 11.035156-.644531 16.242187-2.027344-18.265624-4.820312-33.183593-17.871094-40.554687-34.949218zm0 0" fill="#22a7ff"/><g fill="#0094fd"><path d="m132.167969 41.191406c2.359375.007813 4.496093-1.171875 5.773437-3.082031-.101562.707031-.304687 1.414063-.617187 2.097656-.058594.128907-5.828125 12.84375-5.828125 26.707031 0 4.269532-3.457032 7.726563-7.726563 7.726563s-7.726562-3.457031-7.726562-7.726563c0-9.605468 2.164062-18.617187 4.125-24.816406 3.855469-.597656 7.800781-.90625 11.820312-.90625zm0 0"/><path d="m56.464844 132.777344c-.664063-3.433594-1.09375-6.949219-1.285156-10.53125 7.601562-2.769532 17.429687-5.054688 27.859374-4.074219 2.402344-9.53125 8.558594-17.898437 17.261719-22.933594 3.691407-2.136719 8.417969-.875 10.558594 2.816407 2.136719 3.695312.875 8.421874-2.820313 10.558593-14.183593 8.210938-14.207031 28.742188-.003906 36.96875 3.691406 2.136719 4.953125 6.863281 2.816406 10.558594-2.144531 3.699219-6.875 4.949219-10.558593 2.8125-9.414063-5.449219-15.851563-14.796875-17.769531-25.304687-11.550782-1.390626-22.785157 3.027343-28.910157 6.070312 2.246094-1.527344 3.375-4.234375 2.851563-6.941406zm0 0"/><path d="m56.464844 330.507812c.535156-2.765624-.652344-5.539062-3.003906-7.046874 5.410156 2.492187 15.554687 5.96875 29.1875 5.398437 2.070312-10.214844 8.441406-19.261719 17.644531-24.585937 3.691406-2.140626 8.417969-.878907 10.558593 2.8125 2.136719 3.695312.875 8.421874-2.816406 10.558593-14.234375 8.242188-14.144531 28.777344.003906 36.96875 3.695313 2.136719 4.957032 6.863281 2.820313 10.558594-6.519531 11.261719-24.25-4.5625-27.996094-20.859375-1.039062.039062-2.070312.0625-3.082031.0625-9.832031 0-18.140625-1.707031-24.570312-3.75.199218-3.4375.613281-6.816406 1.253906-10.117188zm0 0"/><path d="m123.382812 388.585938c4.265626 0 7.726563 3.460937 7.726563 7.726562 0 14.371094 6.015625 26.800781 6.335937 28.199219-3.363281-3.917969-5.074218-1.382813-17.667968-3.390625-1.960938-6.199219-4.121094-15.207032-4.121094-24.808594 0-4.265625 3.457031-7.726562 7.726562-7.726562zm0 0"/></g><path d="m458.820312 140.015625c-2.546874-1.457031-3.839843-4.359375-3.285156-7.238281.917969-4.746094 1.402344-9.644532 1.402344-14.660156 0-42.484376-34.441406-76.925782-76.925781-76.925782-.058594 0-.117188 0-.179688 0-2.800781.007813-5.292969-1.636718-6.402343-4.210937-9.28125-21.5-30.523438-36.628907-55.351563-36.9726565-34.140625-.4726565-62.078125 28.2578125-62.078125 62.4023435v338.46875c0 34.144532 27.9375 62.875 62.078125 62.402344 24.828125-.34375 46.070313-15.472656 55.351563-36.976562 1.109374-2.570313 3.601562-4.214844 6.402343-4.207032h.179688c42.484375 0 76.925781-34.441406 76.925781-76.925781 0-5.015625-.484375-9.917969-1.402344-14.664063-.554687-2.875.738282-5.777343 3.285156-7.234374 31.765626-18.191407 53.179688-52.398438 53.179688-91.628907s-21.417969-73.4375-53.179688-91.628906zm0 0" fill="#ff646f"/><path d="m287.035156 400.875c0-3.246094 0-335.199219 0-338.464844 0-28.539062 19.527344-53.285156 45.875-60.367187-4.742187-1.257813-9.710937-1.964844-14.832031-2.03906275-34.140625-.46875025-62.078125 28.26171875-62.078125 62.40624975v338.464844c0 34.144531 27.9375 62.875 62.078125 62.40625 5.121094-.070312 10.089844-.78125 14.832031-2.035156-26.347656-7.082032-45.875-31.828125-45.875-60.371094zm0 0" fill="#ff4755"/><path d="m379.832031 41.191406c-2.359375.007813-4.496093-1.171875-5.773437-3.082031.101562.707031.304687 1.414063.617187 2.097656.058594.128907 5.828125 12.84375 5.828125 26.707031 0 4.269532 3.457032 7.726563 7.726563 7.726563s7.726562-3.457031 7.726562-7.726563c0-9.605468-2.164062-18.617187-4.125-24.816406-3.855469-.597656-7.800781-.90625-11.820312-.90625-.058594 0-.117188 0-.179688 0zm0 0" fill="#fc2b3a"/><path d="m455.535156 132.777344c.664063-3.433594 1.09375-6.949219 1.285156-10.53125-7.601562-2.769532-17.429687-5.054688-27.859374-4.074219-2.402344-9.53125-8.558594-17.898437-17.261719-22.933594-3.691407-2.136719-8.417969-.875-10.558594 2.816407-2.136719 3.695312-.875 8.421874 2.820313 10.558593 14.183593 8.210938 14.207031 28.742188.003906 36.96875-3.691406 2.136719-4.953125 6.863281-2.816406 10.558594 2.144531 3.699219 6.875 4.949219 10.558593 2.8125 9.414063-5.449219 15.851563-14.796875 17.769531-25.304687 11.550782-1.390626 22.785157 3.027343 28.910157 6.070312-2.246094-1.527344-3.375-4.234375-2.851563-6.941406zm0 0" fill="#fc2b3a"/><path d="m455.535156 330.507812c-.535156-2.765624.652344-5.539062 3.003906-7.046874-5.410156 2.492187-15.554687 5.96875-29.1875 5.398437-2.070312-10.214844-8.441406-19.261719-17.644531-24.585937-3.691406-2.140626-8.417969-.878907-10.558593 2.8125-2.136719 3.695312-.875 8.421874 2.816406 10.558593 14.234375 8.242188 14.144531 28.777344-.003906 36.96875-3.695313 2.136719-4.957032 6.863281-2.820313 10.558594 6.519531 11.261719 24.25-4.5625 27.996094-20.859375 1.039062.039062 2.070312.0625 3.082031.0625 9.832031 0 18.140625-1.707031 24.570312-3.75-.199218-3.4375-.613281-6.816406-1.253906-10.117188zm0 0" fill="#fc2b3a"/><path d="m388.617188 388.585938c-4.265626 0-7.726563 3.460937-7.726563 7.726562 0 14.371094-6.015625 26.800781-6.335937 28.199219 3.363281-3.917969 5.074218-1.382813 17.667968-3.390625 1.960938-6.199219 4.121094-15.207032 4.121094-24.808594 0-4.265625-3.457031-7.726562-7.726562-7.726562zm0 0" fill="#fc2b3a"/><path d="m253.828125 91.277344c-48.367187 1.144531-87.488281 41.152344-87.605469 89.53125-.078125 32.234375 16.84375 60.5 42.289063 76.394531 4.066406 2.539063 6.574219 6.957031 6.574219 11.75v13.042969c0 7.625 6.179687 13.804687 13.804687 13.804687h54.21875c7.625 0 13.804687-6.179687 13.804687-13.804687v-13.042969c0-4.804687 2.523438-9.21875 6.597657-11.765625 25.375-15.859375 42.265625-44.027344 42.265625-76.15625 0-50.304688-41.375-90.949219-91.949219-89.753906zm0 0" fill="#ffe55a"/><path d="m244.996094 281.996094v-13.046875c0-4.789063-2.507813-9.207031-6.574219-11.746094-25.445313-15.894531-42.367187-44.164063-42.289063-76.394531.109376-44.054688 32.554688-81.152344 74.875-88.300782-5.570312-.9375-11.3125-1.367187-17.179687-1.230468-48.367187 1.140625-87.488281 41.152344-87.605469 89.53125-.078125 32.230468 16.84375 60.5 42.289063 76.394531 4.066406 2.539063 6.574219 6.957031 6.574219 11.746094v13.046875c0 7.621094 6.179687 13.800781 13.804687 13.800781h29.910156c-7.625 0-13.804687-6.179687-13.804687-13.800781zm0 0" fill="#ffd500"/><path d="m256 311.660156c-4.265625 0-7.726562-3.457031-7.726562-7.726562v-60.316406c0-4.269532 3.457031-7.726563 7.726562-7.726563 4.265625 0 7.726562 3.457031 7.726562 7.726563v60.316406c0 4.269531-3.460937 7.726562-7.726562 7.726562zm0 0" fill="#fbc700"/><path d="m285.84375 209.242188h-60.082031c-4.269531 0-7.726563-3.457032-7.726563-7.726563 0-4.265625 3.457032-7.726563 7.726563-7.726563h60.082031c4.269531 0 7.726562 3.460938 7.726562 7.726563 0 4.269531-3.457031 7.726563-7.726562 7.726563zm0 0" fill="#fbc700"/><path d="m256.910156 251.34375h-1.816406c-17.277344 0-31.332031-14.054688-31.332031-31.332031v-18.496094c0-4.265625 3.457031-7.726563 7.726562-7.726563 4.265625 0 7.726563 3.460938 7.726563 7.726563v18.496094c0 8.753906 7.121094 15.878906 15.878906 15.878906h1.816406c8.753906 0 15.878906-7.125 15.878906-15.878906v-18.496094c0-4.265625 3.457032-7.726563 7.726563-7.726563s7.726563 3.460938 7.726563 7.726563v18.496094c0 17.277343-14.058594 31.332031-31.332032 31.332031zm0 0" fill="#fbc700"/><path d="m233.273438 352.851562v15.152344c0 7.828125 6.402343 14.230469 14.230468 14.230469h16.992188c7.828125 0 14.230468-6.402344 14.230468-14.230469v-15.152344zm0 0" fill="#4f66d1"/><path d="m263.183594 368.003906v-15.152344h-29.910156v15.152344c0 7.828125 6.402343 14.230469 14.230468 14.230469h16.992188c2.324218 0 4.515625-.574219 6.457031-1.574219-4.597656-2.363281-7.769531-7.152344-7.769531-12.65625zm0 0" fill="#314dca"/><path d="m279.125 324.324219h-46.25c-7.828125 0-14.230469 6.40625-14.230469 14.230469v2.125c0 7.828124 6.402344 14.234374 14.230469 14.234374h46.25c7.828125 0 14.230469-6.40625 14.230469-14.234374v-2.125c0-7.824219-6.402344-14.230469-14.230469-14.230469zm0 0" fill="#d9edff"/><path d="m279.125 336.097656h-46.25c-4.714844 0-8.898438-2.328125-11.492188-5.886718-1.714843 2.351562-2.738281 5.230468-2.738281 8.34375v2.128906c0 7.824218 6.402344 14.230468 14.230469 14.230468h46.25c7.828125 0 14.230469-6.40625 14.230469-14.230468v-2.128906c0-3.113282-1.023438-5.992188-2.738281-8.34375-2.59375 3.558593-6.777344 5.886718-11.492188 5.886718zm0 0" fill="#b4dbff"/><path d="m279.125 294.769531h-46.25c-7.828125 0-14.230469 6.402344-14.230469 14.230469v2.125c0 7.828125 6.402344 14.230469 14.230469 14.230469h46.25c7.828125 0 14.230469-6.402344 14.230469-14.230469v-2.125c0-7.828125-6.402344-14.230469-14.230469-14.230469zm0 0" fill="#d9edff"/><path d="m279.125 306.542969h-46.25c-4.714844 0-8.898438-2.332031-11.492188-5.886719-1.714843 2.347656-2.738281 5.230469-2.738281 8.34375v2.125c0 7.828125 6.402344 14.230469 14.230469 14.230469h46.25c7.828125 0 14.230469-6.402344 14.230469-14.230469v-2.125c0-3.113281-1.023438-5.996094-2.738281-8.34375-2.59375 3.554688-6.777344 5.886719-11.492188 5.886719zm0 0" fill="#b4dbff"/></svg>