<svg width="100" height="100" viewBox="0 0 100 100" fill="none" xmlns="http://www.w3.org/2000/svg">
<g clip-path="url(#clip0)">
<path d="M84.2107 23.0982V21.2307C84.2107 16.4434 80.3107 12.5264 75.5439 12.5264H49.5787C44.8119 12.5264 40.9119 16.4434 40.9119 21.2307V23.0982H84.2107Z" fill="#477B9E"/>
<path d="M60.9074 12.5264H49.5787C44.8119 12.5264 40.9119 16.4434 40.9119 21.2307V23.0982H52.2406V21.2307C52.2404 16.4434 56.1406 12.5264 60.9074 12.5264V12.5264Z" fill="#3F6D8E"/>
<path d="M26.6502 35.1414V78.7367C26.6502 81.805 24.1396 84.3156 21.0713 84.3156H94.4211C97.4895 84.3156 100 81.805 100 78.7367V35.1414H26.6502Z" fill="#3F6D8E"/>
<path d="M37.4328 78.7369V35.1414H26.6502V78.7367C26.6502 81.805 24.1396 84.3156 21.0713 84.3156H31.8539C34.9223 84.3158 37.4328 81.8052 37.4328 78.7369Z" fill="#365E7D"/>
<path d="M94.4211 23.0527H21.0713C24.1398 23.0527 26.6502 25.5633 26.6502 28.6316V35.5439H100V28.6316C100 25.5633 97.4896 23.0527 94.4211 23.0527Z" fill="#B5DCFF"/>
<path d="M94.4211 23.0527H21.0713C24.1398 23.0527 26.6502 25.5633 26.6502 28.6316V35.5439H100V28.6316C100 25.5633 97.4896 23.0527 94.4211 23.0527Z" fill="#B5DCFF"/>
<path d="M31.8539 23.0527H21.0713C24.1398 23.0527 26.6502 25.5633 26.6502 28.6316V35.5439H37.4328V28.6316C37.4328 25.5633 34.9223 23.0527 31.8539 23.0527Z" fill="#8BCAFF"/>
<path d="M18.4387 15.134H8.61414C7.22468 15.134 6.08777 16.2758 6.08777 17.6713V20.561C6.08777 21.9565 7.22468 23.0983 8.61414 23.0983H18.4387C19.8282 23.0983 20.9651 21.9565 20.9651 20.561V17.6713C20.9649 16.2758 19.8282 15.134 18.4387 15.134Z" fill="#477B9E"/>
<path d="M13.5264 20.561V17.6713C13.5264 16.2758 14.6634 15.134 16.0528 15.134H8.61414C7.22468 15.134 6.08777 16.2758 6.08777 17.6713V20.561C6.08777 21.9565 7.22468 23.0983 8.61414 23.0983H16.0528C14.6632 23.0983 13.5264 21.9565 13.5264 20.561Z" fill="#3F6D8E"/>
<path d="M0 35.1414V78.7367C0 81.805 2.51055 84.3156 5.57891 84.3156H21.4736C24.542 84.3156 27.0525 81.805 27.0525 78.7367V35.1414H0Z" fill="#477B9E"/>
<path d="M10.0967 78.7369V35.1414H0V78.7367C0 81.805 2.51055 84.3156 5.57891 84.3156H15.6756C12.6072 84.3158 10.0967 81.8052 10.0967 78.7369Z" fill="#3F6D8E"/>
<path d="M21.4736 23.0527H5.57891C2.51055 23.0527 0 25.5633 0 28.6316V35.5439H27.0527V28.6316C27.0527 25.5633 24.5422 23.0527 21.4736 23.0527Z" fill="#DBEDFF"/>
<path d="M15.6756 23.0527H5.57891C2.51055 23.0527 0 25.5633 0 28.6316V35.5439H10.0967V28.6316C10.0967 25.5633 12.6072 23.0527 15.6756 23.0527Z" fill="#B5DCFF"/>
<path d="M62.5613 87.474C46.5029 87.474 33.4385 74.4095 33.4385 58.3511C33.4385 42.2927 46.5029 29.2283 62.5613 29.2283C78.6197 29.2283 91.6842 42.2927 91.6842 58.3511C91.6842 74.4095 78.6195 87.474 62.5613 87.474V87.474Z" fill="#365E7D"/>
<path d="M43.2168 58.3511C43.2168 43.9587 53.7119 31.9732 67.4504 29.641C65.8602 29.371 64.2272 29.2283 62.5613 29.2283C46.5029 29.2283 33.4385 42.2927 33.4385 58.3511C33.4385 74.4095 46.5029 87.474 62.5613 87.474C64.2274 87.474 65.8604 87.3314 67.4504 87.0615C53.7119 84.7291 43.2168 72.7435 43.2168 58.3511V58.3511Z" fill="#294B64"/>
<path d="M78.673 74.4759C87.5784 65.5705 87.5784 51.1321 78.673 42.2267C69.7677 33.3214 55.3292 33.3214 46.4239 42.2267C37.5185 51.1321 37.5185 65.5705 46.4239 74.4759C55.3292 83.3812 69.7677 83.3812 78.673 74.4759Z" fill="#7FB3FA"/>
<path d="M49.5326 58.351C49.5326 47.4532 57.2164 38.3176 67.4504 36.0735C65.8748 35.728 64.239 35.5442 62.5613 35.5442C49.9853 35.5442 39.7543 45.7754 39.7543 58.3512C39.7543 70.927 49.9855 81.1582 62.5613 81.1582C64.2392 81.1582 65.8748 80.9745 67.4504 80.629C57.2164 78.3844 49.5326 69.2489 49.5326 58.351Z" fill="#64A6F4"/>
<path d="M72.432 68.235C77.8906 62.7764 77.8906 53.9263 72.432 48.4677C66.9735 43.0091 58.1233 43.0091 52.6648 48.4677C47.2062 53.9263 47.2062 62.7764 52.6648 68.235C58.1233 73.6935 66.9735 73.6935 72.432 68.235Z" fill="#64A6F4"/>
<path d="M58.36 58.351C58.36 52.362 62.1465 47.2422 67.4506 45.2555C65.9278 44.6852 64.2809 44.3713 62.5614 44.3713C54.853 44.3713 48.5817 50.6426 48.5817 58.351C48.5817 66.0594 54.853 72.3307 62.5614 72.3307C64.2807 72.3307 65.9278 72.0168 67.4506 71.4465C62.1465 69.4598 58.36 64.3401 58.36 58.351V58.351Z" fill="#3D8BD8"/>
<path d="M65.5605 61.3634C67.224 59.6999 67.224 57.0028 65.5605 55.3393C63.897 53.6757 61.1999 53.6757 59.5364 55.3393C57.8728 57.0028 57.8728 59.6999 59.5364 61.3634C61.1999 63.0269 63.897 63.0269 65.5605 61.3634Z" fill="#9CC5FA"/>
<path d="M62.5614 58.3509C62.5614 56.7781 63.4204 55.405 64.6917 54.6669C64.0641 54.3027 63.3377 54.0906 62.5614 54.0906C60.2122 54.0906 58.301 56.0017 58.301 58.3509C58.301 60.7001 60.2124 62.6113 62.5614 62.6113C63.3377 62.6113 64.0641 62.3992 64.6917 62.0347C63.4204 61.2968 62.5614 59.9238 62.5614 58.3509V58.3509Z" fill="#7FB3FA"/>
</g>
<defs>
<clipPath id="clip0">
<rect width="100" height="100" fill="white"/>
</clipPath>
</defs>
</svg>
