<svg width="32" height="32" viewBox="0 0 32 32" fill="none" xmlns="http://www.w3.org/2000/svg">
<path d="M15.7793 31.7216C24.4939 31.7216 31.5585 24.657 31.5585 15.9424C31.5585 7.22771 24.4939 0.163086 15.7793 0.163086C7.06462 0.163086 0 7.22771 0 15.9424C0 24.657 7.06462 31.7216 15.7793 31.7216Z" fill="#E64C3C"/>
<path fill-rule="evenodd" clip-rule="evenodd" d="M18.2586 15.9422L22.2788 11.9219C22.9432 11.234 22.9337 10.1405 22.2574 9.4642C21.5811 8.78791 20.4876 8.77841 19.7997 9.44284L15.7795 13.463L11.7593 9.44284C11.0713 8.77841 9.97781 8.78791 9.30152 9.4642C8.62523 10.1405 8.61573 11.234 9.28016 11.9219L13.3004 15.9422L9.28016 19.9624C8.82439 20.4026 8.64161 21.0544 8.80206 21.6674C8.96251 22.2804 9.44122 22.7591 10.0542 22.9196C10.6672 23.08 11.3191 22.8972 11.7593 22.4415L15.7795 18.4213L19.7997 22.4415C20.4876 23.1059 21.5811 23.0964 22.2574 22.4201C22.9337 21.7438 22.9432 20.6503 22.2788 19.9624L18.2586 15.9422Z" fill="#ECF0F1"/>
</svg>
