<svg width="66" height="66" viewBox="0 0 66 66" fill="none" xmlns="http://www.w3.org/2000/svg">
<path d="M0 24.7507L31.779 44.9755C32.142 45.2437 32.571 45.3757 33 45.3757C33.429 45.3757 33.858 45.2437 34.221 44.9755L66 24.7507L34.2375 0.413178C33.5033 -0.135447 32.4967 -0.135447 31.7625 0.413178L0 24.7507Z" fill="#FDCE88"/>
<path d="M53.625 0H12.375C10.1021 0 8.25 1.85213 8.25 4.125V49.5C8.25 50.6385 9.174 51.5625 10.3125 51.5625H55.6875C56.826 51.5625 57.75 50.6385 57.75 49.5V4.125C57.75 1.85213 55.902 0 53.625 0Z" fill="#ECEFF1"/>
<path d="M18.5625 12.375H47.4375C48.576 12.375 49.5 11.451 49.5 10.3125C49.5 9.174 48.576 8.25 47.4375 8.25H18.5625C17.424 8.25 16.5 9.174 16.5 10.3125C16.5 11.451 17.424 12.375 18.5625 12.375Z" fill="#90A4AE"/>
<path d="M47.4375 16.5H18.5625C17.424 16.5 16.5 17.424 16.5 18.5625C16.5 19.701 17.424 20.625 18.5625 20.625H47.4375C48.576 20.625 49.5 19.701 49.5 18.5625C49.5 17.424 48.576 16.5 47.4375 16.5Z" fill="#90A4AE"/>
<path d="M35.0625 24.75H18.5625C17.424 24.75 16.5 25.674 16.5 26.8125C16.5 27.951 17.424 28.875 18.5625 28.875H35.0625C36.201 28.875 37.125 27.951 37.125 26.8125C37.125 25.674 36.201 24.75 35.0625 24.75Z" fill="#90A4AE"/>
<path d="M34.221 44.9749C33.858 45.243 33.429 45.375 33 45.375C32.571 45.375 32.142 45.243 31.779 44.9749L0 24.75V61.875C0 64.152 1.848 66 4.125 66H61.875C64.152 66 66 64.152 66 61.875V24.75L34.221 44.9749Z" fill="#F9B248"/>
<path d="M61.875 66H4.125C1.81088 66 0 64.1891 0 61.875C0 61.2191 0.3135 60.6004 0.8415 60.2126L31.779 39.5876C32.142 39.3195 32.571 39.1875 33 39.1875C33.429 39.1875 33.858 39.3195 34.221 39.5876L65.1585 60.2126C65.6865 60.6004 66 61.2191 66 61.875C66 64.1891 64.1891 66 61.875 66Z" fill="#F19F24"/>
</svg>
