<svg width="28" height="28" viewBox="0 0 28 28" fill="none" xmlns="http://www.w3.org/2000/svg">
<path d="M15.3079 7.34183C15.0892 7.56061 14.9663 7.8573 14.9663 8.16666C14.9663 8.47602 15.0892 8.77271 15.3079 8.99149L19.1485 12.8333L7.00004 12.8415C6.69062 12.8415 6.39388 12.9644 6.17508 13.1832C5.95629 13.402 5.83337 13.6987 5.83337 14.0082C5.83337 14.3176 5.95629 14.6143 6.17508 14.8331C6.39388 15.0519 6.69062 15.1748 7.00004 15.1748L19.1497 15.1667L15.3079 19.0085C15.1964 19.1161 15.1076 19.2449 15.0464 19.3872C14.9853 19.5295 14.9531 19.6826 14.9517 19.8375C14.9504 19.9924 14.9799 20.1461 15.0386 20.2894C15.0972 20.4328 15.1839 20.5631 15.2934 20.6726C15.403 20.7822 15.5332 20.8688 15.6766 20.9275C15.82 20.9861 15.9736 21.0156 16.1285 21.0143C16.2834 21.0129 16.4365 20.9808 16.5788 20.9196C16.7212 20.8585 16.8499 20.7696 16.9575 20.6582L21.1412 16.4757C21.4663 16.1506 21.7241 15.7648 21.9001 15.3401C22.076 14.9154 22.1665 14.4603 22.1665 14.0006C22.1665 13.5409 22.076 13.0857 21.9001 12.661C21.7241 12.2364 21.4663 11.8505 21.1412 11.5255L16.9575 7.34183C16.7388 7.12311 16.4421 7.00024 16.1327 7.00024C15.8233 7.00024 15.5267 7.12311 15.3079 7.34183Z" fill="white"/>
</svg>
