<svg width="44" height="44" viewBox="0 0 44 44" fill="none" xmlns="http://www.w3.org/2000/svg">
<g clip-path="url(#clip0)">
<path d="M5.88135 2.75043V41.2504C5.88135 42.7627 7.11861 44 8.63092 44H35.3683C36.881 44 38.1187 42.7623 38.1187 41.2496V10.1282C38.1187 9.28383 37.7832 8.47406 37.1862 7.87695L30.2417 0.932455C29.6446 0.335435 28.8349 0 27.9905 0H8.63178C7.11904 0 5.88135 1.23769 5.88135 2.75043V2.75043Z" fill="url(#paint0_linear)"/>
<path d="M13.2096 21.227H30.7905C31.2287 21.227 31.5839 20.8718 31.5839 20.4337V18.4989C31.5839 18.0608 31.2287 17.7056 30.7905 17.7056H13.2096C12.7715 17.7056 12.4163 18.0608 12.4163 18.4989V20.4337C12.4163 20.8718 12.7715 21.227 13.2096 21.227V21.227Z" fill="#EBEFF0"/>
<path d="M13.2096 26.7241H30.7905C31.2287 26.7241 31.5839 26.3689 31.5839 25.9307V23.996C31.5839 23.5578 31.2287 23.2026 30.7905 23.2026H13.2096C12.7715 23.2026 12.4163 23.5578 12.4163 23.996V25.9307C12.4163 26.3689 12.7715 26.7241 13.2096 26.7241V26.7241Z" fill="#EBEFF0"/>
<path d="M13.2096 32.2208H30.7905C31.2287 32.2208 31.5839 31.8657 31.5839 31.4275V29.4928C31.5839 29.0547 31.2287 28.6995 30.7905 28.6995H13.2096C12.7715 28.6995 12.4163 29.0547 12.4163 29.4928V31.4275C12.4163 31.8657 12.7715 32.2208 13.2096 32.2208V32.2208Z" fill="#EBEFF0"/>
<path d="M12.9907 37.7179H21.8903C22.2076 37.7179 22.4647 37.4607 22.4647 37.1435V34.771C22.4647 34.4537 22.2076 34.1965 21.8903 34.1965H12.9907C12.6734 34.1965 12.4163 34.4537 12.4163 34.771V37.1435C12.4163 37.4607 12.6734 37.7179 12.9907 37.7179V37.7179Z" fill="#EBEFF0"/>
<path d="M30.2417 0.932448C29.8327 0.523507 29.3239 0.237421 28.7726 0.0976562V9.06348L38.1187 18.4096V10.1281C38.1187 9.28374 37.7833 8.47396 37.1862 7.87686L30.2417 0.932448Z" fill="url(#paint1_linear)"/>
<path d="M38.0244 9.35579C38.0346 9.39996 38.044 9.44301 38.0525 9.48451H29.628C29.0315 9.48451 28.5479 9.00094 28.5479 8.40436V0.0500488C28.6137 0.0617822 28.6829 0.0754998 28.7542 0.0912881C29.3822 0.23019 29.9548 0.553115 30.4097 1.00787L37.1093 7.70752C37.5623 8.16054 37.8804 8.73159 38.0244 9.35579V9.35579Z" fill="url(#paint2_linear)"/>
<path d="M38.1187 38.582V41.2496C38.1187 42.7623 36.881 44 35.3683 44H8.63092C7.11861 44 5.88135 42.7626 5.88135 41.2504V38.582H38.1187Z" fill="url(#paint3_linear)"/>
</g>
<defs>
<linearGradient id="paint0_linear" x1="13.5583" y1="17.1554" x2="34.4881" y2="38.0851" gradientUnits="userSpaceOnUse">
<stop stop-color="#FDCE88"/>
<stop offset="1" stop-color="#F9B248"/>
</linearGradient>
<linearGradient id="paint1_linear" x1="35.3817" y1="14.9883" x2="32.0602" y2="5.28241" gradientUnits="userSpaceOnUse">
<stop stop-color="#F9B248" stop-opacity="0.2"/>
<stop offset="1" stop-color="#F9B248"/>
</linearGradient>
<linearGradient id="paint2_linear" x1="29.6157" y1="5.06665" x2="33.474" y2="8.92502" gradientUnits="userSpaceOnUse">
<stop stop-color="#F9B248"/>
<stop offset="1" stop-color="#FDCE88"/>
</linearGradient>
<linearGradient id="paint3_linear" x1="22" y1="40.0055" x2="22" y2="44.2837" gradientUnits="userSpaceOnUse">
<stop stop-color="#F9B248" stop-opacity="0.2"/>
<stop offset="1" stop-color="#F9B248"/>
</linearGradient>
<clipPath id="clip0">
<rect width="44" height="44" fill="white"/>
</clipPath>
</defs>
</svg>
