<svg width="27" height="27" viewBox="0 0 27 27" fill="none" xmlns="http://www.w3.org/2000/svg">
<path d="M13.5 0C8.5375 0 4.5 4.0375 4.5 9.00002C4.5 10.4898 4.87246 11.9669 5.58053 13.277L13.0078 26.71C13.1067 26.889 13.2951 27 13.5 27C13.7049 27 13.8933 26.889 13.9922 26.71L21.4222 13.2726C22.1276 11.9669 22.5 10.4897 22.5 8.99996C22.5 4.0375 18.4625 0 13.5 0ZM13.5 13.5C11.0188 13.5 9.00004 11.4813 9.00004 9.00002C9.00004 6.51876 11.0188 4.50004 13.5 4.50004C15.9813 4.50004 18 6.51876 18 9.00002C18 11.4813 15.9813 13.5 13.5 13.5Z" fill="#FC3A52"/>
</svg>
