<svg width="32" height="32" viewBox="0 0 32 32" fill="none" xmlns="http://www.w3.org/2000/svg">
<path d="M15.8595 31.719C24.6185 31.719 31.719 24.6185 31.719 15.8595C31.719 7.10054 24.6185 0 15.8595 0C7.10054 0 0 7.10054 0 15.8595C0 24.6185 7.10054 31.719 15.8595 31.719Z" fill="#4FBA6F"/>
<path fill-rule="evenodd" clip-rule="evenodd" d="M12.3352 22.9087C11.8678 22.9086 11.4197 22.7229 11.0893 22.3924L7.56497 18.868C6.89716 18.1766 6.90671 17.0775 7.58644 16.3978C8.26617 15.7181 9.36524 15.7085 10.0567 16.3763L12.3352 18.6548L21.6623 9.32767C22.3537 8.65986 23.4528 8.66941 24.1325 9.34914C24.8123 10.0289 24.8218 11.1279 24.154 11.8194L13.581 22.3924C13.2506 22.7229 12.8025 22.9086 12.3352 22.9087Z" fill="#ECF0F1"/>
</svg>
