<svg width="50" height="50" viewBox="0 0 50 50" fill="none" xmlns="http://www.w3.org/2000/svg">
<g clip-path="url(#clip0)">
<path d="M36.4583 3.99365C34.1123 4.03014 31.8176 4.68501 29.8057 5.89213C27.7938 7.09925 26.1361 8.81588 25 10.8687C23.8638 8.81588 22.2061 7.09925 20.1942 5.89213C18.1823 4.68501 15.8876 4.03014 13.5416 3.99365C9.80191 4.15613 6.27851 5.7921 3.74117 8.54414C1.20383 11.2962 -0.141193 14.9406 -4.62048e-05 18.6812C-4.62048e-05 28.1541 9.97079 38.4999 18.3333 45.5145C20.2004 47.0835 22.5611 47.9437 25 47.9437C27.4388 47.9437 29.7995 47.0835 31.6666 45.5145C40.0291 38.4999 50 28.1541 50 18.6812C50.1411 14.9406 48.7961 11.2962 46.2587 8.54414C43.7214 5.7921 40.198 4.15613 36.4583 3.99365Z" fill="#FC3A52"/>
</g>
<defs>
<clipPath id="clip0">
<rect width="50" height="50" fill="white"/>
</clipPath>
</defs>
</svg>
