<svg width="52" height="52" viewBox="0 0 52 52" fill="none" xmlns="http://www.w3.org/2000/svg">
<g clip-path="url(#clip0)">
<path d="M51.9492 15.2881C51.8274 12.5252 51.3806 10.6257 50.7405 8.97972C50.0802 7.23258 49.0644 5.66837 47.7335 4.36804C46.4332 3.04747 44.8587 2.02133 43.1318 1.37136C41.4763 0.731314 39.5867 0.28451 36.8237 0.16269C34.0401 0.030554 33.1565 0 26.0965 0C19.0365 0 18.1528 0.030554 15.3796 0.152374C12.6166 0.274193 10.7171 0.721393 9.07154 1.36104C7.32401 2.02133 5.7598 3.03715 4.45947 4.36804C3.1389 5.66837 2.11316 7.2429 1.46279 8.9698C0.822744 10.6257 0.37594 12.5149 0.254121 15.2778C0.121985 18.0614 0.0914307 18.9451 0.0914307 26.0051C0.0914307 33.0651 0.121985 33.9487 0.243804 36.722C0.365623 39.485 0.812824 41.3845 1.45287 43.0304C2.11316 44.7776 3.1389 46.3418 4.45947 47.6421C5.7598 48.9627 7.33433 49.9888 9.06123 50.6388C10.7171 51.2789 12.6063 51.7257 15.3696 51.8475C18.1425 51.9697 19.0266 51.9998 26.0866 51.9998C33.1465 51.9998 34.0302 51.9697 36.8035 51.8475C39.5665 51.7257 41.466 51.2789 43.1115 50.6388C46.6062 49.2877 49.3692 46.5247 50.7203 43.0304C51.3599 41.3746 51.8071 39.485 51.9289 36.722C52.0508 33.9487 52.0813 33.0651 52.0813 26.0051C52.0813 18.9451 52.071 18.0614 51.9492 15.2881ZM47.2665 36.5189C47.1546 39.0584 46.728 40.4298 46.3725 41.344C45.4987 43.6094 43.7008 45.4073 41.4354 46.2811C40.5212 46.6366 39.1399 47.0632 36.6103 47.1747C33.8675 47.2969 33.045 47.3271 26.1068 47.3271C19.1687 47.3271 18.3358 47.2969 15.603 47.1747C13.0634 47.0632 11.692 46.6366 10.7778 46.2811C9.65048 45.8644 8.62434 45.2041 7.79145 44.3407C6.928 43.4975 6.26771 42.4817 5.85107 41.3543C5.49553 40.4401 5.06896 39.0584 4.95746 36.5292C4.83524 33.7864 4.80509 32.9635 4.80509 26.0253C4.80509 19.0872 4.83524 18.2543 4.95746 15.5219C5.06896 12.9823 5.49553 11.6109 5.85107 10.6967C6.26771 9.56898 6.928 8.54323 7.80176 7.70994C8.64458 6.84649 9.6604 6.18621 10.7881 5.76996C11.7024 5.41442 13.084 4.98785 15.6133 4.87595C18.356 4.75413 19.179 4.72358 26.1167 4.72358C33.0652 4.72358 33.8878 4.75413 36.6206 4.87595C39.1601 4.98785 40.5315 5.41442 41.4457 5.76996C42.5731 6.18621 43.5992 6.84649 44.4321 7.70994C45.2955 8.55315 45.9558 9.56898 46.3725 10.6967C46.728 11.6109 47.1546 12.9922 47.2665 15.5219C47.3883 18.2646 47.4189 19.0872 47.4189 26.0253C47.4189 32.9635 47.3883 33.7761 47.2665 36.5189Z" fill="white"/>
<path d="M26.0965 12.647C18.7218 12.647 12.7384 18.63 12.7384 26.0051C12.7384 33.3801 18.7218 39.3631 26.0965 39.3631C33.4715 39.3631 39.4546 33.3801 39.4546 26.0051C39.4546 18.63 33.4715 12.647 26.0965 12.647ZM26.0965 34.6701C21.3122 34.6701 17.4314 30.7897 17.4314 26.0051C17.4314 21.2204 21.3122 17.34 26.0965 17.34C30.8812 17.34 34.7615 21.2204 34.7615 26.0051C34.7615 30.7897 30.8812 34.6701 26.0965 34.6701Z" fill="white"/>
<path d="M43.1015 12.119C43.1015 13.8411 41.7052 15.2375 39.9826 15.2375C38.2605 15.2375 36.8641 13.8411 36.8641 12.119C36.8641 10.3965 38.2605 9.00049 39.9826 9.00049C41.7052 9.00049 43.1015 10.3965 43.1015 12.119Z" fill="white"/>
</g>
<defs>
<clipPath id="clip0">
<rect width="52" height="52" fill="white"/>
</clipPath>
</defs>
</svg>
