<svg width="35" height="35" viewBox="0 0 35 35" fill="none" xmlns="http://www.w3.org/2000/svg">
<g clip-path="url(#clip0)">
<rect width="35" height="35" fill="white"/>
<path d="M34.9662 10.2901C34.8842 8.43041 34.5835 7.15189 34.1527 6.04404C33.7083 4.86809 33.0245 3.81525 32.1287 2.94003C31.2535 2.05118 30.1937 1.36051 29.0314 0.923032C27.9171 0.49223 26.6453 0.191497 24.7856 0.109503C22.912 0.0205652 22.3173 0 17.5654 0C12.8135 0 12.2187 0.0205652 10.352 0.102559C8.49236 0.184553 7.21384 0.485553 6.10626 0.916088C4.93003 1.36051 3.8772 2.04424 3.00198 2.94003C2.11313 3.81525 1.42273 4.87503 0.984982 6.03737C0.554181 7.15189 0.253448 8.42347 0.171454 10.2832C0.0825159 12.1567 0.0619507 12.7515 0.0619507 17.5034C0.0619507 22.2553 0.0825159 22.8501 0.16451 24.7167C0.246504 26.5764 0.547504 27.8549 0.978305 28.9628C1.42273 30.1388 2.11313 31.1916 3.00198 32.0668C3.8772 32.9557 4.93698 33.6463 6.09931 34.0838C7.21384 34.5146 8.48541 34.8153 10.3454 34.8973C12.2117 34.9796 12.8068 34.9999 17.5587 34.9999C22.3106 34.9999 22.9054 34.9796 24.772 34.8973C26.6317 34.8153 27.9102 34.5146 29.0178 34.0838C31.37 33.1744 33.2296 31.3147 34.1391 28.9628C34.5696 27.8483 34.8706 26.5764 34.9526 24.7167C35.0346 22.8501 35.0551 22.2553 35.0551 17.5034C35.0551 12.7515 35.0482 12.1567 34.9662 10.2901ZM31.8144 24.58C31.7391 26.2893 31.452 27.2123 31.2127 27.8277C30.6245 29.3525 29.4144 30.5626 27.8896 31.1507C27.2743 31.39 26.3446 31.6771 24.6419 31.7522C22.7959 31.8345 22.2422 31.8547 17.5723 31.8547C12.9024 31.8547 12.3418 31.8345 10.5024 31.7522C8.79309 31.6771 7.87006 31.39 7.2547 31.1507C6.49593 30.8703 5.80526 30.4259 5.24465 29.8447C4.66349 29.2772 4.21906 28.5934 3.93863 27.8346C3.69932 27.2193 3.41221 26.2893 3.33716 24.5869C3.2549 22.7409 3.2346 22.187 3.2346 17.517C3.2346 12.8471 3.2549 12.2865 3.33716 10.4474C3.41221 8.73809 3.69932 7.81506 3.93863 7.1997C4.21906 6.44066 4.66349 5.75025 5.2516 5.18938C5.81888 4.60822 6.5026 4.16379 7.26165 3.88362C7.877 3.64432 8.80698 3.35721 10.5093 3.28189C12.3554 3.1999 12.9093 3.17933 17.579 3.17933C22.2558 3.17933 22.8095 3.1999 24.6489 3.28189C26.3582 3.35721 27.2812 3.64432 27.8966 3.88362C28.6554 4.16379 29.346 4.60822 29.9066 5.18938C30.4878 5.75693 30.9322 6.44066 31.2127 7.1997C31.452 7.81506 31.7391 8.74477 31.8144 10.4474C31.8964 12.2935 31.9169 12.8471 31.9169 17.517C31.9169 22.187 31.8964 22.7339 31.8144 24.58Z" fill="black"/>
<path d="M17.5648 8.51074C12.6011 8.51074 8.57376 12.5378 8.57376 17.5018C8.57376 22.4657 12.6011 26.4928 17.5648 26.4928C22.5287 26.4928 26.5558 22.4657 26.5558 17.5018C26.5558 12.5378 22.5287 8.51074 17.5648 8.51074ZM17.5648 23.334C14.3446 23.334 11.7325 20.7222 11.7325 17.5018C11.7325 14.2813 14.3446 11.6695 17.5648 11.6695C20.7852 11.6695 23.397 14.2813 23.397 17.5018C23.397 20.7222 20.7852 23.334 17.5648 23.334Z" fill="black"/>
<path d="M29.0106 8.15734C29.0106 9.31648 28.0707 10.2563 26.9113 10.2563C25.7522 10.2563 24.8123 9.31648 24.8123 8.15734C24.8123 6.99794 25.7522 6.05835 26.9113 6.05835C28.0707 6.05835 29.0106 6.99794 29.0106 8.15734Z" fill="black"/>
</g>
<defs>
<clipPath id="clip0">
<rect width="35" height="35" fill="white"/>
</clipPath>
</defs>
</svg>
