<svg width="62" height="23" viewBox="0 0 62 23" fill="none" xmlns="http://www.w3.org/2000/svg">
<path d="M39.2824 6.65344L40.6043 4.53149L39.0844 3.58467L37.6988 4.71898L39.2824 6.65344ZM26.9704 16.7325L25.734 18.9054L27.2258 19.7543L28.554 18.667L26.9704 16.7325ZM5.76207 1.78783C4.56205 1.10497 3.03566 1.52422 2.3528 2.72425C1.66995 3.92428 2.0892 5.45066 3.28922 6.13352L5.76207 1.78783ZM60.8305 17.1315L40.6043 4.53149L37.9606 8.77538L58.1868 21.3754L60.8305 17.1315ZM37.6988 4.71898L25.3868 14.7981L28.554 18.667L40.866 8.5879L37.6988 4.71898ZM28.2068 14.5597L5.76207 1.78783L3.28922 6.13352L25.734 18.9054L28.2068 14.5597Z" fill="#E8D5B7"/>
</svg>
