<svg width="62" height="43" viewBox="0 0 62 43" fill="none" xmlns="http://www.w3.org/2000/svg">
<path d="M26.3576 29.6027L26.3227 32.1024L28.1132 32.1275L28.7132 30.4403L26.3576 29.6027ZM31.6886 14.6109L31.6241 12.1117L29.9082 12.156L29.3331 13.7733L31.6886 14.6109ZM57.5687 16.4437C58.9489 16.4081 60.039 15.2603 60.0034 13.88C59.9677 12.4998 58.8199 11.4098 57.4397 11.4454L57.5687 16.4437ZM2.4952 31.7693L26.3227 32.1024L26.3926 27.1029L2.5651 26.7698L2.4952 31.7693ZM28.7132 30.4403L34.0441 15.4485L29.3331 13.7733L24.0021 28.7651L28.7132 30.4403ZM31.7531 17.11L57.5687 16.4437L57.4397 11.4454L31.6241 12.1117L31.7531 17.11Z" fill="#E8D5B7"/>
</svg>
