<svg width="63" height="39" viewBox="0 0 63 39" fill="none" xmlns="http://www.w3.org/2000/svg">
<path d="M22.5937 22.1298L20.6917 23.7522L21.8538 25.1146L23.5177 24.4528L22.5937 22.1298ZM37.3785 16.2489L39.2144 14.5521L38.0494 13.2915L36.4545 13.9259L37.3785 16.2489ZM53.0701 36.9107C54.0073 37.9246 55.589 37.9869 56.6029 37.0498C57.6169 36.1127 57.6792 34.531 56.7421 33.517L53.0701 36.9107ZM5.22653 5.62246L20.6917 23.7522L24.4957 20.5073L9.03055 2.37754L5.22653 5.62246ZM23.5177 24.4528L38.3025 18.5719L36.4545 13.9259L21.6697 19.8068L23.5177 24.4528ZM35.5425 17.9457L53.0701 36.9107L56.7421 33.517L39.2144 14.5521L35.5425 17.9457Z" fill="#E8D5B7"/>
</svg>
