<svg width="52" height="52" viewBox="0 0 52 52" fill="none" xmlns="http://www.w3.org/2000/svg">
<g clip-path="url(#clip0)">
<path d="M51.9872 51.9998V51.9977H52.0002V32.9267C52.0002 23.597 49.9917 16.4102 39.0847 16.4102C33.8414 16.4102 30.3227 19.2875 28.8862 22.0153H28.7346V17.2812H18.3931V51.9977H29.1614V34.8073C29.1614 30.2812 30.0194 25.9045 35.6246 25.9045C41.1474 25.9045 41.2297 31.0698 41.2297 35.0977V51.9998H51.9872Z" fill="white"/>
<path d="M0.85791 17.2837H11.6392V52.0002H0.85791V17.2837Z" fill="white"/>
<path d="M6.24433 0C2.79717 0 0 2.79717 0 6.24433C0 9.6915 2.79717 12.5472 6.24433 12.5472C9.6915 12.5472 12.4887 9.6915 12.4887 6.24433C12.4865 2.79717 9.68933 0 6.24433 0V0Z" fill="white"/>
</g>
<defs>
<clipPath id="clip0">
<rect width="52" height="52" fill="white"/>
</clipPath>
</defs>
</svg>
