<svg width="35" height="35" viewBox="0 0 35 35" fill="none" xmlns="http://www.w3.org/2000/svg">
<g clip-path="url(#clip0)">
<rect width="35" height="35" fill="white"/>
<path d="M34.9913 35V34.9985H35.0001V22.1623C35.0001 15.8827 33.6482 11.0454 26.307 11.0454C22.7778 11.0454 20.4095 12.9821 19.4426 14.8181H19.3405V11.6317H12.3799V34.9985H19.6278V23.4281C19.6278 20.3817 20.2053 17.4358 23.978 17.4358C27.6953 17.4358 27.7507 20.9125 27.7507 23.6235V35H34.9913Z" fill="black"/>
<path d="M0.577454 11.6331H7.83412V34.9999H0.577454V11.6331Z" fill="black"/>
<path d="M4.20292 0C1.88271 0 0 1.88271 0 4.20292C0 6.52313 1.88271 8.44521 4.20292 8.44521C6.52313 8.44521 8.40583 6.52313 8.40583 4.20292C8.40438 1.88271 6.52167 0 4.20292 0V0Z" fill="black"/>
</g>
<defs>
<clipPath id="clip0">
<rect width="35" height="35" fill="white"/>
</clipPath>
</defs>
</svg>
