<svg width="57" height="57" viewBox="0 0 57 57" fill="none" xmlns="http://www.w3.org/2000/svg">
<g clip-path="url(#clip0)">
<path d="M38.0179 38.0175L43.4263 29.8221L38.0179 28.4286C37.3094 26.3031 36.1047 24.2954 34.4043 22.595C32.7273 20.9181 30.7436 19.6899 28.5707 18.9814L28.4998 19.0523L21.9105 18.7925L18.9818 18.9814C16.809 19.6899 14.8251 20.9181 13.1482 22.595L4.39265 31.3505C-1.46454 37.2077 -1.46454 46.7272 4.39265 52.5844C10.4152 58.6069 19.9333 58.2999 25.6488 52.5844L34.4043 43.8511C36.1049 42.1505 37.3095 40.1431 38.0179 38.0175ZM19.7444 46.6797C17.0991 49.325 12.8716 49.2542 10.2972 46.6797C7.69921 44.0818 7.69921 39.8305 10.2972 37.2325L18.9818 28.5702L23.729 33.2701L28.4999 37.9465L19.7444 46.6797Z" fill="#4A696F"/>
<path d="M34.4044 43.8513L25.6489 52.5846C19.9333 58.3001 10.4153 58.6071 4.39282 52.5846L10.2972 46.6801C12.8717 49.2545 17.0991 49.3253 19.7444 46.6801L28.4999 37.9469L23.7292 33.2705L34.4044 22.5952C36.1049 24.2956 37.3095 26.3032 38.018 28.4288L43.4265 29.8223L38.018 38.0177C37.3095 40.1434 36.105 42.1508 34.4044 43.8513Z" fill="#384949"/>
<path d="M46.2134 48.575L43.8516 46.2131C43.1989 45.5604 43.1989 44.504 43.8516 43.8513C44.5043 43.1987 45.5607 43.1986 46.2134 43.8513L48.5753 46.2131C49.228 46.8659 49.228 47.9222 48.5753 48.575C47.9224 49.2277 46.8661 49.2277 46.2134 48.575Z" fill="#D2C5C2"/>
<path d="M10.7865 13.1481L8.4246 10.7863C7.77188 10.1336 7.77188 9.07716 8.4246 8.42455C9.07731 7.77195 10.1337 7.77184 10.7863 8.42455L13.148 10.7863C13.8007 11.439 13.8007 12.4954 13.148 13.148C12.4953 13.8006 11.4391 13.8007 10.7865 13.1481Z" fill="#DFD7D5"/>
<path d="M49.4701 34.1182C49.7088 33.2267 50.6245 32.6985 51.5159 32.9372L54.7426 33.8021C55.6341 34.0363 56.1599 34.9565 55.9236 35.8479C55.6849 36.7394 54.7692 37.2676 53.8778 37.0289L50.6511 36.164C49.7655 35.9269 49.2312 35.0149 49.4701 34.1182Z" fill="#D2C5C2"/>
<path d="M1.07636 21.1514C1.31504 20.2599 2.23072 19.7317 3.12212 19.9704L6.34886 20.8354C7.23692 21.0683 7.76729 21.9887 7.52983 22.8812C7.29114 23.7727 6.37546 24.3009 5.48406 24.0622L2.25732 23.1972C1.37171 22.9601 0.837334 22.0481 1.07636 21.1514Z" fill="#DFD7D5"/>
<path d="M33.8025 54.7422L32.9375 51.5154C32.6988 50.6239 33.2269 49.7084 34.1184 49.4697C35.01 49.231 35.9244 49.7557 36.1642 50.6507L37.0291 53.8774C37.2678 54.7689 36.7397 55.6845 35.8481 55.9232C34.9516 56.1621 34.0395 55.6278 33.8025 54.7422Z" fill="#D2C5C2"/>
<path d="M20.8357 6.34832L19.9707 3.12158C19.732 2.23007 20.2601 1.3145 21.1516 1.07582C22.0432 0.839467 22.9598 1.36182 23.1974 2.25679L24.0624 5.48352C24.3011 6.37504 23.773 7.2906 22.8815 7.52929C21.9848 7.76798 21.0728 7.23371 20.8357 6.34832Z" fill="#DFD7D5"/>
<path d="M52.607 4.41449C46.7498 -1.44271 37.2317 -1.46642 31.3509 4.41449L22.5954 13.1477C20.8949 14.8482 19.6904 16.8556 18.9818 18.9813C17.9425 22.099 17.9426 25.4526 18.9819 28.5702C19.6904 30.6957 20.8949 32.7035 22.5954 34.4039C24.2487 36.0573 26.2326 37.2852 28.4291 38.0174L28.4999 37.9466C31.0979 35.3486 31.0978 31.0974 28.4999 28.4994C25.9019 25.9015 25.9019 21.6502 28.4999 19.0522L37.2554 10.319C38.5309 9.04351 40.1841 8.38233 41.9792 8.38233C42.0262 8.33524 42.4277 8.35873 42.5223 8.40594C43.7977 8.40583 45.4744 9.09072 46.7026 10.319C49.3005 12.917 49.3007 17.1681 46.7026 19.7662L38.0181 28.4284C39.0574 31.546 39.0574 34.8998 38.0181 38.0174C40.1672 37.2853 42.1985 36.0572 43.8517 34.4038L52.6072 25.6706C58.4644 19.8133 58.4642 10.2717 52.607 4.41449Z" fill="#FFD400"/>
<path d="M28.5 37.9472L28.4292 38.018C26.2328 37.2859 24.2487 36.0578 22.5955 34.4045L28.5 28.5C31.0979 31.0981 31.098 35.3492 28.5 37.9472Z" fill="#FF9F00"/>
<path d="M52.6069 25.6711L43.8514 34.4044C42.1982 36.0577 40.167 37.2859 38.0178 38.018C39.0571 34.9004 39.0571 31.5466 38.0178 28.429L46.7023 19.7667C49.3004 17.1687 49.3003 12.9175 46.7023 10.3195L52.6068 4.41504C58.4641 10.2721 58.4644 19.8137 52.6069 25.6711Z" fill="#FF9F00"/>
</g>
<defs>
<clipPath id="clip0">
<rect width="57" height="57" fill="white"/>
</clipPath>
</defs>
</svg>
