<svg id="Layer_1" height="512" viewBox="0 0 512 512" width="512" xmlns="http://www.w3.org/2000/svg" data-name="Layer 1"><path d="m248.819 73.896h12v32.279h-12z" fill="#ccd3df"/><path d="m250 407.343h12v32.28h-12z" fill="#ccd3df"/><path d="m406.084 250.259h32.279v12h-32.279z" fill="#ccd3df"/><path d="m73.637 251.44h32.279v12h-32.279z" fill="#ccd3df"/><path d="m347.961 111.898h90.613v11.999h-90.613z" fill="#ccd3df" transform="matrix(.707 -.707 .707 .707 31.808 312.593)"/><path d="m63.101 392.595h102.279v11.999h-102.279z" fill="#ccd3df" transform="matrix(.707 -.707 .707 .707 -248.377 197.505)"/><path d="m392.228 347.62h11.999v102.279h-11.999z" fill="#ccd3df" transform="matrix(.707 -.707 .707 .707 -165.327 398.381)"/><path d="m107.406 63.468h11.999v102.28h-11.999z" fill="#ccd3df" transform="matrix(.707 -.707 .707 .707 -47.824 113.759)"/><g fill="#66dedf"><circle cx="446.7" cy="65.3" r="30.816"/><path d="m476.74 432.16a30.816 30.816 0 1 1 -43.58 0 30.823 30.823 0 0 1 43.58 0z"/><path d="m467.19 225.19a30.81 30.81 0 1 1 -30.82 30.81 30.811 30.811 0 0 1 30.82-30.81z"/><path d="m256 14a30.815 30.815 0 1 1 -30.81 30.81 30.811 30.811 0 0 1 30.81-30.81z"/><path d="m79.25 433.59a30.392 30.392 0 1 1 -.41-.43c.14.14.28.28.41.43z"/><path d="m78.84 35.26a30.816 30.816 0 1 1 -43.58 0 30.823 30.823 0 0 1 43.58 0z"/><path d="m43.81 225.19a30.81 30.81 0 1 1 -30.81 30.81 30.813 30.813 0 0 1 30.81-30.81z"/><path d="m256 436.37a30.815 30.815 0 1 1 -30.81 30.82 30.813 30.813 0 0 1 30.81-30.82z"/><path d="m256 105.72a150.547 150.547 0 0 0 -17.36 300.09 153.139 153.139 0 0 0 17.36.99 151.441 151.441 0 0 0 16.45-.89 150.546 150.546 0 0 0 -16.45-300.19z"/></g><path d="m268.64 405.81a150.552 150.552 0 0 1 2.36-299.348q-7.4-.732-15-.742a150.547 150.547 0 0 0 -17.36 300.09 153.139 153.139 0 0 0 17.36.99c5.068 0 10.075-.262 15.013-.753-.791-.078-1.585-.147-2.373-.237z" fill="#50a5a2"/><path d="m335.383 384.127-.383-.347v-54.35a31.1 31.1 0 0 0 -1.92-11.36c-.14-.35-.2-.69-.35-1.03a30.725 30.725 0 0 0 -18.21-16.46l-4.62-1.645c-7.11-2.46-14.37-3.935-21.74-5.935h-64.33c-7.38 2-14.64 3.475-21.75 5.935l-4.64 1.622a30.819 30.819 0 0 0 -18.25 16.472c-.15.34-.13.685-.27 1.035a31.128 31.128 0 0 0 -1.92 11.366v54.35l-.18.32a147.74 147.74 0 0 0 62.18 21.71v.19l33.53-.11-.035.075a148.706 148.706 0 0 0 62.888-21.838z" fill="#4e6cca"/><path d="m272.44 405.78.01.13a151.441 151.441 0 0 1 -16.45.89 153.139 153.139 0 0 1 -17.36-.99v-.03l8.89-68.835h17.99z" fill="#e87187"/><path d="m257 315.18-13.17 6.548 3.69 15.272h.01 17.99.01l4.42-14.473z" fill="#ad5e73"/><path d="m275.78 291.12-39.326-.12c-4.238 1-8.446 1.214-12.624 2.044l.08.452 4.61 35.132 15.31-6.935 12.134-5.545.036.031 13.95 6.32 13.53 6.14 4.61-35.12.08-.43q-6.15-1.214-12.39-1.969z" fill="#7296ed"/><path d="m236 271.79.26 19.3a16.916 16.916 0 0 0 5.26 11.31l14.42 13.78 14.42-13.78a17 17 0 0 0 5.39-11.29l.25-19.34z" fill="#efc597"/><path d="m275.57 273.77a42.227 42.227 0 0 1 -61.81-37.27v-.06a10.734 10.734 0 0 1 -8.89-10.54 11.068 11.068 0 0 1 .31-2.56 8.1 8.1 0 0 1 7.25-6.13l.04-.01a3.476 3.476 0 0 0 1.8 2.28s10.7 2.5 10.75 1.89l1.49-18.51a1.735 1.735 0 0 1 1.87-1.58h.04l3.37.36a39.994 39.994 0 0 0 36.8-16.47 49.778 49.778 0 0 1 20.52 29.47l2.05 8.41 7.1-3.3a4.319 4.319 0 0 0 1.33-2.54h.01a8.084 8.084 0 0 1 7.22 6.13 10.55 10.55 0 0 1 .31 2.56 10.711 10.711 0 0 1 -8.87 10.53v.07a42.047 42.047 0 0 1 -22.69 37.27z" fill="#ffd8b7"/><path d="m256.01 155.22a44.576 44.576 0 0 1 44.6 47.54l-.98 14.13c-.01.11-.02.21-.04.32a4.319 4.319 0 0 1 -1.33 2.54l-7.1 3.3-2.05-8.41a49.778 49.778 0 0 0 -20.52-29.47 39.994 39.994 0 0 1 -36.8 16.47l-3.37-.36h-.04a1.735 1.735 0 0 0 -1.87 1.58l-1.49 18.51c-.05.61-10.75-1.89-10.75-1.89a3.476 3.476 0 0 1 -1.8-2.28 2.611 2.611 0 0 1 -.09-.57l-.96-13.87c-.07-1.04-.11-2.08-.11-3.11a44.6 44.6 0 0 1 44.7-44.43z" fill="#7f3d32"/><path d="m188.43 161.4a6 6 0 0 1 -3.346-10.986c1.806-1.209 3.673-2.391 5.549-3.513a6 6 0 1 1 6.156 10.3c-1.7 1.016-3.391 2.087-5.025 3.183a5.984 5.984 0 0 1 -3.334 1.016z" fill="#f4f8fc"/><path d="m135.979 278.92a6 6 0 0 1 -5.932-5.159 127.9 127.9 0 0 1 35.374-107.068 6 6 0 0 1 8.549 8.421 115.84 115.84 0 0 0 -32.042 96.963 6.011 6.011 0 0 1 -5.949 6.843z" fill="#f4f8fc"/></svg>