<svg id="Illustration" xmlns="http://www.w3.org/2000/svg" xmlns:xlink="http://www.w3.org/1999/xlink" viewBox="0 0 2795.77 2839.66"><defs><style>.cls-1{fill:none;}.cls-2{opacity:0.3;fill:url(#linear-gradient);}.cls-3{fill:url(#linear-gradient-2);}.cls-33,.cls-4{fill:#fff;}.cls-4{opacity:0.5;}.cls-5{fill:url(#linear-gradient-3);}.cls-6{fill:url(#linear-gradient-4);}.cls-7{fill:url(#linear-gradient-5);}.cls-8{fill:url(#linear-gradient-6);}.cls-9{fill:url(#linear-gradient-7);}.cls-10{fill:url(#linear-gradient-8);}.cls-11{fill:url(#linear-gradient-9);}.cls-12{fill:url(#linear-gradient-10);}.cls-13{fill:url(#linear-gradient-11);}.cls-14{fill:url(#linear-gradient-12);}.cls-15{fill:url(#linear-gradient-13);}.cls-16{fill:url(#linear-gradient-14);}.cls-17{fill:url(#linear-gradient-15);}.cls-18{fill:url(#linear-gradient-16);}.cls-19{fill:url(#linear-gradient-17);}.cls-20{fill:url(#linear-gradient-18);}.cls-21{fill:url(#linear-gradient-19);}.cls-22{fill:url(#linear-gradient-20);}.cls-23{fill:url(#linear-gradient-21);}.cls-24{fill:url(#linear-gradient-22);}.cls-25{fill:url(#linear-gradient-23);}.cls-26{fill:url(#linear-gradient-24);}.cls-27{fill:url(#linear-gradient-25);}.cls-28{fill:url(#linear-gradient-26);}.cls-29{fill:url(#linear-gradient-27);}.cls-30{fill:url(#linear-gradient-28);}.cls-31{fill:url(#linear-gradient-29);}.cls-32{fill:url(#linear-gradient-30);}.cls-33{opacity:0.6;}.cls-34{fill:url(#linear-gradient-31);}.cls-35{clip-path:url(#clip-path);}.cls-36{fill:url(#linear-gradient-32);}.cls-37{fill:url(#_2);}.cls-38{fill:url(#linear-gradient-33);}.cls-39{fill:url(#linear-gradient-34);}.cls-40{fill:url(#linear-gradient-35);}.cls-41{fill:url(#linear-gradient-36);}.cls-42{fill:url(#linear-gradient-37);}.cls-43{fill:url(#linear-gradient-38);}.cls-44{fill:url(#linear-gradient-39);}.cls-45{fill:url(#linear-gradient-40);}.cls-46{fill:url(#linear-gradient-41);}.cls-47{fill:url(#linear-gradient-42);}.cls-48{fill:url(#_2-2);}.cls-49{fill:url(#linear-gradient-43);}.cls-50{fill:url(#linear-gradient-44);}.cls-51{fill:url(#linear-gradient-45);}.cls-52{fill:url(#linear-gradient-46);}.cls-53{fill:url(#linear-gradient-47);}.cls-54{fill:url(#linear-gradient-48);}.cls-55{fill:url(#linear-gradient-49);}.cls-56{fill:url(#linear-gradient-50);}.cls-57{fill:url(#linear-gradient-51);}.cls-58{fill:url(#linear-gradient-52);}.cls-59{fill:url(#_2-3);}.cls-60{fill:url(#linear-gradient-53);}.cls-61{fill:url(#linear-gradient-54);}.cls-62{fill:url(#linear-gradient-55);}.cls-63{fill:url(#linear-gradient-56);}.cls-64{fill:url(#linear-gradient-57);}.cls-65{fill:url(#linear-gradient-58);}.cls-66{fill:url(#linear-gradient-59);}.cls-67{fill:url(#linear-gradient-60);}.cls-68{fill:url(#linear-gradient-61);}.cls-69{fill:url(#linear-gradient-62);}.cls-70{fill:url(#_2-4);}.cls-71{fill:url(#linear-gradient-63);}.cls-72{fill:url(#linear-gradient-64);}.cls-73{fill:url(#linear-gradient-65);}.cls-74{fill:url(#linear-gradient-66);}.cls-75{fill:url(#linear-gradient-67);}.cls-76{fill:url(#linear-gradient-68);}.cls-77{fill:url(#linear-gradient-69);}.cls-78{fill:url(#linear-gradient-70);}.cls-79{fill:url(#linear-gradient-71);}.cls-80{fill:url(#linear-gradient-72);}.cls-81{fill:url(#_2-5);}.cls-82{fill:url(#linear-gradient-73);}.cls-83{fill:url(#linear-gradient-74);}.cls-84{fill:url(#linear-gradient-75);}.cls-85{fill:url(#linear-gradient-76);}.cls-86{fill:url(#linear-gradient-77);}.cls-87{fill:url(#linear-gradient-78);}.cls-88{fill:url(#linear-gradient-79);}.cls-89{fill:url(#linear-gradient-80);}.cls-90{fill:url(#linear-gradient-81);}.cls-91{fill:url(#linear-gradient-82);}.cls-92{fill:url(#_2-6);}.cls-93{fill:url(#linear-gradient-83);}.cls-94{fill:url(#linear-gradient-84);}.cls-95{fill:url(#linear-gradient-85);}.cls-96{fill:url(#linear-gradient-86);}.cls-97{fill:url(#linear-gradient-87);}.cls-98{fill:url(#linear-gradient-88);}.cls-99{fill:url(#linear-gradient-89);}.cls-100{fill:url(#linear-gradient-90);}.cls-101{fill:url(#linear-gradient-91);}.cls-102{fill:url(#linear-gradient-152);}</style><linearGradient id="linear-gradient" x1="3507.88" y1="3673.5" x2="1540.52" y2="1579.21" gradientUnits="userSpaceOnUse"><stop offset="0" stop-color="#b37cff"/><stop offset="1" stop-color="#f895e7"/></linearGradient><linearGradient id="linear-gradient-2" x1="2142.47" y1="2746.34" x2="412.79" y2="1192.34" gradientUnits="userSpaceOnUse"><stop offset="0" stop-color="#a737d5"/><stop offset="1" stop-color="#ef497a"/></linearGradient><linearGradient id="linear-gradient-3" x1="1146.06" y1="1985.55" x2="1828.69" y2="1985.55" xlink:href="#linear-gradient-2"/><linearGradient id="linear-gradient-4" x1="982.12" y1="2837.71" x2="2130.74" y2="1290.46" gradientUnits="userSpaceOnUse"><stop offset="0" stop-color="#53d8ff"/><stop offset="1" stop-color="#3840f7"/></linearGradient><linearGradient id="linear-gradient-5" x1="1681.44" y1="2772.34" x2="3269.24" y2="1123.74" xlink:href="#linear-gradient-2"/><linearGradient id="linear-gradient-6" x1="-1058.52" y1="1985.55" x2="-375.89" y2="1985.55" gradientTransform="matrix(-1, 0, 0, 1, 1504.26, 0)" xlink:href="#linear-gradient-2"/><linearGradient id="linear-gradient-7" x1="-1399.19" y1="2177.47" x2="-560.68" y2="2177.47" gradientTransform="matrix(-0.99, -0.1, -0.1, 0.99, 1716.97, 83.76)" xlink:href="#linear-gradient-4"/><linearGradient id="linear-gradient-8" x1="2322.2" y1="1816.68" x2="2200.58" y2="3695.05" gradientTransform="translate(-82.78 24.68) rotate(-2.58)" gradientUnits="userSpaceOnUse"><stop offset="0" stop-color="#cb236d"/><stop offset="1" stop-color="#4c246d"/></linearGradient><linearGradient id="linear-gradient-9" x1="1415.98" y1="1758.04" x2="1294.37" y2="3636.28" xlink:href="#linear-gradient-8"/><linearGradient id="linear-gradient-10" x1="567.07" y1="2896.04" x2="2326.14" y2="2912.51" gradientTransform="translate(-82.78 24.68) rotate(-2.58)" gradientUnits="userSpaceOnUse"><stop offset="0" stop-color="#f9b776"/><stop offset="1" stop-color="#f47960"/></linearGradient><linearGradient id="linear-gradient-11" x1="1024.33" y1="2770.57" x2="3393.13" y2="3264.93" xlink:href="#linear-gradient-10"/><linearGradient id="linear-gradient-12" x1="1542.34" y1="1646.04" x2="3182.47" y2="3070.02" gradientTransform="translate(-82.78 24.68) rotate(-2.58)" gradientUnits="userSpaceOnUse"><stop offset="0" stop-color="#fdf53f"/><stop offset="1" stop-color="#d93c65"/></linearGradient><linearGradient id="linear-gradient-13" x1="1647.08" y1="1229.32" x2="766.93" y2="3033.09" gradientTransform="matrix(1, 0, 0, 1, 0, 0)" xlink:href="#linear-gradient-10"/><linearGradient id="linear-gradient-14" x1="1514.99" y1="1431.53" x2="766.6" y2="2965.27" gradientTransform="matrix(1, 0, 0, 1, 0, 0)" xlink:href="#linear-gradient-10"/><linearGradient id="linear-gradient-15" x1="1589.7" y1="1403.6" x2="813.94" y2="2993.44" gradientTransform="matrix(1, 0, 0, 1, 0, 0)" xlink:href="#linear-gradient-10"/><linearGradient id="linear-gradient-16" x1="1672.22" y1="1460.62" x2="899.4" y2="3044.42" gradientTransform="matrix(1, 0, 0, 1, 0, 0)" xlink:href="#linear-gradient-10"/><linearGradient id="linear-gradient-17" x1="2081.51" y1="1468.79" x2="3017.7" y2="3115.89" gradientTransform="matrix(1, 0, 0, 1, 0, 0)" xlink:href="#linear-gradient-10"/><linearGradient id="linear-gradient-18" x1="2152.3" y1="1550.62" x2="3016.18" y2="3070.49" gradientTransform="matrix(1, 0, 0, 1, 0, 0)" xlink:href="#linear-gradient-10"/><linearGradient id="linear-gradient-19" x1="2107.09" y1="1578.3" x2="2970.98" y2="3098.18" gradientTransform="matrix(1, 0, 0, 1, 0, 0)" xlink:href="#linear-gradient-10"/><linearGradient id="linear-gradient-20" x1="2064.75" y1="1569.74" x2="2948.36" y2="3124.32" gradientTransform="matrix(1, 0, 0, 1, 0, 0)" xlink:href="#linear-gradient-10"/><linearGradient id="linear-gradient-21" x1="1840.3" y1="1509.2" x2="1937.82" y2="988.3" gradientTransform="matrix(1, 0, 0, 1, 0, 0)" xlink:href="#linear-gradient-10"/><linearGradient id="linear-gradient-22" x1="1809.01" y1="1352.08" x2="1886.27" y2="587.97" gradientTransform="matrix(1, 0, 0, 1, 0, 0)" xlink:href="#linear-gradient-10"/><linearGradient id="linear-gradient-23" x1="1632.93" y1="1334.27" x2="1710.2" y2="570.17" gradientTransform="matrix(1, 0, 0, 1, 0, 0)" xlink:href="#linear-gradient-10"/><linearGradient id="linear-gradient-24" x1="2007.67" y1="1372.16" x2="2084.93" y2="608.06" gradientTransform="matrix(1, 0, 0, 1, 0, 0)" xlink:href="#linear-gradient-10"/><linearGradient id="linear-gradient-25" x1="1881.94" y1="1021.65" x2="2006" y2="1021.65" gradientTransform="matrix(1, 0, 0, 1, 0, 0)" xlink:href="#linear-gradient-8"/><linearGradient id="linear-gradient-26" x1="307.51" y1="1021.65" x2="431.56" y2="1021.65" gradientTransform="matrix(-1, 0, 0, 1, 2123.94, 0)" xlink:href="#linear-gradient-8"/><linearGradient id="linear-gradient-27" x1="1945.41" y1="957.14" x2="1949.13" y2="920.39" gradientTransform="matrix(1, 0, 0, 1, 0, 0)" xlink:href="#linear-gradient-8"/><linearGradient id="linear-gradient-28" x1="381.96" y1="957.14" x2="385.67" y2="920.39" gradientTransform="matrix(-1, 0, 0, 1, 2137, 0)" xlink:href="#linear-gradient-8"/><linearGradient id="linear-gradient-29" x1="1843.59" y1="1102.57" x2="1854.16" y2="1196.86" gradientTransform="matrix(1, 0, 0, 1, 0, 0)" xlink:href="#linear-gradient-12"/><linearGradient id="linear-gradient-30" x1="1466.37" y1="-48.76" x2="2384.46" y2="2039.22" gradientUnits="userSpaceOnUse"><stop offset="0" stop-color="#2b3582"/><stop offset="1" stop-color="#150e42"/></linearGradient><linearGradient id="linear-gradient-31" x1="1749.33" y1="226.02" x2="2092.64" y2="1006.8" xlink:href="#linear-gradient-30"/><clipPath id="clip-path" transform="translate(-457.11 -381.68)"><path class="cls-1" d="M1892.35,637.6a136.6,136.6,0,0,1-84-29c-21.91-17.19-35-38.85-35-57.94,0-38.18,53.36-69.24,118.95-69.24s119,31.06,119,69.24c0,19.09-13.08,40.75-35,57.94A136.63,136.63,0,0,1,1892.35,637.6Zm0-152.8c-63.73,0-115.57,29.54-115.57,65.86,0,37.61,53.33,83.56,115.57,83.56s115.58-46,115.58-83.56C2007.93,514.34,1956.08,484.8,1892.35,484.8Z"/></clipPath><linearGradient id="linear-gradient-32" x1="-8848.83" y1="-2999.62" x2="-8794.68" y2="-2999.62" gradientTransform="translate(5313.87 1531.27) scale(0.37)" xlink:href="#linear-gradient-10"/><linearGradient id="_2" x1="-8980.79" y1="-2666.06" x2="-8663.05" y2="-2432.41" gradientTransform="translate(5313.87 1531.27) scale(0.37)" gradientUnits="userSpaceOnUse"><stop offset="0" stop-color="#f9b776"/><stop offset="0.52" stop-color="#f6976b"/><stop offset="1" stop-color="#f47960"/></linearGradient><linearGradient id="linear-gradient-33" x1="-8843.01" y1="-2724.01" x2="-8163.8" y2="-2224.55" gradientTransform="translate(5313.87 1531.27) scale(0.37)" xlink:href="#linear-gradient-10"/><linearGradient id="linear-gradient-34" x1="-8918.16" y1="-2763.7" x2="-8534.26" y2="-2504.34" gradientTransform="translate(5313.87 1531.27) scale(0.37)" xlink:href="#linear-gradient-30"/><linearGradient id="linear-gradient-35" x1="-8740.51" y1="-2723.63" x2="-8699.96" y2="-2723.63" gradientTransform="translate(5313.87 1531.27) scale(0.37)" xlink:href="#linear-gradient-10"/><linearGradient id="linear-gradient-36" x1="-8829.71" y1="-2832.01" x2="-8422.09" y2="-2476.9" gradientTransform="translate(5313.87 1531.27) scale(0.37)" xlink:href="#linear-gradient-8"/><linearGradient id="linear-gradient-37" x1="-14927.65" y1="3337.98" x2="-14918.34" y2="3269.87" gradientTransform="translate(7370.15 2433.76) rotate(32.72) scale(0.37)" xlink:href="#linear-gradient-10"/><linearGradient id="linear-gradient-38" x1="-8779.08" y1="-2991.53" x2="-8625" y2="-2766.84" gradientTransform="translate(5313.87 1531.27) scale(0.37)" xlink:href="#linear-gradient-30"/><linearGradient id="linear-gradient-39" x1="-13960.1" y1="-218.16" x2="-13876.86" y2="-366.31" gradientTransform="translate(6945.47 2157.82) rotate(18.26) scale(0.37)" xlink:href="#linear-gradient-10"/><linearGradient id="linear-gradient-40" x1="-9468.09" y1="3097.93" x2="-9314.03" y2="3322.59" gradientTransform="translate(5653.4 1330.57) rotate(32.72) scale(0.37)" xlink:href="#linear-gradient-30"/><linearGradient id="linear-gradient-41" x1="-13942.38" y1="-208.2" x2="-13859.14" y2="-356.35" gradientTransform="translate(6945.47 2157.82) rotate(18.26) scale(0.37)" xlink:href="#linear-gradient-10"/><linearGradient id="linear-gradient-42" x1="-8848.83" y1="-2999.62" x2="-8794.68" y2="-2999.62" gradientTransform="translate(5313.87 1754.46) scale(0.37)" xlink:href="#linear-gradient-10"/><linearGradient id="_2-2" x1="-8980.79" y1="-2666.06" x2="-8663.05" y2="-2432.41" gradientTransform="translate(5313.87 1754.46) scale(0.37)" xlink:href="#_2"/><linearGradient id="linear-gradient-43" x1="-8843.01" y1="-2724.01" x2="-8163.8" y2="-2224.55" gradientTransform="translate(5313.87 1754.46) scale(0.37)" xlink:href="#linear-gradient-10"/><linearGradient id="linear-gradient-44" x1="-8918.16" y1="-2763.7" x2="-8534.26" y2="-2504.34" gradientTransform="translate(5313.87 1754.46) scale(0.37)" xlink:href="#linear-gradient-30"/><linearGradient id="linear-gradient-45" x1="-8740.51" y1="-2723.63" x2="-8699.96" y2="-2723.63" gradientTransform="translate(5313.87 1754.46) scale(0.37)" xlink:href="#linear-gradient-10"/><linearGradient id="linear-gradient-46" x1="-8829.71" y1="-2832.01" x2="-8422.09" y2="-2476.9" gradientTransform="translate(5313.87 1754.46) scale(0.37)" xlink:href="#linear-gradient-8"/><linearGradient id="linear-gradient-47" x1="-14927.65" y1="3337.98" x2="-14918.34" y2="3269.87" gradientTransform="translate(7370.15 2656.95) rotate(32.72) scale(0.37)" xlink:href="#linear-gradient-10"/><linearGradient id="linear-gradient-48" x1="-8779.08" y1="-2991.53" x2="-8625" y2="-2766.84" gradientTransform="translate(5313.87 1754.46) scale(0.37)" xlink:href="#linear-gradient-30"/><linearGradient id="linear-gradient-49" x1="-13960.1" y1="-218.16" x2="-13876.86" y2="-366.31" gradientTransform="translate(6945.47 2381.01) rotate(18.26) scale(0.37)" xlink:href="#linear-gradient-10"/><linearGradient id="linear-gradient-50" x1="-9468.09" y1="3097.93" x2="-9314.03" y2="3322.59" gradientTransform="translate(5653.4 1553.76) rotate(32.72) scale(0.37)" xlink:href="#linear-gradient-30"/><linearGradient id="linear-gradient-51" x1="-13942.38" y1="-208.2" x2="-13859.14" y2="-356.35" gradientTransform="translate(6945.47 2381.01) rotate(18.26) scale(0.37)" xlink:href="#linear-gradient-10"/><linearGradient id="linear-gradient-52" x1="-8848.83" y1="-2999.62" x2="-8794.68" y2="-2999.62" gradientTransform="translate(5174.2 1531.27) scale(0.37)" xlink:href="#linear-gradient-10"/><linearGradient id="_2-3" x1="-8980.79" y1="-2666.06" x2="-8663.05" y2="-2432.41" gradientTransform="translate(5174.2 1531.27) scale(0.37)" xlink:href="#_2"/><linearGradient id="linear-gradient-53" x1="-8843.01" y1="-2724.01" x2="-8163.8" y2="-2224.55" gradientTransform="translate(5174.2 1531.27) scale(0.37)" xlink:href="#linear-gradient-10"/><linearGradient id="linear-gradient-54" x1="-8918.16" y1="-2763.7" x2="-8534.26" y2="-2504.34" gradientTransform="translate(5174.2 1531.27) scale(0.37)" xlink:href="#linear-gradient-30"/><linearGradient id="linear-gradient-55" x1="-8740.51" y1="-2723.63" x2="-8699.96" y2="-2723.63" gradientTransform="translate(5174.2 1531.27) scale(0.37)" xlink:href="#linear-gradient-10"/><linearGradient id="linear-gradient-56" x1="-8829.71" y1="-2832.01" x2="-8422.09" y2="-2476.9" gradientTransform="translate(5174.2 1531.27) scale(0.37)" xlink:href="#linear-gradient-8"/><linearGradient id="linear-gradient-57" x1="-14927.65" y1="3337.98" x2="-14918.34" y2="3269.87" gradientTransform="translate(7230.48 2433.76) rotate(32.72) scale(0.37)" xlink:href="#linear-gradient-10"/><linearGradient id="linear-gradient-58" x1="-8779.08" y1="-2991.53" x2="-8625" y2="-2766.84" gradientTransform="translate(5174.2 1531.27) scale(0.37)" xlink:href="#linear-gradient-30"/><linearGradient id="linear-gradient-59" x1="-13960.1" y1="-218.16" x2="-13876.86" y2="-366.31" gradientTransform="translate(6805.8 2157.82) rotate(18.26) scale(0.37)" xlink:href="#linear-gradient-10"/><linearGradient id="linear-gradient-60" x1="-9468.09" y1="3097.93" x2="-9314.03" y2="3322.59" gradientTransform="translate(5513.73 1330.57) rotate(32.72) scale(0.37)" xlink:href="#linear-gradient-30"/><linearGradient id="linear-gradient-61" x1="-13942.38" y1="-208.2" x2="-13859.14" y2="-356.35" gradientTransform="translate(6805.8 2157.82) rotate(18.26) scale(0.37)" xlink:href="#linear-gradient-10"/><linearGradient id="linear-gradient-62" x1="-8848.83" y1="-2999.62" x2="-8794.68" y2="-2999.62" gradientTransform="translate(5174.2 1754.46) scale(0.37)" xlink:href="#linear-gradient-10"/><linearGradient id="_2-4" x1="-8980.79" y1="-2666.06" x2="-8663.05" y2="-2432.41" gradientTransform="translate(5174.2 1754.46) scale(0.37)" xlink:href="#_2"/><linearGradient id="linear-gradient-63" x1="-8843.01" y1="-2724.01" x2="-8163.8" y2="-2224.55" gradientTransform="translate(5174.2 1754.46) scale(0.37)" xlink:href="#linear-gradient-10"/><linearGradient id="linear-gradient-64" x1="-8918.16" y1="-2763.7" x2="-8534.26" y2="-2504.34" gradientTransform="translate(5174.2 1754.46) scale(0.37)" xlink:href="#linear-gradient-30"/><linearGradient id="linear-gradient-65" x1="-8740.51" y1="-2723.63" x2="-8699.96" y2="-2723.63" gradientTransform="translate(5174.2 1754.46) scale(0.37)" xlink:href="#linear-gradient-10"/><linearGradient id="linear-gradient-66" x1="-8829.71" y1="-2832.01" x2="-8422.09" y2="-2476.9" gradientTransform="translate(5174.2 1754.46) scale(0.37)" xlink:href="#linear-gradient-8"/><linearGradient id="linear-gradient-67" x1="-14927.65" y1="3337.98" x2="-14918.34" y2="3269.87" gradientTransform="translate(7230.48 2656.95) rotate(32.72) scale(0.37)" xlink:href="#linear-gradient-10"/><linearGradient id="linear-gradient-68" x1="-8779.08" y1="-2991.53" x2="-8625" y2="-2766.84" gradientTransform="translate(5174.2 1754.46) scale(0.37)" xlink:href="#linear-gradient-30"/><linearGradient id="linear-gradient-69" x1="-13960.1" y1="-218.16" x2="-13876.86" y2="-366.31" gradientTransform="translate(6805.8 2381.01) rotate(18.26) scale(0.37)" xlink:href="#linear-gradient-10"/><linearGradient id="linear-gradient-70" x1="-9468.09" y1="3097.93" x2="-9314.03" y2="3322.59" gradientTransform="translate(5513.73 1553.76) rotate(32.72) scale(0.37)" xlink:href="#linear-gradient-30"/><linearGradient id="linear-gradient-71" x1="-13942.38" y1="-208.2" x2="-13859.14" y2="-356.35" gradientTransform="translate(6805.8 2381.01) rotate(18.26) scale(0.37)" xlink:href="#linear-gradient-10"/><linearGradient id="linear-gradient-72" x1="-8848.83" y1="-2999.62" x2="-8794.68" y2="-2999.62" gradientTransform="translate(5034.53 1531.27) scale(0.37)" xlink:href="#linear-gradient-10"/><linearGradient id="_2-5" x1="-8980.79" y1="-2666.06" x2="-8663.05" y2="-2432.41" gradientTransform="translate(5034.53 1531.27) scale(0.37)" xlink:href="#_2"/><linearGradient id="linear-gradient-73" x1="-8843.01" y1="-2724.01" x2="-8163.8" y2="-2224.55" gradientTransform="translate(5034.53 1531.27) scale(0.37)" xlink:href="#linear-gradient-10"/><linearGradient id="linear-gradient-74" x1="-8918.16" y1="-2763.7" x2="-8534.26" y2="-2504.34" gradientTransform="translate(5034.53 1531.27) scale(0.37)" xlink:href="#linear-gradient-30"/><linearGradient id="linear-gradient-75" x1="-8740.51" y1="-2723.63" x2="-8699.96" y2="-2723.63" gradientTransform="translate(5034.53 1531.27) scale(0.37)" xlink:href="#linear-gradient-10"/><linearGradient id="linear-gradient-76" x1="-8829.71" y1="-2832.01" x2="-8422.09" y2="-2476.9" gradientTransform="translate(5034.53 1531.27) scale(0.37)" xlink:href="#linear-gradient-8"/><linearGradient id="linear-gradient-77" x1="-14927.65" y1="3337.98" x2="-14918.34" y2="3269.87" gradientTransform="translate(7090.81 2433.76) rotate(32.72) scale(0.37)" xlink:href="#linear-gradient-10"/><linearGradient id="linear-gradient-78" x1="-8779.08" y1="-2991.53" x2="-8625" y2="-2766.84" gradientTransform="translate(5034.53 1531.27) scale(0.37)" xlink:href="#linear-gradient-30"/><linearGradient id="linear-gradient-79" x1="-13960.1" y1="-218.16" x2="-13876.86" y2="-366.31" gradientTransform="translate(6666.13 2157.82) rotate(18.26) scale(0.37)" xlink:href="#linear-gradient-10"/><linearGradient id="linear-gradient-80" x1="-9468.09" y1="3097.93" x2="-9314.03" y2="3322.59" gradientTransform="translate(5374.06 1330.57) rotate(32.72) scale(0.37)" xlink:href="#linear-gradient-30"/><linearGradient id="linear-gradient-81" x1="-13942.38" y1="-208.2" x2="-13859.14" y2="-356.35" gradientTransform="translate(6666.13 2157.82) rotate(18.26) scale(0.37)" xlink:href="#linear-gradient-10"/><linearGradient id="linear-gradient-82" x1="-8848.83" y1="-2999.62" x2="-8794.68" y2="-2999.62" gradientTransform="translate(5034.53 1754.46) scale(0.37)" xlink:href="#linear-gradient-10"/><linearGradient id="_2-6" x1="-8980.79" y1="-2666.06" x2="-8663.05" y2="-2432.41" gradientTransform="translate(5034.53 1754.46) scale(0.37)" xlink:href="#_2"/><linearGradient id="linear-gradient-83" x1="-8843.01" y1="-2724.01" x2="-8163.8" y2="-2224.55" gradientTransform="translate(5034.53 1754.46) scale(0.37)" xlink:href="#linear-gradient-10"/><linearGradient id="linear-gradient-84" x1="-8918.16" y1="-2763.7" x2="-8534.26" y2="-2504.34" gradientTransform="translate(5034.53 1754.46) scale(0.37)" xlink:href="#linear-gradient-30"/><linearGradient id="linear-gradient-85" x1="-8740.51" y1="-2723.63" x2="-8699.96" y2="-2723.63" gradientTransform="translate(5034.53 1754.46) scale(0.37)" xlink:href="#linear-gradient-10"/><linearGradient id="linear-gradient-86" x1="-8829.71" y1="-2832.01" x2="-8422.09" y2="-2476.9" gradientTransform="translate(5034.53 1754.46) scale(0.37)" xlink:href="#linear-gradient-8"/><linearGradient id="linear-gradient-87" x1="-14927.65" y1="3337.98" x2="-14918.34" y2="3269.87" gradientTransform="translate(7090.81 2656.95) rotate(32.72) scale(0.37)" xlink:href="#linear-gradient-10"/><linearGradient id="linear-gradient-88" x1="-8779.08" y1="-2991.53" x2="-8625" y2="-2766.84" gradientTransform="translate(5034.53 1754.46) scale(0.37)" xlink:href="#linear-gradient-30"/><linearGradient id="linear-gradient-89" x1="-13960.1" y1="-218.16" x2="-13876.86" y2="-366.31" gradientTransform="translate(6666.13 2381.01) rotate(18.26) scale(0.37)" xlink:href="#linear-gradient-10"/><linearGradient id="linear-gradient-90" x1="-9468.09" y1="3097.93" x2="-9314.03" y2="3322.59" gradientTransform="translate(5374.06 1553.76) rotate(32.72) scale(0.37)" xlink:href="#linear-gradient-30"/><linearGradient id="linear-gradient-91" x1="-13942.38" y1="-208.2" x2="-13859.14" y2="-356.35" gradientTransform="translate(6666.13 2381.01) rotate(18.26) scale(0.37)" xlink:href="#linear-gradient-10"/><linearGradient id="linear-gradient-152" x1="1812.26" y1="442.2" x2="1998.47" y2="865.69" gradientTransform="matrix(1, 0, 0, 1, 0, 0)" xlink:href="#linear-gradient-8"/></defs><path class="cls-2" d="M2917.18,2833.28c-72.63,74.86-137.61,118.87-187.36,152.09-485.24,324-1039.93,230.62-1211.42,198.7-276.69-51.5-510.25-87.83-710.92-269.13-456-412-433.81-1271.34-85.38-1803.7,41.32-63.12,389.21-578.81,945.1-651.48,13.6-1.78,23.74-2.79,32.63-3.73,86-9.1,618.88-57.16,1053.39,306.88,62.2,52.11,162.3,146.1,255.12,289.46C3347.74,1576.54,3348.81,2388.37,2917.18,2833.28Z" transform="translate(-457.11 -381.68)"/><path class="cls-3" d="M1753.36,2574.92S1600.74,2264.46,1416.7,2256s-479.35,80.31-719-354.77c-140.32-254.72-205.48-364.1-235.38-411a32.73,32.73,0,0,1,18.07-49c146.91-44.56,635.56-167.44,881.34,81.65C1653.06,1818.24,1753.36,2574.92,1753.36,2574.92Z" transform="translate(-457.11 -381.68)"/><path class="cls-4" d="M646.33,1514.78c60.11,15.54,118.58,36.62,176.25,59.55l21.58,8.73,21.39,9.21,21.39,9.21c7.12,3.08,14.13,6.43,21.2,9.63l21.13,9.8,10.57,4.91,10.43,5.17,41.75,20.7c27.44,14.57,55.07,28.84,81.84,44.65l20.22,11.6,10.11,5.8,9.94,6.1,39.7,24.46,9.9,6.18,9.69,6.48,19.4,13,19.39,13,9.7,6.48,9.49,6.78c25.16,18.33,50.82,35.79,75.15,55.57,6.23,4.72,12.11,9.87,18.12,14.88s12,10,17.89,15.14l17.42,15.67,8.7,7.85,8.45,8.11,16.89,16.23,16.41,16.72,8.18,8.37c2.69,2.82,5.28,5.74,7.93,8.61l15.8,17.27a1295.55,1295.55,0,0,1,113.75,148.27c34.51,51.85,65.05,106.21,92.42,162,13.53,28,26.34,56.3,38,85.1s22.4,57.9,31.32,87.73a2.06,2.06,0,0,1-3.92,1.29l0-.06c-5.17-14.48-11-28.83-17-43s-12.14-28.38-18.62-42.38c-12.92-28-26.48-55.73-41-82.92a1579.45,1579.45,0,0,0-95.82-157.82,1395.63,1395.63,0,0,0-114.36-144.4c-41.65-45-85.76-87.91-133.93-125.82-23.85-19.1-49.19-36.79-74-55l-9.35-6.77-9.56-6.47-19.13-13L1162,1774.35l-9.57-6.48-9.76-6.17c-51.59-33.68-104.86-64.71-158.82-94.55L943,1645.56l-10.23-5.39L922.37,1635l-20.71-10.3c-6.91-3.42-13.75-7-20.72-10.3L860,1604.55l-20.93-9.88-21.14-9.42C761.63,1560,704.32,1536.66,645.71,1517l0,0a1.17,1.17,0,0,1,.66-2.24Z" transform="translate(-457.11 -381.68)"/><path class="cls-5" d="M1827.23,2687.14c18.12,14-138.7-293.89-120-723.5,8.79-202.44,58.37-448.24-34.09-565.65-76.94-97.73-403.45-112.34-510.82-114.49a15.84,15.84,0,0,0-12.75,25.69c41.17,51.8,127.36,171.74,134.87,276.49,9.89,138,117.19,246.41,223.81,291.52s164,79.51,182,268.35S1775.73,2647.45,1827.23,2687.14Z" transform="translate(-457.11 -381.68)"/><path class="cls-4" d="M1296.75,1367.92a412.76,412.76,0,0,1,49.12,14.58c16.07,5.73,31.83,12.35,47.3,19.62,30.82,14.77,60.6,32.13,87.92,53.06,6.93,5.1,13.52,10.65,20.18,16.12,3.3,2.77,6.44,5.74,9.65,8.6l4.81,4.34,4.61,4.54c12.54,11.88,23.93,25,34.84,38.39,21.24,27.33,39.17,57.54,51.59,90l4.55,12.22c1.48,4.08,2.58,8.29,3.89,12.43s2.6,8.34,3.68,12.43l3.25,12.28c4.35,16.37,8.69,32.74,12.73,49.19,8.12,32.88,16,65.83,23,99q10.81,49.65,19.62,99.72c5.74,33.4,11.13,66.82,14.76,100.62a3.32,3.32,0,0,1-6.55,1l0-.08c-6.35-33.06-13.36-66.12-20.77-99s-15.09-65.77-23.1-98.53l-12.23-49.1c-4.22-16.32-8.32-32.68-12.74-49l-6.43-24.46-6.61-24.42-3.3-12.21c-1.1-4.07-2.4-7.89-3.59-11.85s-2.32-7.88-3.74-11.73l-4.35-11.53c-11.51-30.8-28.44-59.36-48.29-85.62a414.08,414.08,0,0,0-69.56-70.41,479.21,479.21,0,0,0-40.43-29.2q-20.92-13.65-43.12-25.39c-14.73-7.9-29.88-15-45.28-21.64a488.09,488.09,0,0,0-47-17.53l-.12,0a3.31,3.31,0,0,1,1.69-6.4Z" transform="translate(-457.11 -381.68)"/><path class="cls-6" d="M1700.45,2712.31c12.79,5.13-82-124.93-100.92-246.25s-68.06-326.63-186.2-440.2-234.5-112.94-367.84,15.37c-111.12,106.92-181.61,162.38-224.93,175.84a16.81,16.81,0,0,0-8.68,25.54c33.82,49.31,126.54,161,260.37,138.52,170.71-28.67,367.32-162.05,440.49-75.47s70.45,139.56,77,183.52S1615.8,2678.36,1700.45,2712.31Z" transform="translate(-457.11 -381.68)"/><path class="cls-4" d="M1111.4,2187.13c16.43-20.39,35.39-38.6,55.89-55.07a329.9,329.9,0,0,1,32.22-23,271.39,271.39,0,0,1,35.14-18.93,225.34,225.34,0,0,1,38.21-13.18,168.49,168.49,0,0,1,40.8-4.51c3.45.19,6.92.15,10.37.54s7,.71,10.29,1.29l19.67,4,19.41,5.35,19,6.84a226.38,226.38,0,0,1,68,43c20,18,36.22,39.51,50.07,62l5.19,8.45c1.75,2.8,3.11,5.81,4.68,8.7,3,5.87,6.17,11.64,9,17.57l8.05,18c2.81,5.92,4.84,12.17,7.23,18.25,9.57,24.35,16.54,49.53,22.93,74.71a1.15,1.15,0,0,1-2.2.69v0l-6.92-18.17c-2.37-6-4.41-12.16-7-18.07l-7.45-17.88c-1.17-3-2.48-5.94-3.88-8.85L1536,2270c-5.21-11.78-11.4-23-17.25-34.41-3.1-5.6-6.51-11-9.74-16.51s-6.79-10.78-10.35-16a288.25,288.25,0,0,0-49.51-56.89,223.11,223.11,0,0,0-63.66-38.5l-17.65-6.18-18.13-4.83-18.48-3.55c-3.06-.53-6-.8-9-1.22s-6-.37-9-.58a150.27,150.27,0,0,0-36.35,3.59,210.63,210.63,0,0,0-35.64,10.86,330.67,330.67,0,0,0-34.22,16.13q-16.68,9.18-32.7,19.8a578.46,578.46,0,0,0-61.14,47.11l0,0a1.19,1.19,0,0,1-1.72-1.64Z" transform="translate(-457.11 -381.68)"/><path class="cls-7" d="M1955.47,2574.92s152.62-310.46,336.66-318.88,479.36,80.31,719-354.77c140.33-254.72,205.48-364.1,235.39-411a32.74,32.74,0,0,0-18.07-49c-146.91-44.56-635.56-167.44-881.34,81.65C2055.78,1818.24,1955.47,2574.92,1955.47,2574.92Z" transform="translate(-457.11 -381.68)"/><path class="cls-4" d="M3063.12,1517c-58.42,20.22-115.56,43.89-171.69,69.47l-21.09,9.52-20.86,10-20.86,10c-6.95,3.33-13.77,6.94-20.66,10.39l-20.65,10.37-10.34,5.17-10.2,5.43L2726,1669.06c-53.8,30-107,61.07-158.43,94.83l-9.75,6.17-9.55,6.47-19.09,13-19.09,12.94-9.55,6.47-9.33,6.77c-24.74,18.22-50,35.94-73.83,55-48.08,37.75-92.06,80.55-133.73,125.39l-15.31,17.14-7.63,8.58-7.43,8.77-14.82,17.58-14.36,18c-4.85,5.95-9.5,12-14.12,18.16s-9.42,12.11-14,18.3c-9.09,12.37-18.21,24.71-26.9,37.38a1607.71,1607.71,0,0,0-96.38,157.26c-14.69,27.07-28.38,54.7-41.5,82.61-6.58,13.95-12.83,28.06-18.92,42.24s-12,28.46-17.32,42.9l0,.05a2.06,2.06,0,0,1-3.92-1.28c8.65-29.91,19.15-59.14,30.65-88s24.1-57.31,37.48-85.39c27.12-56,57.44-110.56,91.86-162.59,34-52.31,72.24-101.88,113.59-148.8l15.79-17.33c2.65-2.88,5.24-5.81,7.94-8.65l8.19-8.4,16.43-16.76,16.92-16.28,8.46-8.13,8.72-7.87,17.45-15.73c5.9-5.14,11.95-10.12,17.93-15.19s11.9-10.18,18.15-14.93c24.38-19.87,50.09-37.29,75.29-55.64l9.5-6.78,9.72-6.48,19.43-13,19.43-13,9.71-6.48,9.91-6.17,39.8-24.43,10-6.07,10.14-5.79,20.27-11.58c26.83-15.76,54.51-30,82-44.47l41.87-20.58,10.46-5.13,10.59-4.88,21.19-9.73c7.1-3.17,14.12-6.49,21.27-9.54l21.45-9.11,21.45-9.11,21.64-8.63c57.86-22.59,116.49-43.35,176.78-58.29a1.18,1.18,0,0,1,1.42.86,1.16,1.16,0,0,1-.75,1.38Z" transform="translate(-457.11 -381.68)"/><path class="cls-8" d="M1881.61,2687.14c-18.12,14,138.69-293.89,120-723.5-8.79-202.44-58.37-448.24,34.08-565.65,76.95-97.73,403.46-112.34,510.83-114.49a15.84,15.84,0,0,1,12.74,25.69c-41.16,51.8-127.35,171.74-134.86,276.49-9.9,138-117.2,246.41-223.81,291.52s-164,79.51-182,268.35S1933.11,2647.45,1881.61,2687.14Z" transform="translate(-457.11 -381.68)"/><path class="cls-4" d="M2413.66,1374.36c-31.37,11.54-61.77,26-90.85,42-29,16.3-56.76,34.46-82.19,55.31a433.65,433.65,0,0,0-36.5,32.9,405.58,405.58,0,0,0-32.4,36.62c-19.88,25.73-36.74,53.88-48.35,84.25l-4.33,11.39c-1.45,3.79-2.52,7.72-3.81,11.58s-2.53,7.65-3.66,11.72l-3.4,12.17q-6.87,24.32-13.42,48.74l-13.13,48.83c-4.22,16.32-8.54,32.62-12.57,49-8.5,32.64-16.29,65.45-24.1,98.27-7.59,32.85-15.18,65.79-21.84,98.81v.07a3.32,3.32,0,0,1-6.55-1c1.66-17,3.64-33.77,6-50.56l3.62-25.17,4-25.1c5.41-33.48,11.89-66.75,18.61-100,7-33.16,14.26-66.29,22.3-99.22q6-24.72,12.37-49.32l3.14-12.32c1-4.1,2.41-8.38,3.61-12.57s2.36-8.45,3.83-12.58l4.56-12.36c12.32-32.92,30.32-63.53,51.53-91.39,10.94-13.67,22.36-27,35.05-39l4.68-4.58,4.85-4.38c3.26-2.89,6.43-5.89,9.77-8.69,6.73-5.52,13.39-11.11,20.4-16.24a416.69,416.69,0,0,1,43.32-28.67,471.5,471.5,0,0,1,46-23.67l11.83-5.14,11.94-4.86c8-3,16.11-5.92,24.26-8.59a361.47,361.47,0,0,1,49.83-12.76,3.32,3.32,0,0,1,1.71,6.39Z" transform="translate(-457.11 -381.68)"/><path class="cls-9" d="M2008.39,2712.31c-12.79,5.13,82-124.93,100.92-246.25s68.05-326.63,186.19-440.2,234.5-112.94,367.85,15.37c111.12,106.92,181.6,162.38,224.93,175.84a16.8,16.8,0,0,1,8.67,25.54c-33.81,49.31-126.54,161-260.37,138.52-170.7-28.67-367.32-162.05-440.49-75.47s-70.44,139.56-77,183.52S2093,2678.36,2008.39,2712.31Z" transform="translate(-457.11 -381.68)"/><path class="cls-4" d="M2595.67,2188.74c-9.32-8.9-19.09-17.39-29.07-25.54s-20.4-15.77-30.92-23.13c-21.14-14.57-43.39-27.52-66.91-37.1a213.29,213.29,0,0,0-36.08-11.31,153.93,153.93,0,0,0-37.15-3.77c-3.08.21-6.2.18-9.27.57s-6.11.69-9.21,1.23l-18.7,3.63-18.36,4.92-17.89,6.31a222.7,222.7,0,0,0-64.4,39.33c-19.05,16.73-35.47,36.47-49.55,57.82l-5.31,8c-1.82,2.63-3.27,5.5-4.93,8.25-3.18,5.57-6.54,11-9.58,16.7-5.74,11.5-11.81,22.86-16.86,34.74-10.88,23.41-19.32,47.88-28,72.29v0a1.15,1.15,0,0,1-2.19-.69c6.91-25,14.51-49.95,24.28-74.13,2.47-6,4.57-12.23,7.44-18.1l8.23-17.8c2.89-5.86,6.12-11.56,9.17-17.36,1.6-2.86,3-5.84,4.75-8.61l5.23-8.34c13.93-22.21,30.26-43.28,50-61a226.12,226.12,0,0,1,67.25-42.16l18.76-6.72,19.18-5.24,19.46-3.89c3.27-.58,6.71-.85,10-1.28s6.76-.36,10.14-.55a165.06,165.06,0,0,1,40,4.33,223.27,223.27,0,0,1,37.76,12.73c24.27,10.64,46.66,24.76,67.37,40.75,10.4,8,20.29,16.52,29.82,25.42a343.77,343.77,0,0,1,27.22,28.09,1.18,1.18,0,0,1-.14,1.68,1.19,1.19,0,0,1-1.6,0Z" transform="translate(-457.11 -381.68)"/><path class="cls-10" d="M2319.63,3151.4a1073.19,1073.19,0,0,0,115.77,16.66c106.11,9,254,32.42,349-27.9,67.95-43.15,67.41-104.75,41.21-170.23-12-29.95-19.52-60-36.79-87.17q-28.72-45.2-61.1-87.92c-41.24-54.43-89-103.38-136-153-86.13-91-266.93-156.74-373.95-208.93C2133,2391.6,1844.09,2273,1837,2288.4c-20.23,44-4.34,84.59-13.19,132.17l-58.08,311.9c-16.31,87.61-27.94,172.5-7.61,260.41,16.83,72.74,116.13,51.17,174.39,59.23,44.21,6.13,87,19.57,129.85,32C2145.53,3108.3,2232,3134.23,2319.63,3151.4Z" transform="translate(-457.11 -381.68)"/><path class="cls-11" d="M1622.55,2354.6c-185.07,104.74-485.85,260.19-641.23,403.53-60.24,55.57-120.21,102.13-109.89,193.81,7.65,67.9,55,130,117.46,157,55,23.74,116.11,28.61,176,29.24,129.51,1.35,255.48-18,380.66-50,31.54-8,354.9-56.47,353.84-39.58,16.27-254.91-14.63-507.7-9.09-762.13C1819.12,2285,1718.72,2300.17,1622.55,2354.6Z" transform="translate(-457.11 -381.68)"/><path class="cls-12" d="M2041.63,2765.09c14.44-3.53,28.24-8.72,39.92-17.75,14.64-11.32,24.66-27.78,39.31-39.1,54.58-42.14,98.61,11.93,139.82,42.44,39.53,29.27,86.78,47,125.46,77.4s68.8,80.81,53.78,127.66c-13.42,41.87-79.29-7.25-97.65-19.94-43.87-30.32-96.31-50.89-149.56-48-20.57,1.1-40.77,5.64-61.12,8.83-58.72,9.18-139.66,18.77-195.21-5.74-39.59-17.46-164.73-82.85-56-99.76l131-20.37C2021.44,2769.17,2031.68,2767.53,2041.63,2765.09Z" transform="translate(-457.11 -381.68)"/><path class="cls-13" d="M1936,2866.47c37.31,19.74,76.42,26.71,117.93,30.24,3.76,21-29.92,44.41-41.28,62.29-16.39,25.82-26.08,58-17.05,87.23-113.76-20.76-209.68-99.63-326.86-116.51a580.25,580.25,0,0,0-158.39-1.15c-40.62,5.35-103.48,37.53-141.36,11.58-17.17-11.76-25.79-36.76-15.06-54.59,6.8-11.3,19.61-17.73,32.46-20.74,117.15-27.39,221.4-69.94,320.74-139,29.31-20.36,87.65-22,112.61,7.94,14.59,17.52,18,41.71,32,60.62a253.22,253.22,0,0,0,84.23,72.07Z" transform="translate(-457.11 -381.68)"/><path class="cls-14" d="M1494.39,1459.84c42.63,494,234.95,730.7,128.16,894.76,197.48,100.05,462.17,25.24,462.17,25.24-47.28-15.61,139.3-524,154.45-903.32C1984.51,1334.27,1754.41,1350.48,1494.39,1459.84Z" transform="translate(-457.11 -381.68)"/><path class="cls-15" d="M962.45,2675.55l90.58-77c-25.18-17.69-123.4,13.06-162.29,32.08-5.68,2.77-3.82,11.32,2.48,11.67C930.94,2644.33,962.29,2641.7,962.45,2675.55Z" transform="translate(-457.11 -381.68)"/><path class="cls-16" d="M967.57,2674.33l-14.7,21.19-45.14,66.31c-39.87-21-69.71-78.22-44.63-113.82a6.87,6.87,0,0,1,12.47,3.67C877.3,2703.64,906,2738.73,967.57,2674.33Z" transform="translate(-457.11 -381.68)"/><path class="cls-17" d="M1084.44,2659s-79.57,109.06-157.69,162.3c-93.74,63.89-150.2,16.53-133.82-3.91s88.07-32.87,129.73-90.28S1069.48,2511.34,1084.44,2659Z" transform="translate(-457.11 -381.68)"/><path class="cls-18" d="M1030.57,2625.08c84.24-142.46,227.62-335.61,295.46-390.28,36.27-444.66,68.13-683.83,168.36-775,61.64,130.86,52.63,178.2,61.19,316.3,5.31,143.82-42.65,377.09-107.62,544-119.49,148.48-247.07,272.61-384,350.9Z" transform="translate(-457.11 -381.68)"/><path class="cls-19" d="M2747.67,2689.41l-83.79-71.31c25.18-17.69,116.61,7.34,155.5,26.36,5.68,2.77,3.82,11.32-2.48,11.67C2779.18,2658.19,2747.83,2655.56,2747.67,2689.41Z" transform="translate(-457.11 -381.68)"/><path class="cls-20" d="M2739,2688.19l14.7,21.19,45.13,66.31c39.87-21.05,69.72-78.23,44.64-113.82a6.87,6.87,0,0,0-12.47,3.66C2829.31,2717.5,2800.65,2752.59,2739,2688.19Z" transform="translate(-457.11 -381.68)"/><path class="cls-21" d="M2636.74,2682.83s68.51,99.05,146.63,152.29c93.74,63.89,150.2,16.53,133.81-3.91s-88.06-32.87-129.73-90.28S2651.7,2535.21,2636.74,2682.83Z" transform="translate(-457.11 -381.68)"/><path class="cls-22" d="M2668.2,2625.38C2584,2482.92,2450,2323.71,2382.12,2269c-36.26-444.66-42.71-701.38-142.95-792.51-61.63,130.87-69.38,192.45-65.09,328-5.31,143.82,23.11,362.61,88.08,529.57C2381.65,2482.52,2515,2619.7,2652,2698Z" transform="translate(-457.11 -381.68)"/><path class="cls-23" d="M2061.62,1401.6l-38.42-14c-47.3-9.32-86.7-44.52-88.41-92.7l-7.65-215.62H1787.3l-7.64,215.62c-1.71,48.18-30.22,88.1-77.52,97.42l-43.07,10.36c30.89,25,92.44,59,204.88,59C1967.32,1461.7,2028.87,1428.35,2061.62,1401.6Z" transform="translate(-457.11 -381.68)"/><path class="cls-24" d="M1673.81,853.27s-10.57,253.63,21.13,295.9,74,137.38,148,147.95,165.45-144.32,175-180.28c7.85-29.42,4.62-316.4,4.62-316.4S1800.62,620.78,1673.81,853.27Z" transform="translate(-457.11 -381.68)"/><path class="cls-25" d="M1694.94,1001.22s-21.13-63.4-52.83-42.27,47.58,156,47.58,156Z" transform="translate(-457.11 -381.68)"/><path class="cls-26" d="M2012,1001.22s0-95.11,52.84-42.27S2012,1085.77,2012,1085.77Z" transform="translate(-457.11 -381.68)"/><path class="cls-27" d="M1995.88,1005c-8.34,4.49-14.14,13.71-22.77,18.2-10.24,5.33-21.46,6.24-32.38,3.69-18.93-4.43-39.44-17.66-58.42-6.54-.66.39-.38,1.81.4,1.7,25.36-3.36,46.14,16.71,71,16.35,9.39-.13,20.46-.91,28.74-6,7.36-4.53,23.54-18.22,23.54-18.22S1997.72,1004,1995.88,1005Z" transform="translate(-457.11 -381.68)"/><path class="cls-28" d="M1702.49,1005c8.34,4.49,14.14,13.71,22.77,18.2,10.24,5.33,21.46,6.24,32.38,3.69,18.94-4.43,39.44-17.66,58.42-6.54.67.39.38,1.81-.4,1.7-25.36-3.36-46.14,16.71-71,16.35-9.39-.13-20.47-.91-28.75-6-7.36-4.53-23.53-18.22-23.53-18.22S1700.65,1004,1702.49,1005Z" transform="translate(-457.11 -381.68)"/><path class="cls-29" d="M1894.36,944.13h0a5.56,5.56,0,0,0,7.3,5.29c17.43-5.79,62.55-17.49,96.66,2.66,0,0-19.06-43.83-100.39-13.15A5.56,5.56,0,0,0,1894.36,944.13Z" transform="translate(-457.11 -381.68)"/><path class="cls-30" d="M1806.09,944.13h0a5.55,5.55,0,0,1-7.29,5.29c-17.43-5.79-62.56-17.49-96.66,2.66,0,0,19.06-43.83,100.39-13.15A5.56,5.56,0,0,1,1806.09,944.13Z" transform="translate(-457.11 -381.68)"/><path class="cls-31" d="M1899.89,1185.54c-4.27-3.87-25.23-22.26-34.46-19.35a23.55,23.55,0,0,0-12.46,9.56,23.55,23.55,0,0,0-12.46-9.56c-9.22-2.91-30.19,15.48-34.46,19.35l-.76.7c12.36,17.83,28.09,26.24,47.68,23.84,19.59,2.4,35.32-6,47.69-23.84Z" transform="translate(-457.11 -381.68)"/><path class="cls-32" d="M1676.08,1004.77s3.14-117.32,73.46-123.5c56.26-4.95,150.44-29.68,194.37-64.7,14.78-11.78,35.42-7.41,44.94,9.84,19.76,35.77,28.76,130.53,31.58,178.5,0,0,86.43-201.74,25.37-310.94S1527.43,511.54,1676.08,1004.77Z" transform="translate(-457.11 -381.68)"/><path class="cls-33" d="M2000.15,671.31a73.58,73.58,0,0,1,3.83,28.41,93,93,0,0,1-6.2,28.12c-7.06,18.12-20,33.37-34.71,45.48a187.45,187.45,0,0,1-23.53,16.33c-4,2.54-8.31,4.67-12.49,7-4.28,2.06-8.53,4.24-12.92,6.06-17.41,7.64-35.44,13.48-53.5,18.66-36.13,10.29-72.45,18.59-105.67,34.47a268,268,0,0,0-24.16,13.13,196,196,0,0,0-22.16,16.15,156.53,156.53,0,0,0-35.2,42l-3-1.52c4.1-8.52,8.62-17,14.41-24.54,2.65-4,5.92-7.46,8.89-11.21,3.32-3.42,6.46-7.05,10.06-10.19,13.92-13.13,30.11-23.64,47.09-32.19a324,324,0,0,1,53-20.58c18-5.42,36.21-10,54.13-15s35.63-10.42,52.55-17.64,33.19-15.92,47.67-27,26.54-25.21,34-41.71c7.26-16.5,9.72-35.57,4.77-53.17Z" transform="translate(-457.11 -381.68)"/><path class="cls-33" d="M1984.27,661.22a60.32,60.32,0,0,1-1.93,28.07,74.86,74.86,0,0,1-13.25,25.11c-12,15-28.57,25.11-45.17,33.2-33.66,16.39-70.26,23.67-105.27,32.77-17.52,4.61-34.89,9.51-51.43,16.31s-32.39,15.1-46.4,25.9a151.6,151.6,0,0,0-19.53,18,138.78,138.78,0,0,0-16.13,21.14,128.8,128.8,0,0,0-18.7,49.84l-3.36-.33c.93-18.56,6.78-36.81,15.7-53.25a150,150,0,0,1,36-42.93c14.56-12,31.12-21.18,48.28-28.42a380.63,380.63,0,0,1,52.82-17c35.56-9,71.34-15.78,104.11-30.41,16.26-7.36,32.07-16.18,43.73-29.3,11.67-12.85,18.68-30.51,17.21-48.2Z" transform="translate(-457.11 -381.68)"/><path class="cls-34" d="M2009.62,550.66c0,37.31-52.5,85.25-117.27,85.25S1775.09,588,1775.09,550.66s52.5-67.55,117.26-67.55S2009.62,513.35,2009.62,550.66Z" transform="translate(-457.11 -381.68)"/><g class="cls-35"><rect class="cls-1" x="1535.58" width="139.67" height="223.19"/><path class="cls-36" d="M2047.46,398.67a21.24,21.24,0,0,1,.69-4.12,10.63,10.63,0,0,0,.76-4.58,5.33,5.33,0,0,0-2.21-4c-.2,1.23-.4,2.46-.59,3.7a2.84,2.84,0,0,1-.44,1.28.93.93,0,0,1-1.22.25,1.37,1.37,0,0,1-.35-.55c-.91-2.1-1.81-4.2-2.72-6.31-.48-1.11-1.1-2.36-2.27-2.69-.32-.1-.17,7.95,0,8.68a18.62,18.62,0,0,0,2.07,5.52c2.2,4.14,2.37,8.07,2.68,12.65s.67,9.45,1.06,14.17c.7,8.79,1.52,17.56,2.52,26.32q.66,5.76,1.45,11.51L2059,458C2054.08,440.49,2050.43,420.33,2047.46,398.67Z" transform="translate(-457.11 -381.68)"/><path class="cls-37" d="M2013.63,562.62c-.57-1.69-2.31-6.19-3.39-5.77,15.65-6.05,31.72-10.22,46.69-18.09l-15.2-13.91a344.45,344.45,0,0,0-33.26,15.73c-3.32,1.78-10.83,4-11.51,8.24-.55,3.44,1.78,6.95,2.6,10.17,1.26,4.92,2.57,9.82,3.83,14.73.37,1.48,5.57,20.13,3.76,20.49a24.08,24.08,0,0,0-13.14,7.21c-3.23,3.55.11,3.82,3.4,3.18a33.33,33.33,0,0,0,9.68-3.8,26.59,26.59,0,0,0,4.67-3.12c2.31-2,.79-8.14,1-10.87.72-7.46,3-16.27,1-23.64C2013.78,563.08,2013.72,562.88,2013.63,562.62Z" transform="translate(-457.11 -381.68)"/><path class="cls-38" d="M2132.29,601.56c-1.95-7.06-8.27-10-13.56-14.17-1.15-.9-2.06-3.19-3.14-4.44l-4-4.68-4.89-5.69-10.42-8.93c-5.64-14.16-14.39-24.75-24.46-34.92l-12,9.43c7.7,12.64,17.43,23.26,30.82,30.25,2.32,3.84,4.26,8.3,6.79,11.89a23.67,23.67,0,0,0,9.36,7.38c3.59,1.64,7.85,2.2,10.45,5.48.9,1.13,1.48,2.49,2.34,3.65a14.31,14.31,0,0,0,4.36,3.56,14.72,14.72,0,0,0,7.66,2.35.94.94,0,0,0,.6-.14C2132.44,602.35,2132.38,601.91,2132.29,601.56Z" transform="translate(-457.11 -381.68)"/><path class="cls-39" d="M2046.62,519.27l23.12,1.58,4.67,10.56a62.16,62.16,0,0,1,13.21,16c-2.39,4.88-8.79,7.57-16.69,6.86l-16.87-13.65-17.93,7.62c-7.76-2-11.66-7.65-14.37-14.39C2027.4,529.93,2038.3,522.1,2046.62,519.27Z" transform="translate(-457.11 -381.68)"/><path class="cls-40" d="M2079,517.9a57.34,57.34,0,0,0,3.11,18.08c1.13,3.22,4.15,8,3.43,11.5a11.21,11.21,0,0,1-.7,2,10.59,10.59,0,0,0-.9,4.56,5.28,5.28,0,0,0,2.07,4c.24-1.22.48-2.45.71-3.67a2.71,2.71,0,0,1,.49-1.27.91.91,0,0,1,1.22-.21,1.27,1.27,0,0,1,.33.56l2.52,6.39c.44,1.13,1,2.4,2.18,2.77.9-4.9.92-10.67-2-14.93-2.17-3.16-2.64-7.36-3.57-11-1.17-4.58-1.3-9.48-1.56-14.18-.12-2.13-.54-4.52-.24-6.61a31.43,31.43,0,0,1,2.32-8.68,73.06,73.06,0,0,0,3.71-13.62c.62-3.12,1.41-6.9-2.19-9.17-4-2.49-6.22,4.07-7,6.69A91.87,91.87,0,0,0,2079,517.9Z" transform="translate(-457.11 -381.68)"/><path class="cls-41" d="M2071.75,465.47c-3.77-2.68-11.52-3.92-12.41-9.52a30.08,30.08,0,0,1-11.84.59c.51,5.49.48,10-1.45,15.29-1.3,3.53-4.7,6.15-5.36,9.93a20,20,0,0,0,.3,5.45c.74,7.15.47,14.85.67,22.12.12,4.7-.62,6.17-.5,10.87-1.5,5.57,29.16,8.3,30.33,4,1.1-4.1.3-5.26.73-9.48.49-4.85-.44-14.55,3.74-17.87,1.72-1.38,3.17-2.7,4.79-4.25a3.13,3.13,0,0,1,1.9-1.1,58.78,58.78,0,0,0,10.77-1.56c-.5-2.59-1-7.67-2.38-9.81-.94-1.44-3.7-2.9-5.08-4.12-1.66-1.47-3.41-2.79-5.2-4.11Z" transform="translate(-457.11 -381.68)"/><path class="cls-42" d="M2082.86,454.41l-2.7,7.34-2.24,6.11c-.51,1.38-.69,2.45-2.05,3.2a6.39,6.39,0,0,1-4.19.8,6.2,6.2,0,0,1-4.15-2.77c-.87-1.38-.65-2.45,0-3.88l6.23-13.42a2.62,2.62,0,0,1,2.79-1.5l4.22.66A2.63,2.63,0,0,1,2082.86,454.41Z" transform="translate(-457.11 -381.68)"/><path class="cls-43" d="M2094.38,452a5.28,5.28,0,0,1,0,2.26,11.71,11.71,0,0,1-3.75,6.45c-1.63,1.39-3.65,2.28-5.19,3.76s-2.52,3.95-1.37,5.76c.73,1.15,2.24,1.89,2.4,3.25a4.26,4.26,0,0,1-.6,2.22,9.86,9.86,0,0,0-.95,5.66,5.62,5.62,0,0,0,3.42,4.4c2.06.72,4.86.12,6,2a13.11,13.11,0,0,1,.79,2.23c.9,2.22,3.65,3,6,3,11-.07,17.72-10.84,15.1-20.92a11.22,11.22,0,0,0-1.56-3.6c-1.19-1.72-3-2.93-4.33-4.51-3.49-4.05-4.86-9.33-8.26-13.28a12.36,12.36,0,0,0-6.94-4c-.94-.2-1.73.87-1.7,1.83A16,16,0,0,0,2094.38,452Z" transform="translate(-457.11 -381.68)"/><path class="cls-44" d="M2082.75,435.89s-6,.49-12.15,6.95-4.6,10.88-1.39,12.48,8.29,3.19,15.26,0S2090.51,435.51,2082.75,435.89Z" transform="translate(-457.11 -381.68)"/><path class="cls-45" d="M2082.23,450.06s7.69-9.87-2.19-13.28l-2.87.86s-1.6-7.4,5.35-8.39,13.14,3.76,13,12.65-1.46,14.42-7,16.88-5.8-2.49-5.8-2.49,3.49-2.84,3.19-5.08-3.24-.62-3.24-.62Z" transform="translate(-457.11 -381.68)"/><path class="cls-46" d="M2082.93,451.67s3.92-5.09,5.86-1.91-3.95,4.6-6.18,4.95Z" transform="translate(-457.11 -381.68)"/><rect class="cls-1" x="1535.58" y="223.19" width="139.67" height="223.19"/><path class="cls-47" d="M2047.46,621.86a21.24,21.24,0,0,1,.69-4.12,10.65,10.65,0,0,0,.76-4.59,5.31,5.31,0,0,0-2.21-3.95c-.2,1.23-.4,2.46-.59,3.69a2.84,2.84,0,0,1-.44,1.29.94.94,0,0,1-1.22.25,1.44,1.44,0,0,1-.35-.55c-.91-2.1-1.81-4.2-2.72-6.31-.48-1.12-1.1-2.36-2.27-2.7-.32-.09-.17,8,0,8.69a18.62,18.62,0,0,0,2.07,5.52c2.2,4.13,2.37,8.06,2.68,12.64s.67,9.46,1.06,14.18c.7,8.78,1.52,17.56,2.52,26.31q.66,5.77,1.45,11.51l10.11-2.57C2054.08,663.67,2050.43,643.52,2047.46,621.86Z" transform="translate(-457.11 -381.68)"/><path class="cls-48" d="M2013.63,785.81c-.57-1.69-2.31-6.19-3.39-5.77,15.65-6,31.72-10.22,46.69-18.09L2041.73,748a346.92,346.92,0,0,0-33.26,15.74c-3.32,1.78-10.83,4-11.51,8.23-.55,3.45,1.78,7,2.6,10.18,1.26,4.91,2.57,9.82,3.83,14.73.37,1.48,5.57,20.13,3.76,20.48A24.2,24.2,0,0,0,1994,824.6c-3.23,3.56.11,3.83,3.4,3.19a33.61,33.61,0,0,0,9.68-3.8,27.15,27.15,0,0,0,4.67-3.12c2.31-2,.79-8.14,1-10.88.72-7.45,3-16.26,1-23.63C2013.78,786.26,2013.72,786.07,2013.63,785.81Z" transform="translate(-457.11 -381.68)"/><path class="cls-49" d="M2132.29,824.75c-1.95-7.07-8.27-10-13.56-14.17-1.15-.9-2.06-3.2-3.14-4.44l-4-4.69-4.89-5.68-10.42-8.94c-5.64-14.16-14.39-24.74-24.46-34.91l-12,9.42c7.7,12.65,17.43,23.27,30.82,30.26,2.32,3.84,4.26,8.3,6.79,11.89a23.56,23.56,0,0,0,9.36,7.37c3.59,1.65,7.85,2.21,10.45,5.49.9,1.13,1.48,2.48,2.34,3.65a14.31,14.31,0,0,0,4.36,3.56,14.72,14.72,0,0,0,7.66,2.35.89.89,0,0,0,.6-.15C2132.44,825.54,2132.38,825.1,2132.29,824.75Z" transform="translate(-457.11 -381.68)"/><path class="cls-50" d="M2046.62,742.45l23.12,1.59,4.67,10.56a62.16,62.16,0,0,1,13.21,16c-2.39,4.88-8.79,7.56-16.69,6.86l-16.87-13.65-17.93,7.62c-7.76-2-11.66-7.65-14.37-14.4C2027.4,753.11,2038.3,745.29,2046.62,742.45Z" transform="translate(-457.11 -381.68)"/><path class="cls-51" d="M2079,741.08a57.4,57.4,0,0,0,3.11,18.09c1.13,3.22,4.15,8,3.43,11.49a11.31,11.31,0,0,1-.7,2,10.57,10.57,0,0,0-.9,4.55,5.3,5.3,0,0,0,2.07,4c.24-1.23.48-2.45.71-3.68a2.63,2.63,0,0,1,.49-1.26.91.91,0,0,1,1.22-.21,1.29,1.29,0,0,1,.33.55l2.52,6.4c.44,1.13,1,2.4,2.18,2.77.9-4.9.92-10.67-2-14.93-2.17-3.16-2.64-7.36-3.57-11-1.17-4.58-1.3-9.48-1.56-14.18-.12-2.14-.54-4.52-.24-6.61a31.5,31.5,0,0,1,2.32-8.69,72.64,72.64,0,0,0,3.71-13.62c.62-3.12,1.41-6.89-2.19-9.16-4-2.49-6.22,4.06-7,6.69A91.86,91.86,0,0,0,2079,741.08Z" transform="translate(-457.11 -381.68)"/><path class="cls-52" d="M2071.75,688.66c-3.77-2.68-11.52-3.92-12.41-9.52a30.08,30.08,0,0,1-11.84.59c.51,5.49.48,10-1.45,15.29-1.3,3.52-4.7,6.15-5.36,9.93a19.93,19.93,0,0,0,.3,5.44c.74,7.16.47,14.86.67,22.13.12,4.69-.62,6.16-.5,10.86-1.5,5.58,29.16,8.31,30.33,4,1.1-4.09.3-5.25.73-9.48.49-4.85-.44-14.54,3.74-17.87,1.72-1.37,3.17-2.69,4.79-4.24a3.09,3.09,0,0,1,1.9-1.1,58.78,58.78,0,0,0,10.77-1.56c-.5-2.59-1-7.68-2.38-9.81-.94-1.45-3.7-2.9-5.08-4.13-1.66-1.46-3.41-2.78-5.2-4.1Z" transform="translate(-457.11 -381.68)"/><path class="cls-53" d="M2082.86,677.6l-2.7,7.34-2.24,6.11c-.51,1.38-.69,2.45-2.05,3.2a6.39,6.39,0,0,1-4.19.8,6.21,6.21,0,0,1-4.15-2.78c-.87-1.38-.65-2.44,0-3.87l6.23-13.42a2.62,2.62,0,0,1,2.79-1.5l4.22.65A2.64,2.64,0,0,1,2082.86,677.6Z" transform="translate(-457.11 -381.68)"/><path class="cls-54" d="M2094.38,675.14a5.28,5.28,0,0,1,0,2.26,11.74,11.74,0,0,1-3.75,6.45c-1.63,1.39-3.65,2.28-5.19,3.76s-2.52,3.95-1.37,5.75c.73,1.16,2.24,1.9,2.4,3.26a4.2,4.2,0,0,1-.6,2.21,9.91,9.91,0,0,0-.95,5.67,5.59,5.59,0,0,0,3.42,4.39c2.06.73,4.86.13,6,2a13.11,13.11,0,0,1,.79,2.23c.9,2.21,3.65,3,6,3,11-.07,17.72-10.84,15.1-20.92a11.22,11.22,0,0,0-1.56-3.6c-1.19-1.72-3-2.93-4.33-4.51-3.49-4-4.86-9.33-8.26-13.29a12.48,12.48,0,0,0-6.94-4c-.94-.19-1.73.88-1.7,1.84A16,16,0,0,0,2094.38,675.14Z" transform="translate(-457.11 -381.68)"/><path class="cls-55" d="M2082.75,659.08s-6,.49-12.15,6.95-4.6,10.87-1.39,12.47,8.29,3.19,15.26,0S2090.51,658.7,2082.75,659.08Z" transform="translate(-457.11 -381.68)"/><path class="cls-56" d="M2082.23,673.25s7.69-9.87-2.19-13.28l-2.87.86s-1.6-7.4,5.35-8.39,13.14,3.76,13,12.65-1.46,14.42-7,16.87-5.8-2.48-5.8-2.48,3.49-2.84,3.19-5.08-3.24-.63-3.24-.63Z" transform="translate(-457.11 -381.68)"/><path class="cls-57" d="M2082.93,674.86s3.92-5.1,5.86-1.91-3.95,4.6-6.18,4.95Z" transform="translate(-457.11 -381.68)"/><rect class="cls-1" x="1395.92" width="139.67" height="223.19"/><path class="cls-58" d="M1907.79,398.67a21.24,21.24,0,0,1,.69-4.12,10.63,10.63,0,0,0,.76-4.58,5.3,5.3,0,0,0-2.21-4c-.2,1.23-.39,2.46-.59,3.7A2.72,2.72,0,0,1,1906,391a.92.92,0,0,1-1.22.25,1.37,1.37,0,0,1-.35-.55c-.91-2.1-1.81-4.2-2.72-6.31-.48-1.11-1.1-2.36-2.27-2.69-.32-.1-.17,7.95,0,8.68a18.9,18.9,0,0,0,2.07,5.52c2.2,4.14,2.37,8.07,2.69,12.65s.67,9.45,1,14.17c.71,8.79,1.52,17.56,2.52,26.32.45,3.84.92,7.68,1.45,11.51l10.11-2.57C1914.41,440.49,1910.76,420.33,1907.79,398.67Z" transform="translate(-457.11 -381.68)"/><path class="cls-59" d="M1874,562.62c-.57-1.69-2.31-6.19-3.38-5.77,15.65-6.05,31.71-10.22,46.68-18.09l-15.19-13.91a343.5,343.5,0,0,0-33.27,15.73c-3.32,1.78-10.83,4-11.51,8.24-.55,3.44,1.78,6.95,2.6,10.17,1.26,4.92,2.57,9.82,3.83,14.73.38,1.48,5.57,20.13,3.76,20.49a24.08,24.08,0,0,0-13.14,7.21c-3.23,3.55.12,3.82,3.4,3.18a33.22,33.22,0,0,0,9.68-3.8,26.59,26.59,0,0,0,4.67-3.12c2.31-2,.79-8.14,1.05-10.87.72-7.46,3-16.27,1-23.64C1874.11,563.08,1874.05,562.88,1874,562.62Z" transform="translate(-457.11 -381.68)"/><path class="cls-60" d="M1992.62,601.56c-1.95-7.06-8.27-10-13.55-14.17-1.16-.9-2.07-3.19-3.14-4.44l-4-4.68-4.89-5.69-10.42-8.93c-5.64-14.16-14.39-24.75-24.45-34.92l-12,9.43c7.7,12.64,17.43,23.26,30.83,30.25,2.31,3.84,4.25,8.3,6.78,11.89a23.67,23.67,0,0,0,9.36,7.38c3.59,1.64,7.85,2.2,10.45,5.48.9,1.13,1.49,2.49,2.34,3.65a14.31,14.31,0,0,0,4.36,3.56,14.72,14.72,0,0,0,7.66,2.35,1,1,0,0,0,.61-.14C1992.77,602.35,1992.72,601.91,1992.62,601.56Z" transform="translate(-457.11 -381.68)"/><path class="cls-61" d="M1907,519.27l23.13,1.58,4.66,10.56a62.16,62.16,0,0,1,13.21,16c-2.39,4.88-8.79,7.57-16.69,6.86l-16.87-13.65-17.93,7.62c-7.76-2-11.66-7.65-14.37-14.39C1887.73,529.93,1898.64,522.1,1907,519.27Z" transform="translate(-457.11 -381.68)"/><path class="cls-62" d="M1939.35,517.9a57.34,57.34,0,0,0,3.11,18.08c1.14,3.22,4.15,8,3.44,11.5a13.06,13.06,0,0,1-.7,2,10.6,10.6,0,0,0-.91,4.56,5.28,5.28,0,0,0,2.07,4l.72-3.67a2.59,2.59,0,0,1,.48-1.27.91.91,0,0,1,1.22-.21,1.27,1.27,0,0,1,.33.56l2.52,6.39c.44,1.13,1,2.4,2.18,2.77.9-4.9.92-10.67-2-14.93-2.17-3.16-2.65-7.36-3.58-11-1.17-4.58-1.3-9.48-1.56-14.18a35.79,35.79,0,0,1-.24-6.61,31.78,31.78,0,0,1,2.32-8.68,73.06,73.06,0,0,0,3.71-13.62c.63-3.12,1.42-6.9-2.19-9.17-4-2.49-6.22,4.07-7,6.69A91.87,91.87,0,0,0,1939.35,517.9Z" transform="translate(-457.11 -381.68)"/><path class="cls-63" d="M1932.08,465.47c-3.77-2.68-11.52-3.92-12.41-9.52a30.08,30.08,0,0,1-11.84.59c.51,5.49.48,10-1.45,15.29-1.29,3.53-4.7,6.15-5.36,9.93a20.43,20.43,0,0,0,.3,5.45c.75,7.15.48,14.85.67,22.12.12,4.7-.62,6.17-.5,10.87-1.5,5.57,29.16,8.3,30.33,4,1.1-4.1.3-5.26.73-9.48.49-4.85-.44-14.55,3.74-17.87,1.73-1.38,3.17-2.7,4.79-4.25a3.13,3.13,0,0,1,1.91-1.1,59,59,0,0,0,10.77-1.56c-.5-2.59-1-7.67-2.39-9.81-.94-1.44-3.7-2.9-5.08-4.12-1.66-1.47-3.4-2.79-5.2-4.11Z" transform="translate(-457.11 -381.68)"/><path class="cls-64" d="M1943.19,454.41c-.9,2.45-1.79,4.9-2.69,7.34l-2.25,6.11c-.5,1.38-.69,2.45-2,3.2a6.43,6.43,0,0,1-4.2.8,6.2,6.2,0,0,1-4.15-2.77c-.87-1.38-.65-2.45,0-3.88,0-.1,6.22-13.42,6.22-13.42a2.62,2.62,0,0,1,2.79-1.5l4.22.66A2.63,2.63,0,0,1,1943.19,454.41Z" transform="translate(-457.11 -381.68)"/><path class="cls-65" d="M1954.71,452a5.28,5.28,0,0,1,0,2.26,11.71,11.71,0,0,1-3.75,6.45c-1.63,1.39-3.65,2.28-5.19,3.76s-2.52,3.95-1.37,5.76c.74,1.15,2.24,1.89,2.41,3.25a4.37,4.37,0,0,1-.61,2.22,9.86,9.86,0,0,0-1,5.66,5.64,5.64,0,0,0,3.42,4.4c2.06.72,4.87.12,6,2a13.14,13.14,0,0,1,.8,2.23c.9,2.22,3.64,3,6,3,11-.07,17.72-10.84,15.1-20.92a11.22,11.22,0,0,0-1.56-3.6c-1.18-1.72-3-2.93-4.32-4.51-3.5-4.05-4.87-9.33-8.27-13.28a12.36,12.36,0,0,0-6.94-4c-.94-.2-1.73.87-1.7,1.83A16,16,0,0,0,1954.71,452Z" transform="translate(-457.11 -381.68)"/><path class="cls-66" d="M1943.08,435.89s-6,.49-12.15,6.95-4.6,10.88-1.39,12.48,8.29,3.19,15.26,0S1950.84,435.51,1943.08,435.89Z" transform="translate(-457.11 -381.68)"/><path class="cls-67" d="M1942.56,450.06s7.69-9.87-2.19-13.28l-2.87.86s-1.59-7.4,5.36-8.39,13.13,3.76,13,12.65-1.46,14.42-7,16.88-5.8-2.49-5.8-2.49,3.49-2.84,3.19-5.08-3.23-.62-3.23-.62Z" transform="translate(-457.11 -381.68)"/><path class="cls-68" d="M1943.26,451.67s3.92-5.09,5.86-1.91-3.95,4.6-6.18,4.95Z" transform="translate(-457.11 -381.68)"/><rect class="cls-1" x="1395.92" y="223.19" width="139.67" height="223.19"/><path class="cls-69" d="M1907.79,621.86a21.24,21.24,0,0,1,.69-4.12,10.65,10.65,0,0,0,.76-4.59,5.28,5.28,0,0,0-2.21-3.95c-.2,1.23-.39,2.46-.59,3.69a2.72,2.72,0,0,1-.44,1.29.93.93,0,0,1-1.22.25,1.44,1.44,0,0,1-.35-.55c-.91-2.1-1.81-4.2-2.72-6.31-.48-1.12-1.1-2.36-2.27-2.7-.32-.09-.17,8,0,8.69a18.9,18.9,0,0,0,2.07,5.52c2.2,4.13,2.37,8.06,2.69,12.64s.67,9.46,1,14.18c.71,8.78,1.52,17.56,2.52,26.31.45,3.85.92,7.68,1.45,11.51l10.11-2.57C1914.41,663.67,1910.76,643.52,1907.79,621.86Z" transform="translate(-457.11 -381.68)"/><path class="cls-70" d="M1874,785.81c-.57-1.69-2.31-6.19-3.38-5.77,15.65-6,31.71-10.22,46.68-18.09L1902.07,748a346,346,0,0,0-33.27,15.74c-3.32,1.78-10.83,4-11.51,8.23-.55,3.45,1.78,7,2.6,10.18,1.26,4.91,2.57,9.82,3.83,14.73.38,1.48,5.57,20.13,3.76,20.48a24.2,24.2,0,0,0-13.14,7.21c-3.23,3.56.12,3.83,3.4,3.19a33.5,33.5,0,0,0,9.68-3.8,27.15,27.15,0,0,0,4.67-3.12c2.31-2,.79-8.14,1.05-10.88.72-7.45,3-16.26,1-23.63C1874.11,786.26,1874.05,786.07,1874,785.81Z" transform="translate(-457.11 -381.68)"/><path class="cls-71" d="M1992.62,824.75c-1.95-7.07-8.27-10-13.55-14.17-1.16-.9-2.07-3.2-3.14-4.44q-2-2.34-4-4.69l-4.89-5.68-10.42-8.94c-5.64-14.16-14.39-24.74-24.45-34.91l-12,9.42c7.7,12.65,17.43,23.27,30.83,30.26,2.31,3.84,4.25,8.3,6.78,11.89a23.56,23.56,0,0,0,9.36,7.37c3.59,1.65,7.85,2.21,10.45,5.49.9,1.13,1.49,2.48,2.34,3.65a14.31,14.31,0,0,0,4.36,3.56,14.72,14.72,0,0,0,7.66,2.35.92.92,0,0,0,.61-.15C1992.77,825.54,1992.72,825.1,1992.62,824.75Z" transform="translate(-457.11 -381.68)"/><path class="cls-72" d="M1907,742.45l23.13,1.59,4.66,10.56a62.16,62.16,0,0,1,13.21,16c-2.39,4.88-8.79,7.56-16.69,6.86l-16.87-13.65-17.93,7.62c-7.76-2-11.66-7.65-14.37-14.4C1887.73,753.11,1898.64,745.29,1907,742.45Z" transform="translate(-457.11 -381.68)"/><path class="cls-73" d="M1939.35,741.08a57.4,57.4,0,0,0,3.11,18.09c1.14,3.22,4.15,8,3.44,11.49a13.18,13.18,0,0,1-.7,2,10.58,10.58,0,0,0-.91,4.55,5.3,5.3,0,0,0,2.07,4l.72-3.68a2.52,2.52,0,0,1,.48-1.26.91.91,0,0,1,1.22-.21,1.29,1.29,0,0,1,.33.55l2.52,6.4c.44,1.13,1,2.4,2.18,2.77.9-4.9.92-10.67-2-14.93-2.17-3.16-2.65-7.36-3.58-11-1.17-4.58-1.3-9.48-1.56-14.18a35.83,35.83,0,0,1-.24-6.61,31.85,31.85,0,0,1,2.32-8.69,72.64,72.64,0,0,0,3.71-13.62c.63-3.12,1.42-6.89-2.19-9.16-4-2.49-6.22,4.06-7,6.69A91.86,91.86,0,0,0,1939.35,741.08Z" transform="translate(-457.11 -381.68)"/><path class="cls-74" d="M1932.08,688.66c-3.77-2.68-11.52-3.92-12.41-9.52a30.08,30.08,0,0,1-11.84.59c.51,5.49.48,10-1.45,15.29-1.29,3.52-4.7,6.15-5.36,9.93a20.34,20.34,0,0,0,.3,5.44c.75,7.16.48,14.86.67,22.13.12,4.69-.62,6.16-.5,10.86-1.5,5.58,29.16,8.31,30.33,4,1.1-4.09.3-5.25.73-9.48.49-4.85-.44-14.54,3.74-17.87,1.73-1.37,3.17-2.69,4.79-4.24a3.08,3.08,0,0,1,1.91-1.1,59,59,0,0,0,10.77-1.56c-.5-2.59-1-7.68-2.39-9.81-.94-1.45-3.7-2.9-5.08-4.13-1.66-1.46-3.4-2.78-5.2-4.1Z" transform="translate(-457.11 -381.68)"/><path class="cls-75" d="M1943.19,677.6l-2.69,7.34-2.25,6.11c-.5,1.38-.69,2.45-2,3.2a6.43,6.43,0,0,1-4.2.8,6.21,6.21,0,0,1-4.15-2.78c-.87-1.38-.65-2.44,0-3.87,0-.1,6.22-13.42,6.22-13.42a2.62,2.62,0,0,1,2.79-1.5l4.22.65A2.64,2.64,0,0,1,1943.19,677.6Z" transform="translate(-457.11 -381.68)"/><path class="cls-76" d="M1954.71,675.14a5.28,5.28,0,0,1,0,2.26,11.74,11.74,0,0,1-3.75,6.45c-1.63,1.39-3.65,2.28-5.19,3.76s-2.52,3.95-1.37,5.75c.74,1.16,2.24,1.9,2.41,3.26a4.31,4.31,0,0,1-.61,2.21,9.91,9.91,0,0,0-1,5.67,5.61,5.61,0,0,0,3.42,4.39c2.06.73,4.87.13,6,2a13.14,13.14,0,0,1,.8,2.23c.9,2.21,3.64,3,6,3,11-.07,17.72-10.84,15.1-20.92a11.22,11.22,0,0,0-1.56-3.6c-1.18-1.72-3-2.93-4.32-4.51-3.5-4-4.87-9.33-8.27-13.29a12.48,12.48,0,0,0-6.94-4c-.94-.19-1.73.88-1.7,1.84A16,16,0,0,0,1954.71,675.14Z" transform="translate(-457.11 -381.68)"/><path class="cls-77" d="M1943.08,659.08s-6,.49-12.15,6.95-4.6,10.87-1.39,12.47,8.29,3.19,15.26,0S1950.84,658.7,1943.08,659.08Z" transform="translate(-457.11 -381.68)"/><path class="cls-78" d="M1942.56,673.25s7.69-9.87-2.19-13.28l-2.87.86s-1.59-7.4,5.36-8.39,13.13,3.76,13,12.65-1.46,14.42-7,16.87-5.8-2.48-5.8-2.48,3.49-2.84,3.19-5.08-3.23-.63-3.23-.63Z" transform="translate(-457.11 -381.68)"/><path class="cls-79" d="M1943.26,674.86s3.92-5.1,5.86-1.91-3.95,4.6-6.18,4.95Z" transform="translate(-457.11 -381.68)"/><rect class="cls-1" x="1256.25" width="139.67" height="223.19"/><path class="cls-80" d="M1768.13,398.67a21.22,21.22,0,0,1,.68-4.12,10.63,10.63,0,0,0,.76-4.58,5.27,5.27,0,0,0-2.21-4c-.19,1.23-.39,2.46-.59,3.7a2.62,2.62,0,0,1-.44,1.28.91.91,0,0,1-1.21.25,1.29,1.29,0,0,1-.36-.55q-1.35-3.15-2.72-6.31c-.48-1.11-1.1-2.36-2.27-2.69-.32-.1-.17,7.95,0,8.68a19.19,19.19,0,0,0,2.07,5.52c2.21,4.14,2.37,8.07,2.69,12.65s.67,9.45,1,14.17c.71,8.79,1.52,17.56,2.53,26.32.44,3.84.91,7.68,1.44,11.51l10.11-2.57C1774.74,440.49,1771.09,420.33,1768.13,398.67Z" transform="translate(-457.11 -381.68)"/><path class="cls-81" d="M1734.29,562.62c-.57-1.69-2.3-6.19-3.38-5.77,15.65-6.05,31.71-10.22,46.68-18.09l-15.19-13.91a343.33,343.33,0,0,0-33.26,15.73c-3.33,1.78-10.84,4-11.52,8.24-.55,3.44,1.78,6.95,2.61,10.17,1.25,4.92,2.56,9.82,3.82,14.73.38,1.48,5.57,20.13,3.76,20.49a24.11,24.11,0,0,0-13.14,7.21c-3.23,3.55.12,3.82,3.4,3.18a33.22,33.22,0,0,0,9.68-3.8,26.59,26.59,0,0,0,4.67-3.12c2.31-2,.79-8.14,1.06-10.87.71-7.46,3-16.27,1-23.64C1734.45,563.08,1734.38,562.88,1734.29,562.62Z" transform="translate(-457.11 -381.68)"/><path class="cls-82" d="M1853,601.56c-1.94-7.06-8.27-10-13.55-14.17-1.16-.9-2.07-3.19-3.14-4.44l-4-4.68c-1.63-1.9-3.26-3.79-4.88-5.69l-10.43-8.93c-5.64-14.16-14.39-24.75-24.45-34.92l-12,9.43c7.7,12.64,17.44,23.26,30.83,30.25,2.31,3.84,4.25,8.3,6.79,11.89a23.64,23.64,0,0,0,9.35,7.38c3.59,1.64,7.85,2.2,10.46,5.48.89,1.13,1.48,2.49,2.33,3.65a14.31,14.31,0,0,0,4.36,3.56,14.73,14.73,0,0,0,7.67,2.35,1,1,0,0,0,.6-.14C1853.1,602.35,1853.05,601.91,1853,601.56Z" transform="translate(-457.11 -381.68)"/><path class="cls-83" d="M1767.28,519.27l23.13,1.58,4.66,10.56a62.41,62.41,0,0,1,13.22,16c-2.39,4.88-8.8,7.57-16.7,6.86l-16.86-13.65-17.94,7.62c-7.76-2-11.65-7.65-14.37-14.39C1748.07,529.93,1759,522.1,1767.28,519.27Z" transform="translate(-457.11 -381.68)"/><path class="cls-84" d="M1799.68,517.9A57.07,57.07,0,0,0,1802.8,536c1.13,3.22,4.14,8,3.43,11.5a12.07,12.07,0,0,1-.7,2,10.6,10.6,0,0,0-.91,4.56,5.26,5.26,0,0,0,2.08,4c.23-1.22.47-2.45.71-3.67a2.69,2.69,0,0,1,.48-1.27.91.91,0,0,1,1.22-.21,1.28,1.28,0,0,1,.34.56q1.24,3.19,2.51,6.39c.44,1.13,1,2.4,2.18,2.77.9-4.9.92-10.67-2-14.93-2.17-3.16-2.65-7.36-3.58-11-1.17-4.58-1.3-9.48-1.56-14.18a35.79,35.79,0,0,1-.24-6.61,31.45,31.45,0,0,1,2.33-8.68,73.81,73.81,0,0,0,3.7-13.62c.63-3.12,1.42-6.9-2.19-9.17-4-2.49-6.22,4.07-7,6.69A91.87,91.87,0,0,0,1799.68,517.9Z" transform="translate(-457.11 -381.68)"/><path class="cls-85" d="M1792.41,465.47c-3.77-2.68-11.52-3.92-12.41-9.52a30,30,0,0,1-11.83.59c.5,5.49.48,10-1.46,15.29-1.29,3.53-4.7,6.15-5.35,9.93a19.64,19.64,0,0,0,.3,5.45c.74,7.15.47,14.85.66,22.12.13,4.7-.62,6.17-.49,10.87-1.51,5.57,29.15,8.3,30.32,4,1.1-4.1.3-5.26.73-9.48.5-4.85-.44-14.55,3.74-17.87,1.73-1.38,3.17-2.7,4.79-4.25a3.16,3.16,0,0,1,1.91-1.1,59,59,0,0,0,10.77-1.56c-.5-2.59-1-7.67-2.39-9.81-.93-1.44-3.69-2.9-5.08-4.12-1.66-1.47-3.4-2.79-5.19-4.11Z" transform="translate(-457.11 -381.68)"/><path class="cls-86" d="M1803.53,454.41l-2.7,7.34-2.25,6.11c-.5,1.38-.69,2.45-2,3.2a6.43,6.43,0,0,1-4.2.8,6.2,6.2,0,0,1-4.15-2.77c-.87-1.38-.65-2.45,0-3.88,0-.1,6.22-13.42,6.22-13.42a2.62,2.62,0,0,1,2.79-1.5l4.22.66A2.64,2.64,0,0,1,1803.53,454.41Z" transform="translate(-457.11 -381.68)"/><path class="cls-87" d="M1815,452a5.28,5.28,0,0,1,0,2.26,11.71,11.71,0,0,1-3.75,6.45c-1.62,1.39-3.65,2.28-5.19,3.76s-2.52,3.95-1.37,5.76c.74,1.15,2.24,1.89,2.41,3.25a4.37,4.37,0,0,1-.61,2.22,9.86,9.86,0,0,0-1,5.66,5.64,5.64,0,0,0,3.42,4.4c2.06.72,4.87.12,6,2a14,14,0,0,1,.79,2.23c.9,2.22,3.64,3,6,3,11-.07,17.73-10.84,15.1-20.92a11.22,11.22,0,0,0-1.56-3.6c-1.18-1.72-3-2.93-4.32-4.51-3.5-4.05-4.87-9.33-8.27-13.28a12.33,12.33,0,0,0-6.94-4c-.94-.2-1.73.87-1.69,1.83A16,16,0,0,0,1815,452Z" transform="translate(-457.11 -381.68)"/><path class="cls-88" d="M1803.41,435.89s-6,.49-12.15,6.95-4.6,10.88-1.38,12.48,8.28,3.19,15.25,0S1811.17,435.51,1803.41,435.89Z" transform="translate(-457.11 -381.68)"/><path class="cls-89" d="M1802.89,450.06s7.69-9.87-2.19-13.28l-2.87.86s-1.59-7.4,5.36-8.39,13.13,3.76,13,12.65-1.46,14.42-7,16.88-5.8-2.49-5.8-2.49,3.49-2.84,3.19-5.08-3.23-.62-3.23-.62Z" transform="translate(-457.11 -381.68)"/><path class="cls-90" d="M1803.59,451.67s3.93-5.09,5.86-1.91-4,4.6-6.18,4.95Z" transform="translate(-457.11 -381.68)"/><rect class="cls-1" x="1256.25" y="223.19" width="139.67" height="223.19"/><path class="cls-91" d="M1768.13,621.86a21.22,21.22,0,0,1,.68-4.12,10.65,10.65,0,0,0,.76-4.59,5.25,5.25,0,0,0-2.21-3.95c-.19,1.23-.39,2.46-.59,3.69a2.62,2.62,0,0,1-.44,1.29.92.92,0,0,1-1.21.25,1.35,1.35,0,0,1-.36-.55q-1.35-3.15-2.72-6.31c-.48-1.12-1.1-2.36-2.27-2.7-.32-.09-.17,8,0,8.69a19.19,19.19,0,0,0,2.07,5.52c2.21,4.13,2.37,8.06,2.69,12.64s.67,9.46,1,14.18c.71,8.78,1.52,17.56,2.53,26.31.44,3.85.91,7.68,1.44,11.51l10.11-2.57C1774.74,663.67,1771.09,643.52,1768.13,621.86Z" transform="translate(-457.11 -381.68)"/><path class="cls-92" d="M1734.29,785.81c-.57-1.69-2.3-6.19-3.38-5.77,15.65-6,31.71-10.22,46.68-18.09L1762.4,748a345.79,345.79,0,0,0-33.26,15.74c-3.33,1.78-10.84,4-11.52,8.23-.55,3.45,1.78,7,2.61,10.18,1.25,4.91,2.56,9.82,3.82,14.73.38,1.48,5.57,20.13,3.76,20.48a24.24,24.24,0,0,0-13.14,7.21c-3.23,3.56.12,3.83,3.4,3.19a33.5,33.5,0,0,0,9.68-3.8,27.15,27.15,0,0,0,4.67-3.12c2.31-2,.79-8.14,1.06-10.88.71-7.45,3-16.26,1-23.63C1734.45,786.26,1734.38,786.07,1734.29,785.81Z" transform="translate(-457.11 -381.68)"/><path class="cls-93" d="M1853,824.75c-1.94-7.07-8.27-10-13.55-14.17-1.16-.9-2.07-3.2-3.14-4.44-1.34-1.56-2.69-3.12-4-4.69q-2.45-2.84-4.88-5.68l-10.43-8.94c-5.64-14.16-14.39-24.74-24.45-34.91l-12,9.42c7.7,12.65,17.44,23.27,30.83,30.26,2.31,3.84,4.25,8.3,6.79,11.89a23.53,23.53,0,0,0,9.35,7.37c3.59,1.65,7.85,2.21,10.46,5.49.89,1.13,1.48,2.48,2.33,3.65a14.31,14.31,0,0,0,4.36,3.56,14.73,14.73,0,0,0,7.67,2.35.9.9,0,0,0,.6-.15C1853.1,825.54,1853.05,825.1,1853,824.75Z" transform="translate(-457.11 -381.68)"/><path class="cls-94" d="M1767.28,742.45l23.13,1.59,4.66,10.56a62.41,62.41,0,0,1,13.22,16c-2.39,4.88-8.8,7.56-16.7,6.86l-16.86-13.65-17.94,7.62c-7.76-2-11.65-7.65-14.37-14.4C1748.07,753.11,1759,745.29,1767.28,742.45Z" transform="translate(-457.11 -381.68)"/><path class="cls-95" d="M1799.68,741.08a57.13,57.13,0,0,0,3.12,18.09c1.13,3.22,4.14,8,3.43,11.49a12.17,12.17,0,0,1-.7,2,10.58,10.58,0,0,0-.91,4.55,5.28,5.28,0,0,0,2.08,4c.23-1.23.47-2.45.71-3.68a2.62,2.62,0,0,1,.48-1.26.91.91,0,0,1,1.22-.21,1.31,1.31,0,0,1,.34.55q1.24,3.21,2.51,6.4c.44,1.13,1,2.4,2.18,2.77.9-4.9.92-10.67-2-14.93-2.17-3.16-2.65-7.36-3.58-11-1.17-4.58-1.3-9.48-1.56-14.18a35.83,35.83,0,0,1-.24-6.61,31.52,31.52,0,0,1,2.33-8.69,73.38,73.38,0,0,0,3.7-13.62c.63-3.12,1.42-6.89-2.19-9.16-4-2.49-6.22,4.06-7,6.69A91.86,91.86,0,0,0,1799.68,741.08Z" transform="translate(-457.11 -381.68)"/><path class="cls-96" d="M1792.41,688.66c-3.77-2.68-11.52-3.92-12.41-9.52a30,30,0,0,1-11.83.59c.5,5.49.48,10-1.46,15.29-1.29,3.52-4.7,6.15-5.35,9.93a19.55,19.55,0,0,0,.3,5.44c.74,7.16.47,14.86.66,22.13.13,4.69-.62,6.16-.49,10.86-1.51,5.58,29.15,8.31,30.32,4,1.1-4.09.3-5.25.73-9.48.5-4.85-.44-14.54,3.74-17.87,1.73-1.37,3.17-2.69,4.79-4.24a3.11,3.11,0,0,1,1.91-1.1,59,59,0,0,0,10.77-1.56c-.5-2.59-1-7.68-2.39-9.81-.93-1.45-3.69-2.9-5.08-4.13-1.66-1.46-3.4-2.78-5.19-4.1Z" transform="translate(-457.11 -381.68)"/><path class="cls-97" d="M1803.53,677.6l-2.7,7.34-2.25,6.11c-.5,1.38-.69,2.45-2,3.2a6.43,6.43,0,0,1-4.2.8,6.21,6.21,0,0,1-4.15-2.78c-.87-1.38-.65-2.44,0-3.87,0-.1,6.22-13.42,6.22-13.42a2.62,2.62,0,0,1,2.79-1.5l4.22.65A2.65,2.65,0,0,1,1803.53,677.6Z" transform="translate(-457.11 -381.68)"/><path class="cls-98" d="M1815,675.14a5.28,5.28,0,0,1,0,2.26,11.74,11.74,0,0,1-3.75,6.45c-1.62,1.39-3.65,2.28-5.19,3.76s-2.52,3.95-1.37,5.75c.74,1.16,2.24,1.9,2.41,3.26a4.31,4.31,0,0,1-.61,2.21,9.91,9.91,0,0,0-1,5.67,5.61,5.61,0,0,0,3.42,4.39c2.06.73,4.87.13,6,2a14,14,0,0,1,.79,2.23c.9,2.21,3.64,3,6,3,11-.07,17.73-10.84,15.1-20.92a11.22,11.22,0,0,0-1.56-3.6c-1.18-1.72-3-2.93-4.32-4.51-3.5-4-4.87-9.33-8.27-13.29a12.44,12.44,0,0,0-6.94-4c-.94-.19-1.73.88-1.69,1.84A16,16,0,0,0,1815,675.14Z" transform="translate(-457.11 -381.68)"/><path class="cls-99" d="M1803.41,659.08s-6,.49-12.15,6.95-4.6,10.87-1.38,12.47,8.28,3.19,15.25,0S1811.17,658.7,1803.41,659.08Z" transform="translate(-457.11 -381.68)"/><path class="cls-100" d="M1802.89,673.25s7.69-9.87-2.19-13.28l-2.87.86s-1.59-7.4,5.36-8.39,13.13,3.76,13,12.65-1.46,14.42-7,16.87-5.8-2.48-5.8-2.48,3.49-2.84,3.19-5.08-3.23-.63-3.23-.63Z" transform="translate(-457.11 -381.68)"/><path class="cls-101" d="M1803.59,674.86s3.93-5.1,5.86-1.91-4,4.6-6.18,4.95Z" transform="translate(-457.11 -381.68)"/><rect class="cls-1" x="1535.58" width="139.67" height="223.19"/><path class="cls-36" d="M2047.46,398.67a21.24,21.24,0,0,1,.69-4.12,10.63,10.63,0,0,0,.76-4.58,5.33,5.33,0,0,0-2.21-4c-.2,1.23-.4,2.46-.59,3.7a2.84,2.84,0,0,1-.44,1.28.93.93,0,0,1-1.22.25,1.37,1.37,0,0,1-.35-.55c-.91-2.1-1.81-4.2-2.72-6.31-.48-1.11-1.1-2.36-2.27-2.69-.32-.1-.17,7.95,0,8.68a18.62,18.62,0,0,0,2.07,5.52c2.2,4.14,2.37,8.07,2.68,12.65s.67,9.45,1.06,14.17c.7,8.79,1.52,17.56,2.52,26.32q.66,5.76,1.45,11.51L2059,458C2054.08,440.49,2050.43,420.33,2047.46,398.67Z" transform="translate(-457.11 -381.68)"/><path class="cls-37" d="M2013.63,562.62c-.57-1.69-2.31-6.19-3.39-5.77,15.65-6.05,31.72-10.22,46.69-18.09l-15.2-13.91a344.45,344.45,0,0,0-33.26,15.73c-3.32,1.78-10.83,4-11.51,8.24-.55,3.44,1.78,6.95,2.6,10.17,1.26,4.92,2.57,9.82,3.83,14.73.37,1.48,5.57,20.13,3.76,20.49a24.08,24.08,0,0,0-13.14,7.21c-3.23,3.55.11,3.82,3.4,3.18a33.33,33.33,0,0,0,9.68-3.8,26.59,26.59,0,0,0,4.67-3.12c2.31-2,.79-8.14,1-10.87.72-7.46,3-16.27,1-23.64C2013.78,563.08,2013.72,562.88,2013.63,562.62Z" transform="translate(-457.11 -381.68)"/><path class="cls-38" d="M2132.29,601.56c-1.95-7.06-8.27-10-13.56-14.17-1.15-.9-2.06-3.19-3.14-4.44l-4-4.68-4.89-5.69-10.42-8.93c-5.64-14.16-14.39-24.75-24.46-34.92l-12,9.43c7.7,12.64,17.43,23.26,30.82,30.25,2.32,3.84,4.26,8.3,6.79,11.89a23.67,23.67,0,0,0,9.36,7.38c3.59,1.64,7.85,2.2,10.45,5.48.9,1.13,1.48,2.49,2.34,3.65a14.31,14.31,0,0,0,4.36,3.56,14.72,14.72,0,0,0,7.66,2.35.94.94,0,0,0,.6-.14C2132.44,602.35,2132.38,601.91,2132.29,601.56Z" transform="translate(-457.11 -381.68)"/><path class="cls-39" d="M2046.62,519.27l23.12,1.58,4.67,10.56a62.16,62.16,0,0,1,13.21,16c-2.39,4.88-8.79,7.57-16.69,6.86l-16.87-13.65-17.93,7.62c-7.76-2-11.66-7.65-14.37-14.39C2027.4,529.93,2038.3,522.1,2046.62,519.27Z" transform="translate(-457.11 -381.68)"/><path class="cls-40" d="M2079,517.9a57.34,57.34,0,0,0,3.11,18.08c1.13,3.22,4.15,8,3.43,11.5a11.21,11.21,0,0,1-.7,2,10.59,10.59,0,0,0-.9,4.56,5.28,5.28,0,0,0,2.07,4c.24-1.22.48-2.45.71-3.67a2.71,2.71,0,0,1,.49-1.27.91.91,0,0,1,1.22-.21,1.27,1.27,0,0,1,.33.56l2.52,6.39c.44,1.13,1,2.4,2.18,2.77.9-4.9.92-10.67-2-14.93-2.17-3.16-2.64-7.36-3.57-11-1.17-4.58-1.3-9.48-1.56-14.18-.12-2.13-.54-4.52-.24-6.61a31.43,31.43,0,0,1,2.32-8.68,73.06,73.06,0,0,0,3.71-13.62c.62-3.12,1.41-6.9-2.19-9.17-4-2.49-6.22,4.07-7,6.69A91.87,91.87,0,0,0,2079,517.9Z" transform="translate(-457.11 -381.68)"/><path class="cls-41" d="M2071.75,465.47c-3.77-2.68-11.52-3.92-12.41-9.52a30.08,30.08,0,0,1-11.84.59c.51,5.49.48,10-1.45,15.29-1.3,3.53-4.7,6.15-5.36,9.93a20,20,0,0,0,.3,5.45c.74,7.15.47,14.85.67,22.12.12,4.7-.62,6.17-.5,10.87-1.5,5.57,29.16,8.3,30.33,4,1.1-4.1.3-5.26.73-9.48.49-4.85-.44-14.55,3.74-17.87,1.72-1.38,3.17-2.7,4.79-4.25a3.13,3.13,0,0,1,1.9-1.1,58.78,58.78,0,0,0,10.77-1.56c-.5-2.59-1-7.67-2.38-9.81-.94-1.44-3.7-2.9-5.08-4.12-1.66-1.47-3.41-2.79-5.2-4.11Z" transform="translate(-457.11 -381.68)"/><path class="cls-42" d="M2082.86,454.41l-2.7,7.34-2.24,6.11c-.51,1.38-.69,2.45-2.05,3.2a6.39,6.39,0,0,1-4.19.8,6.2,6.2,0,0,1-4.15-2.77c-.87-1.38-.65-2.45,0-3.88l6.23-13.42a2.62,2.62,0,0,1,2.79-1.5l4.22.66A2.63,2.63,0,0,1,2082.86,454.41Z" transform="translate(-457.11 -381.68)"/><path class="cls-43" d="M2094.38,452a5.28,5.28,0,0,1,0,2.26,11.71,11.71,0,0,1-3.75,6.45c-1.63,1.39-3.65,2.28-5.19,3.76s-2.52,3.95-1.37,5.76c.73,1.15,2.24,1.89,2.4,3.25a4.26,4.26,0,0,1-.6,2.22,9.86,9.86,0,0,0-.95,5.66,5.62,5.62,0,0,0,3.42,4.4c2.06.72,4.86.12,6,2a13.11,13.11,0,0,1,.79,2.23c.9,2.22,3.65,3,6,3,11-.07,17.72-10.84,15.1-20.92a11.22,11.22,0,0,0-1.56-3.6c-1.19-1.72-3-2.93-4.33-4.51-3.49-4.05-4.86-9.33-8.26-13.28a12.36,12.36,0,0,0-6.94-4c-.94-.2-1.73.87-1.7,1.83A16,16,0,0,0,2094.38,452Z" transform="translate(-457.11 -381.68)"/><path class="cls-44" d="M2082.75,435.89s-6,.49-12.15,6.95-4.6,10.88-1.39,12.48,8.29,3.19,15.26,0S2090.51,435.51,2082.75,435.89Z" transform="translate(-457.11 -381.68)"/><path class="cls-45" d="M2082.23,450.06s7.69-9.87-2.19-13.28l-2.87.86s-1.6-7.4,5.35-8.39,13.14,3.76,13,12.65-1.46,14.42-7,16.88-5.8-2.49-5.8-2.49,3.49-2.84,3.19-5.08-3.24-.62-3.24-.62Z" transform="translate(-457.11 -381.68)"/><path class="cls-46" d="M2082.93,451.67s3.92-5.09,5.86-1.91-3.95,4.6-6.18,4.95Z" transform="translate(-457.11 -381.68)"/><rect class="cls-1" x="1535.58" y="223.19" width="139.67" height="223.19"/><path class="cls-47" d="M2047.46,621.86a21.24,21.24,0,0,1,.69-4.12,10.65,10.65,0,0,0,.76-4.59,5.31,5.31,0,0,0-2.21-3.95c-.2,1.23-.4,2.46-.59,3.69a2.84,2.84,0,0,1-.44,1.29.94.94,0,0,1-1.22.25,1.44,1.44,0,0,1-.35-.55c-.91-2.1-1.81-4.2-2.72-6.31-.48-1.12-1.1-2.36-2.27-2.7-.32-.09-.17,8,0,8.69a18.62,18.62,0,0,0,2.07,5.52c2.2,4.13,2.37,8.06,2.68,12.64s.67,9.46,1.06,14.18c.7,8.78,1.52,17.56,2.52,26.31q.66,5.77,1.45,11.51l10.11-2.57C2054.08,663.67,2050.43,643.52,2047.46,621.86Z" transform="translate(-457.11 -381.68)"/><path class="cls-48" d="M2013.63,785.81c-.57-1.69-2.31-6.19-3.39-5.77,15.65-6,31.72-10.22,46.69-18.09L2041.73,748a346.92,346.92,0,0,0-33.26,15.74c-3.32,1.78-10.83,4-11.51,8.23-.55,3.45,1.78,7,2.6,10.18,1.26,4.91,2.57,9.82,3.83,14.73.37,1.48,5.57,20.13,3.76,20.48A24.2,24.2,0,0,0,1994,824.6c-3.23,3.56.11,3.83,3.4,3.19a33.61,33.61,0,0,0,9.68-3.8,27.15,27.15,0,0,0,4.67-3.12c2.31-2,.79-8.14,1-10.88.72-7.45,3-16.26,1-23.63C2013.78,786.26,2013.72,786.07,2013.63,785.81Z" transform="translate(-457.11 -381.68)"/><path class="cls-49" d="M2132.29,824.75c-1.95-7.07-8.27-10-13.56-14.17-1.15-.9-2.06-3.2-3.14-4.44l-4-4.69-4.89-5.68-10.42-8.94c-5.64-14.16-14.39-24.74-24.46-34.91l-12,9.42c7.7,12.65,17.43,23.27,30.82,30.26,2.32,3.84,4.26,8.3,6.79,11.89a23.56,23.56,0,0,0,9.36,7.37c3.59,1.65,7.85,2.21,10.45,5.49.9,1.13,1.48,2.48,2.34,3.65a14.31,14.31,0,0,0,4.36,3.56,14.72,14.72,0,0,0,7.66,2.35.89.89,0,0,0,.6-.15C2132.44,825.54,2132.38,825.1,2132.29,824.75Z" transform="translate(-457.11 -381.68)"/><path class="cls-50" d="M2046.62,742.45l23.12,1.59,4.67,10.56a62.16,62.16,0,0,1,13.21,16c-2.39,4.88-8.79,7.56-16.69,6.86l-16.87-13.65-17.93,7.62c-7.76-2-11.66-7.65-14.37-14.4C2027.4,753.11,2038.3,745.29,2046.62,742.45Z" transform="translate(-457.11 -381.68)"/><path class="cls-51" d="M2079,741.08a57.4,57.4,0,0,0,3.11,18.09c1.13,3.22,4.15,8,3.43,11.49a11.31,11.31,0,0,1-.7,2,10.57,10.57,0,0,0-.9,4.55,5.3,5.3,0,0,0,2.07,4c.24-1.23.48-2.45.71-3.68a2.63,2.63,0,0,1,.49-1.26.91.91,0,0,1,1.22-.21,1.29,1.29,0,0,1,.33.55l2.52,6.4c.44,1.13,1,2.4,2.18,2.77.9-4.9.92-10.67-2-14.93-2.17-3.16-2.64-7.36-3.57-11-1.17-4.58-1.3-9.48-1.56-14.18-.12-2.14-.54-4.52-.24-6.61a31.5,31.5,0,0,1,2.32-8.69,72.64,72.64,0,0,0,3.71-13.62c.62-3.12,1.41-6.89-2.19-9.16-4-2.49-6.22,4.06-7,6.69A91.86,91.86,0,0,0,2079,741.08Z" transform="translate(-457.11 -381.68)"/><path class="cls-52" d="M2071.75,688.66c-3.77-2.68-11.52-3.92-12.41-9.52a30.08,30.08,0,0,1-11.84.59c.51,5.49.48,10-1.45,15.29-1.3,3.52-4.7,6.15-5.36,9.93a19.93,19.93,0,0,0,.3,5.44c.74,7.16.47,14.86.67,22.13.12,4.69-.62,6.16-.5,10.86-1.5,5.58,29.16,8.31,30.33,4,1.1-4.09.3-5.25.73-9.48.49-4.85-.44-14.54,3.74-17.87,1.72-1.37,3.17-2.69,4.79-4.24a3.09,3.09,0,0,1,1.9-1.1,58.78,58.78,0,0,0,10.77-1.56c-.5-2.59-1-7.68-2.38-9.81-.94-1.45-3.7-2.9-5.08-4.13-1.66-1.46-3.41-2.78-5.2-4.1Z" transform="translate(-457.11 -381.68)"/><path class="cls-53" d="M2082.86,677.6l-2.7,7.34-2.24,6.11c-.51,1.38-.69,2.45-2.05,3.2a6.39,6.39,0,0,1-4.19.8,6.21,6.21,0,0,1-4.15-2.78c-.87-1.38-.65-2.44,0-3.87l6.23-13.42a2.62,2.62,0,0,1,2.79-1.5l4.22.65A2.64,2.64,0,0,1,2082.86,677.6Z" transform="translate(-457.11 -381.68)"/><path class="cls-54" d="M2094.38,675.14a5.28,5.28,0,0,1,0,2.26,11.74,11.74,0,0,1-3.75,6.45c-1.63,1.39-3.65,2.28-5.19,3.76s-2.52,3.95-1.37,5.75c.73,1.16,2.24,1.9,2.4,3.26a4.2,4.2,0,0,1-.6,2.21,9.91,9.91,0,0,0-.95,5.67,5.59,5.59,0,0,0,3.42,4.39c2.06.73,4.86.13,6,2a13.11,13.11,0,0,1,.79,2.23c.9,2.21,3.65,3,6,3,11-.07,17.72-10.84,15.1-20.92a11.22,11.22,0,0,0-1.56-3.6c-1.19-1.72-3-2.93-4.33-4.51-3.49-4-4.86-9.33-8.26-13.29a12.48,12.48,0,0,0-6.94-4c-.94-.19-1.73.88-1.7,1.84A16,16,0,0,0,2094.38,675.14Z" transform="translate(-457.11 -381.68)"/><path class="cls-55" d="M2082.75,659.08s-6,.49-12.15,6.95-4.6,10.87-1.39,12.47,8.29,3.19,15.26,0S2090.51,658.7,2082.75,659.08Z" transform="translate(-457.11 -381.68)"/><path class="cls-56" d="M2082.23,673.25s7.69-9.87-2.19-13.28l-2.87.86s-1.6-7.4,5.35-8.39,13.14,3.76,13,12.65-1.46,14.42-7,16.87-5.8-2.48-5.8-2.48,3.49-2.84,3.19-5.08-3.24-.63-3.24-.63Z" transform="translate(-457.11 -381.68)"/><path class="cls-57" d="M2082.93,674.86s3.92-5.1,5.86-1.91-3.95,4.6-6.18,4.95Z" transform="translate(-457.11 -381.68)"/><rect class="cls-1" x="1395.92" width="139.67" height="223.19"/><path class="cls-58" d="M1907.79,398.67a21.24,21.24,0,0,1,.69-4.12,10.63,10.63,0,0,0,.76-4.58,5.3,5.3,0,0,0-2.21-4c-.2,1.23-.39,2.46-.59,3.7A2.72,2.72,0,0,1,1906,391a.92.92,0,0,1-1.22.25,1.37,1.37,0,0,1-.35-.55c-.91-2.1-1.81-4.2-2.72-6.31-.48-1.11-1.1-2.36-2.27-2.69-.32-.1-.17,7.95,0,8.68a18.9,18.9,0,0,0,2.07,5.52c2.2,4.14,2.37,8.07,2.69,12.65s.67,9.45,1,14.17c.71,8.79,1.52,17.56,2.52,26.32.45,3.84.92,7.68,1.45,11.51l10.11-2.57C1914.41,440.49,1910.76,420.33,1907.79,398.67Z" transform="translate(-457.11 -381.68)"/><path class="cls-59" d="M1874,562.62c-.57-1.69-2.31-6.19-3.38-5.77,15.65-6.05,31.71-10.22,46.68-18.09l-15.19-13.91a343.5,343.5,0,0,0-33.27,15.73c-3.32,1.78-10.83,4-11.51,8.24-.55,3.44,1.78,6.95,2.6,10.17,1.26,4.92,2.57,9.82,3.83,14.73.38,1.48,5.57,20.13,3.76,20.49a24.08,24.08,0,0,0-13.14,7.21c-3.23,3.55.12,3.82,3.4,3.18a33.22,33.22,0,0,0,9.68-3.8,26.59,26.59,0,0,0,4.67-3.12c2.31-2,.79-8.14,1.05-10.87.72-7.46,3-16.27,1-23.64C1874.11,563.08,1874.05,562.88,1874,562.62Z" transform="translate(-457.11 -381.68)"/><path class="cls-60" d="M1992.62,601.56c-1.95-7.06-8.27-10-13.55-14.17-1.16-.9-2.07-3.19-3.14-4.44l-4-4.68-4.89-5.69-10.42-8.93c-5.64-14.16-14.39-24.75-24.45-34.92l-12,9.43c7.7,12.64,17.43,23.26,30.83,30.25,2.31,3.84,4.25,8.3,6.78,11.89a23.67,23.67,0,0,0,9.36,7.38c3.59,1.64,7.85,2.2,10.45,5.48.9,1.13,1.49,2.49,2.34,3.65a14.31,14.31,0,0,0,4.36,3.56,14.72,14.72,0,0,0,7.66,2.35,1,1,0,0,0,.61-.14C1992.77,602.35,1992.72,601.91,1992.62,601.56Z" transform="translate(-457.11 -381.68)"/><path class="cls-61" d="M1907,519.27l23.13,1.58,4.66,10.56a62.16,62.16,0,0,1,13.21,16c-2.39,4.88-8.79,7.57-16.69,6.86l-16.87-13.65-17.93,7.62c-7.76-2-11.66-7.65-14.37-14.39C1887.73,529.93,1898.64,522.1,1907,519.27Z" transform="translate(-457.11 -381.68)"/><path class="cls-62" d="M1939.35,517.9a57.34,57.34,0,0,0,3.11,18.08c1.14,3.22,4.15,8,3.44,11.5a13.06,13.06,0,0,1-.7,2,10.6,10.6,0,0,0-.91,4.56,5.28,5.28,0,0,0,2.07,4l.72-3.67a2.59,2.59,0,0,1,.48-1.27.91.91,0,0,1,1.22-.21,1.27,1.27,0,0,1,.33.56l2.52,6.39c.44,1.13,1,2.4,2.18,2.77.9-4.9.92-10.67-2-14.93-2.17-3.16-2.65-7.36-3.58-11-1.17-4.58-1.3-9.48-1.56-14.18a35.79,35.79,0,0,1-.24-6.61,31.78,31.78,0,0,1,2.32-8.68,73.06,73.06,0,0,0,3.71-13.62c.63-3.12,1.42-6.9-2.19-9.17-4-2.49-6.22,4.07-7,6.69A91.87,91.87,0,0,0,1939.35,517.9Z" transform="translate(-457.11 -381.68)"/><path class="cls-63" d="M1932.08,465.47c-3.77-2.68-11.52-3.92-12.41-9.52a30.08,30.08,0,0,1-11.84.59c.51,5.49.48,10-1.45,15.29-1.29,3.53-4.7,6.15-5.36,9.93a20.43,20.43,0,0,0,.3,5.45c.75,7.15.48,14.85.67,22.12.12,4.7-.62,6.17-.5,10.87-1.5,5.57,29.16,8.3,30.33,4,1.1-4.1.3-5.26.73-9.48.49-4.85-.44-14.55,3.74-17.87,1.73-1.38,3.17-2.7,4.79-4.25a3.13,3.13,0,0,1,1.91-1.1,59,59,0,0,0,10.77-1.56c-.5-2.59-1-7.67-2.39-9.81-.94-1.44-3.7-2.9-5.08-4.12-1.66-1.47-3.4-2.79-5.2-4.11Z" transform="translate(-457.11 -381.68)"/><path class="cls-64" d="M1943.19,454.41c-.9,2.45-1.79,4.9-2.69,7.34l-2.25,6.11c-.5,1.38-.69,2.45-2,3.2a6.43,6.43,0,0,1-4.2.8,6.2,6.2,0,0,1-4.15-2.77c-.87-1.38-.65-2.45,0-3.88,0-.1,6.22-13.42,6.22-13.42a2.62,2.62,0,0,1,2.79-1.5l4.22.66A2.63,2.63,0,0,1,1943.19,454.41Z" transform="translate(-457.11 -381.68)"/><path class="cls-65" d="M1954.71,452a5.28,5.28,0,0,1,0,2.26,11.71,11.71,0,0,1-3.75,6.45c-1.63,1.39-3.65,2.28-5.19,3.76s-2.52,3.95-1.37,5.76c.74,1.15,2.24,1.89,2.41,3.25a4.37,4.37,0,0,1-.61,2.22,9.86,9.86,0,0,0-1,5.66,5.64,5.64,0,0,0,3.42,4.4c2.06.72,4.87.12,6,2a13.14,13.14,0,0,1,.8,2.23c.9,2.22,3.64,3,6,3,11-.07,17.72-10.84,15.1-20.92a11.22,11.22,0,0,0-1.56-3.6c-1.18-1.72-3-2.93-4.32-4.51-3.5-4.05-4.87-9.33-8.27-13.28a12.36,12.36,0,0,0-6.94-4c-.94-.2-1.73.87-1.7,1.83A16,16,0,0,0,1954.71,452Z" transform="translate(-457.11 -381.68)"/><path class="cls-66" d="M1943.08,435.89s-6,.49-12.15,6.95-4.6,10.88-1.39,12.48,8.29,3.19,15.26,0S1950.84,435.51,1943.08,435.89Z" transform="translate(-457.11 -381.68)"/><path class="cls-67" d="M1942.56,450.06s7.69-9.87-2.19-13.28l-2.87.86s-1.59-7.4,5.36-8.39,13.13,3.76,13,12.65-1.46,14.42-7,16.88-5.8-2.49-5.8-2.49,3.49-2.84,3.19-5.08-3.23-.62-3.23-.62Z" transform="translate(-457.11 -381.68)"/><path class="cls-68" d="M1943.26,451.67s3.92-5.09,5.86-1.91-3.95,4.6-6.18,4.95Z" transform="translate(-457.11 -381.68)"/><rect class="cls-1" x="1395.92" y="223.19" width="139.67" height="223.19"/><path class="cls-69" d="M1907.79,621.86a21.24,21.24,0,0,1,.69-4.12,10.65,10.65,0,0,0,.76-4.59,5.28,5.28,0,0,0-2.21-3.95c-.2,1.23-.39,2.46-.59,3.69a2.72,2.72,0,0,1-.44,1.29.93.93,0,0,1-1.22.25,1.44,1.44,0,0,1-.35-.55c-.91-2.1-1.81-4.2-2.72-6.31-.48-1.12-1.1-2.36-2.27-2.7-.32-.09-.17,8,0,8.69a18.9,18.9,0,0,0,2.07,5.52c2.2,4.13,2.37,8.06,2.69,12.64s.67,9.46,1,14.18c.71,8.78,1.52,17.56,2.52,26.31.45,3.85.92,7.68,1.45,11.51l10.11-2.57C1914.41,663.67,1910.76,643.52,1907.79,621.86Z" transform="translate(-457.11 -381.68)"/><path class="cls-70" d="M1874,785.81c-.57-1.69-2.31-6.19-3.38-5.77,15.65-6,31.71-10.22,46.68-18.09L1902.07,748a346,346,0,0,0-33.27,15.74c-3.32,1.78-10.83,4-11.51,8.23-.55,3.45,1.78,7,2.6,10.18,1.26,4.91,2.57,9.82,3.83,14.73.38,1.48,5.57,20.13,3.76,20.48a24.2,24.2,0,0,0-13.14,7.21c-3.23,3.56.12,3.83,3.4,3.19a33.5,33.5,0,0,0,9.68-3.8,27.15,27.15,0,0,0,4.67-3.12c2.31-2,.79-8.14,1.05-10.88.72-7.45,3-16.26,1-23.63C1874.11,786.26,1874.05,786.07,1874,785.81Z" transform="translate(-457.11 -381.68)"/><path class="cls-71" d="M1992.62,824.75c-1.95-7.07-8.27-10-13.55-14.17-1.16-.9-2.07-3.2-3.14-4.44q-2-2.34-4-4.69l-4.89-5.68-10.42-8.94c-5.64-14.16-14.39-24.74-24.45-34.91l-12,9.42c7.7,12.65,17.43,23.27,30.83,30.26,2.31,3.84,4.25,8.3,6.78,11.89a23.56,23.56,0,0,0,9.36,7.37c3.59,1.65,7.85,2.21,10.45,5.49.9,1.13,1.49,2.48,2.34,3.65a14.31,14.31,0,0,0,4.36,3.56,14.72,14.72,0,0,0,7.66,2.35.92.92,0,0,0,.61-.15C1992.77,825.54,1992.72,825.1,1992.62,824.75Z" transform="translate(-457.11 -381.68)"/><path class="cls-72" d="M1907,742.45l23.13,1.59,4.66,10.56a62.16,62.16,0,0,1,13.21,16c-2.39,4.88-8.79,7.56-16.69,6.86l-16.87-13.65-17.93,7.62c-7.76-2-11.66-7.65-14.37-14.4C1887.73,753.11,1898.64,745.29,1907,742.45Z" transform="translate(-457.11 -381.68)"/><path class="cls-73" d="M1939.35,741.08a57.4,57.4,0,0,0,3.11,18.09c1.14,3.22,4.15,8,3.44,11.49a13.18,13.18,0,0,1-.7,2,10.58,10.58,0,0,0-.91,4.55,5.3,5.3,0,0,0,2.07,4l.72-3.68a2.52,2.52,0,0,1,.48-1.26.91.91,0,0,1,1.22-.21,1.29,1.29,0,0,1,.33.55l2.52,6.4c.44,1.13,1,2.4,2.18,2.77.9-4.9.92-10.67-2-14.93-2.17-3.16-2.65-7.36-3.58-11-1.17-4.58-1.3-9.48-1.56-14.18a35.83,35.83,0,0,1-.24-6.61,31.85,31.85,0,0,1,2.32-8.69,72.64,72.64,0,0,0,3.71-13.62c.63-3.12,1.42-6.89-2.19-9.16-4-2.49-6.22,4.06-7,6.69A91.86,91.86,0,0,0,1939.35,741.08Z" transform="translate(-457.11 -381.68)"/><path class="cls-74" d="M1932.08,688.66c-3.77-2.68-11.52-3.92-12.41-9.52a30.08,30.08,0,0,1-11.84.59c.51,5.49.48,10-1.45,15.29-1.29,3.52-4.7,6.15-5.36,9.93a20.34,20.34,0,0,0,.3,5.44c.75,7.16.48,14.86.67,22.13.12,4.69-.62,6.16-.5,10.86-1.5,5.58,29.16,8.31,30.33,4,1.1-4.09.3-5.25.73-9.48.49-4.85-.44-14.54,3.74-17.87,1.73-1.37,3.17-2.69,4.79-4.24a3.08,3.08,0,0,1,1.91-1.1,59,59,0,0,0,10.77-1.56c-.5-2.59-1-7.68-2.39-9.81-.94-1.45-3.7-2.9-5.08-4.13-1.66-1.46-3.4-2.78-5.2-4.1Z" transform="translate(-457.11 -381.68)"/><path class="cls-75" d="M1943.19,677.6l-2.69,7.34-2.25,6.11c-.5,1.38-.69,2.45-2,3.2a6.43,6.43,0,0,1-4.2.8,6.21,6.21,0,0,1-4.15-2.78c-.87-1.38-.65-2.44,0-3.87,0-.1,6.22-13.42,6.22-13.42a2.62,2.62,0,0,1,2.79-1.5l4.22.65A2.64,2.64,0,0,1,1943.19,677.6Z" transform="translate(-457.11 -381.68)"/><path class="cls-76" d="M1954.71,675.14a5.28,5.28,0,0,1,0,2.26,11.74,11.74,0,0,1-3.75,6.45c-1.63,1.39-3.65,2.28-5.19,3.76s-2.52,3.95-1.37,5.75c.74,1.16,2.24,1.9,2.41,3.26a4.31,4.31,0,0,1-.61,2.21,9.91,9.91,0,0,0-1,5.67,5.61,5.61,0,0,0,3.42,4.39c2.06.73,4.87.13,6,2a13.14,13.14,0,0,1,.8,2.23c.9,2.21,3.64,3,6,3,11-.07,17.72-10.84,15.1-20.92a11.22,11.22,0,0,0-1.56-3.6c-1.18-1.72-3-2.93-4.32-4.51-3.5-4-4.87-9.33-8.27-13.29a12.48,12.48,0,0,0-6.94-4c-.94-.19-1.73.88-1.7,1.84A16,16,0,0,0,1954.71,675.14Z" transform="translate(-457.11 -381.68)"/><path class="cls-77" d="M1943.08,659.08s-6,.49-12.15,6.95-4.6,10.87-1.39,12.47,8.29,3.19,15.26,0S1950.84,658.7,1943.08,659.08Z" transform="translate(-457.11 -381.68)"/><path class="cls-78" d="M1942.56,673.25s7.69-9.87-2.19-13.28l-2.87.86s-1.59-7.4,5.36-8.39,13.13,3.76,13,12.65-1.46,14.42-7,16.87-5.8-2.48-5.8-2.48,3.49-2.84,3.19-5.08-3.23-.63-3.23-.63Z" transform="translate(-457.11 -381.68)"/><path class="cls-79" d="M1943.26,674.86s3.92-5.1,5.86-1.91-3.95,4.6-6.18,4.95Z" transform="translate(-457.11 -381.68)"/><rect class="cls-1" x="1256.25" width="139.67" height="223.19"/><path class="cls-80" d="M1768.13,398.67a21.22,21.22,0,0,1,.68-4.12,10.63,10.63,0,0,0,.76-4.58,5.27,5.27,0,0,0-2.21-4c-.19,1.23-.39,2.46-.59,3.7a2.62,2.62,0,0,1-.44,1.28.91.91,0,0,1-1.21.25,1.29,1.29,0,0,1-.36-.55q-1.35-3.15-2.72-6.31c-.48-1.11-1.1-2.36-2.27-2.69-.32-.1-.17,7.95,0,8.68a19.19,19.19,0,0,0,2.07,5.52c2.21,4.14,2.37,8.07,2.69,12.65s.67,9.45,1,14.17c.71,8.79,1.52,17.56,2.53,26.32.44,3.84.91,7.68,1.44,11.51l10.11-2.57C1774.74,440.49,1771.09,420.33,1768.13,398.67Z" transform="translate(-457.11 -381.68)"/><path class="cls-81" d="M1734.29,562.62c-.57-1.69-2.3-6.19-3.38-5.77,15.65-6.05,31.71-10.22,46.68-18.09l-15.19-13.91a343.33,343.33,0,0,0-33.26,15.73c-3.33,1.78-10.84,4-11.52,8.24-.55,3.44,1.78,6.95,2.61,10.17,1.25,4.92,2.56,9.82,3.82,14.73.38,1.48,5.57,20.13,3.76,20.49a24.11,24.11,0,0,0-13.14,7.21c-3.23,3.55.12,3.82,3.4,3.18a33.22,33.22,0,0,0,9.68-3.8,26.59,26.59,0,0,0,4.67-3.12c2.31-2,.79-8.14,1.06-10.87.71-7.46,3-16.27,1-23.64C1734.45,563.08,1734.38,562.88,1734.29,562.62Z" transform="translate(-457.11 -381.68)"/><path class="cls-82" d="M1853,601.56c-1.94-7.06-8.27-10-13.55-14.17-1.16-.9-2.07-3.19-3.14-4.44l-4-4.68c-1.63-1.9-3.26-3.79-4.88-5.69l-10.43-8.93c-5.64-14.16-14.39-24.75-24.45-34.92l-12,9.43c7.7,12.64,17.44,23.26,30.83,30.25,2.31,3.84,4.25,8.3,6.79,11.89a23.64,23.64,0,0,0,9.35,7.38c3.59,1.64,7.85,2.2,10.46,5.48.89,1.13,1.48,2.49,2.33,3.65a14.31,14.31,0,0,0,4.36,3.56,14.73,14.73,0,0,0,7.67,2.35,1,1,0,0,0,.6-.14C1853.1,602.35,1853.05,601.91,1853,601.56Z" transform="translate(-457.11 -381.68)"/><path class="cls-83" d="M1767.28,519.27l23.13,1.58,4.66,10.56a62.41,62.41,0,0,1,13.22,16c-2.39,4.88-8.8,7.57-16.7,6.86l-16.86-13.65-17.94,7.62c-7.76-2-11.65-7.65-14.37-14.39C1748.07,529.93,1759,522.1,1767.28,519.27Z" transform="translate(-457.11 -381.68)"/><path class="cls-84" d="M1799.68,517.9A57.07,57.07,0,0,0,1802.8,536c1.13,3.22,4.14,8,3.43,11.5a12.07,12.07,0,0,1-.7,2,10.6,10.6,0,0,0-.91,4.56,5.26,5.26,0,0,0,2.08,4c.23-1.22.47-2.45.71-3.67a2.69,2.69,0,0,1,.48-1.27.91.91,0,0,1,1.22-.21,1.28,1.28,0,0,1,.34.56q1.24,3.19,2.51,6.39c.44,1.13,1,2.4,2.18,2.77.9-4.9.92-10.67-2-14.93-2.17-3.16-2.65-7.36-3.58-11-1.17-4.58-1.3-9.48-1.56-14.18a35.79,35.79,0,0,1-.24-6.61,31.45,31.45,0,0,1,2.33-8.68,73.81,73.81,0,0,0,3.7-13.62c.63-3.12,1.42-6.9-2.19-9.17-4-2.49-6.22,4.07-7,6.69A91.87,91.87,0,0,0,1799.68,517.9Z" transform="translate(-457.11 -381.68)"/><path class="cls-85" d="M1792.41,465.47c-3.77-2.68-11.52-3.92-12.41-9.52a30,30,0,0,1-11.83.59c.5,5.49.48,10-1.46,15.29-1.29,3.53-4.7,6.15-5.35,9.93a19.64,19.64,0,0,0,.3,5.45c.74,7.15.47,14.85.66,22.12.13,4.7-.62,6.17-.49,10.87-1.51,5.57,29.15,8.3,30.32,4,1.1-4.1.3-5.26.73-9.48.5-4.85-.44-14.55,3.74-17.87,1.73-1.38,3.17-2.7,4.79-4.25a3.16,3.16,0,0,1,1.91-1.1,59,59,0,0,0,10.77-1.56c-.5-2.59-1-7.67-2.39-9.81-.93-1.44-3.69-2.9-5.08-4.12-1.66-1.47-3.4-2.79-5.19-4.11Z" transform="translate(-457.11 -381.68)"/><path class="cls-86" d="M1803.53,454.41l-2.7,7.34-2.25,6.11c-.5,1.38-.69,2.45-2,3.2a6.43,6.43,0,0,1-4.2.8,6.2,6.2,0,0,1-4.15-2.77c-.87-1.38-.65-2.45,0-3.88,0-.1,6.22-13.42,6.22-13.42a2.62,2.62,0,0,1,2.79-1.5l4.22.66A2.64,2.64,0,0,1,1803.53,454.41Z" transform="translate(-457.11 -381.68)"/><path class="cls-87" d="M1815,452a5.28,5.28,0,0,1,0,2.26,11.71,11.71,0,0,1-3.75,6.45c-1.62,1.39-3.65,2.28-5.19,3.76s-2.52,3.95-1.37,5.76c.74,1.15,2.24,1.89,2.41,3.25a4.37,4.37,0,0,1-.61,2.22,9.86,9.86,0,0,0-1,5.66,5.64,5.64,0,0,0,3.42,4.4c2.06.72,4.87.12,6,2a14,14,0,0,1,.79,2.23c.9,2.22,3.64,3,6,3,11-.07,17.73-10.84,15.1-20.92a11.22,11.22,0,0,0-1.56-3.6c-1.18-1.72-3-2.93-4.32-4.51-3.5-4.05-4.87-9.33-8.27-13.28a12.33,12.33,0,0,0-6.94-4c-.94-.2-1.73.87-1.69,1.83A16,16,0,0,0,1815,452Z" transform="translate(-457.11 -381.68)"/><path class="cls-88" d="M1803.41,435.89s-6,.49-12.15,6.95-4.6,10.88-1.38,12.48,8.28,3.19,15.25,0S1811.17,435.51,1803.41,435.89Z" transform="translate(-457.11 -381.68)"/><path class="cls-89" d="M1802.89,450.06s7.69-9.87-2.19-13.28l-2.87.86s-1.59-7.4,5.36-8.39,13.13,3.76,13,12.65-1.46,14.42-7,16.88-5.8-2.49-5.8-2.49,3.49-2.84,3.19-5.08-3.23-.62-3.23-.62Z" transform="translate(-457.11 -381.68)"/><path class="cls-90" d="M1803.59,451.67s3.93-5.09,5.86-1.91-4,4.6-6.18,4.95Z" transform="translate(-457.11 -381.68)"/><rect class="cls-1" x="1256.25" y="223.19" width="139.67" height="223.19"/><path class="cls-91" d="M1768.13,621.86a21.22,21.22,0,0,1,.68-4.12,10.65,10.65,0,0,0,.76-4.59,5.25,5.25,0,0,0-2.21-3.95c-.19,1.23-.39,2.46-.59,3.69a2.62,2.62,0,0,1-.44,1.29.92.92,0,0,1-1.21.25,1.35,1.35,0,0,1-.36-.55q-1.35-3.15-2.72-6.31c-.48-1.12-1.1-2.36-2.27-2.7-.32-.09-.17,8,0,8.69a19.19,19.19,0,0,0,2.07,5.52c2.21,4.13,2.37,8.06,2.69,12.64s.67,9.46,1,14.18c.71,8.78,1.52,17.56,2.53,26.31.44,3.85.91,7.68,1.44,11.51l10.11-2.57C1774.74,663.67,1771.09,643.52,1768.13,621.86Z" transform="translate(-457.11 -381.68)"/><path class="cls-92" d="M1734.29,785.81c-.57-1.69-2.3-6.19-3.38-5.77,15.65-6,31.71-10.22,46.68-18.09L1762.4,748a345.79,345.79,0,0,0-33.26,15.74c-3.33,1.78-10.84,4-11.52,8.23-.55,3.45,1.78,7,2.61,10.18,1.25,4.91,2.56,9.82,3.82,14.73.38,1.48,5.57,20.13,3.76,20.48a24.24,24.24,0,0,0-13.14,7.21c-3.23,3.56.12,3.83,3.4,3.19a33.5,33.5,0,0,0,9.68-3.8,27.15,27.15,0,0,0,4.67-3.12c2.31-2,.79-8.14,1.06-10.88.71-7.45,3-16.26,1-23.63C1734.45,786.26,1734.38,786.07,1734.29,785.81Z" transform="translate(-457.11 -381.68)"/><path class="cls-93" d="M1853,824.75c-1.94-7.07-8.27-10-13.55-14.17-1.16-.9-2.07-3.2-3.14-4.44-1.34-1.56-2.69-3.12-4-4.69q-2.45-2.84-4.88-5.68l-10.43-8.94c-5.64-14.16-14.39-24.74-24.45-34.91l-12,9.42c7.7,12.65,17.44,23.27,30.83,30.26,2.31,3.84,4.25,8.3,6.79,11.89a23.53,23.53,0,0,0,9.35,7.37c3.59,1.65,7.85,2.21,10.46,5.49.89,1.13,1.48,2.48,2.33,3.65a14.31,14.31,0,0,0,4.36,3.56,14.73,14.73,0,0,0,7.67,2.35.9.9,0,0,0,.6-.15C1853.1,825.54,1853.05,825.1,1853,824.75Z" transform="translate(-457.11 -381.68)"/><path class="cls-94" d="M1767.28,742.45l23.13,1.59,4.66,10.56a62.41,62.41,0,0,1,13.22,16c-2.39,4.88-8.8,7.56-16.7,6.86l-16.86-13.65-17.94,7.62c-7.76-2-11.65-7.65-14.37-14.4C1748.07,753.11,1759,745.29,1767.28,742.45Z" transform="translate(-457.11 -381.68)"/><path class="cls-95" d="M1799.68,741.08a57.13,57.13,0,0,0,3.12,18.09c1.13,3.22,4.14,8,3.43,11.49a12.17,12.17,0,0,1-.7,2,10.58,10.58,0,0,0-.91,4.55,5.28,5.28,0,0,0,2.08,4c.23-1.23.47-2.45.71-3.68a2.62,2.62,0,0,1,.48-1.26.91.91,0,0,1,1.22-.21,1.31,1.31,0,0,1,.34.55q1.24,3.21,2.51,6.4c.44,1.13,1,2.4,2.18,2.77.9-4.9.92-10.67-2-14.93-2.17-3.16-2.65-7.36-3.58-11-1.17-4.58-1.3-9.48-1.56-14.18a35.83,35.83,0,0,1-.24-6.61,31.52,31.52,0,0,1,2.33-8.69,73.38,73.38,0,0,0,3.7-13.62c.63-3.12,1.42-6.89-2.19-9.16-4-2.49-6.22,4.06-7,6.69A91.86,91.86,0,0,0,1799.68,741.08Z" transform="translate(-457.11 -381.68)"/><path class="cls-96" d="M1792.41,688.66c-3.77-2.68-11.52-3.92-12.41-9.52a30,30,0,0,1-11.83.59c.5,5.49.48,10-1.46,15.29-1.29,3.52-4.7,6.15-5.35,9.93a19.55,19.55,0,0,0,.3,5.44c.74,7.16.47,14.86.66,22.13.13,4.69-.62,6.16-.49,10.86-1.51,5.58,29.15,8.31,30.32,4,1.1-4.09.3-5.25.73-9.48.5-4.85-.44-14.54,3.74-17.87,1.73-1.37,3.17-2.69,4.79-4.24a3.11,3.11,0,0,1,1.91-1.1,59,59,0,0,0,10.77-1.56c-.5-2.59-1-7.68-2.39-9.81-.93-1.45-3.69-2.9-5.08-4.13-1.66-1.46-3.4-2.78-5.19-4.1Z" transform="translate(-457.11 -381.68)"/><path class="cls-97" d="M1803.53,677.6l-2.7,7.34-2.25,6.11c-.5,1.38-.69,2.45-2,3.2a6.43,6.43,0,0,1-4.2.8,6.21,6.21,0,0,1-4.15-2.78c-.87-1.38-.65-2.44,0-3.87,0-.1,6.22-13.42,6.22-13.42a2.62,2.62,0,0,1,2.79-1.5l4.22.65A2.65,2.65,0,0,1,1803.53,677.6Z" transform="translate(-457.11 -381.68)"/><path class="cls-98" d="M1815,675.14a5.28,5.28,0,0,1,0,2.26,11.74,11.74,0,0,1-3.75,6.45c-1.62,1.39-3.65,2.28-5.19,3.76s-2.52,3.95-1.37,5.75c.74,1.16,2.24,1.9,2.41,3.26a4.31,4.31,0,0,1-.61,2.21,9.91,9.91,0,0,0-1,5.67,5.61,5.61,0,0,0,3.42,4.39c2.06.73,4.87.13,6,2a14,14,0,0,1,.79,2.23c.9,2.21,3.64,3,6,3,11-.07,17.73-10.84,15.1-20.92a11.22,11.22,0,0,0-1.56-3.6c-1.18-1.72-3-2.93-4.32-4.51-3.5-4-4.87-9.33-8.27-13.29a12.44,12.44,0,0,0-6.94-4c-.94-.19-1.73.88-1.69,1.84A16,16,0,0,0,1815,675.14Z" transform="translate(-457.11 -381.68)"/><path class="cls-99" d="M1803.41,659.08s-6,.49-12.15,6.95-4.6,10.87-1.38,12.47,8.28,3.19,15.25,0S1811.17,658.7,1803.41,659.08Z" transform="translate(-457.11 -381.68)"/><path class="cls-100" d="M1802.89,673.25s7.69-9.87-2.19-13.28l-2.87.86s-1.59-7.4,5.36-8.39,13.13,3.76,13,12.65-1.46,14.42-7,16.87-5.8-2.48-5.8-2.48,3.49-2.84,3.19-5.08-3.23-.63-3.23-.63Z" transform="translate(-457.11 -381.68)"/><path class="cls-101" d="M1803.59,674.86s3.93-5.1,5.86-1.91-4,4.6-6.18,4.95Z" transform="translate(-457.11 -381.68)"/></g><path class="cls-102" d="M1810.29,609.12c48.39,13.87,102.63,15.41,160.08,5a7.66,7.66,0,0,1,9.08,7.5v5.19a7.65,7.65,0,0,1-6.27,7.55A353.25,353.25,0,0,1,1806,623.78a7.68,7.68,0,0,1-3.6-12.34h0A7.6,7.6,0,0,1,1810.29,609.12Z" transform="translate(-457.11 -381.68)"/></svg>