<svg width="61" height="18" viewBox="0 0 61 18" fill="none" xmlns="http://www.w3.org/2000/svg">
<path d="M23.1391 14L21.9851 16.2177L23.5735 17.0443L24.8674 15.8064L23.1391 14ZM34.6358 3L35.7007 0.738142L34.1477 0.00699258L32.9074 1.19364L34.6358 3ZM56.9351 16.2619C58.1843 16.85 59.6737 16.3141 60.2619 15.0649C60.85 13.8157 60.3141 12.3263 59.0649 11.7381L56.9351 16.2619ZM0.845984 5.21771L21.9851 16.2177L24.2931 11.7823L3.15402 0.782288L0.845984 5.21771ZM24.8674 15.8064L36.3641 4.80636L32.9074 1.19364L21.4108 12.1936L24.8674 15.8064ZM33.5709 5.26186L56.9351 16.2619L59.0649 11.7381L35.7007 0.738142L33.5709 5.26186Z" fill="#E8D5B7"/>
</svg>
