<svg width="100" height="100" viewBox="0 0 100 100" fill="none" xmlns="http://www.w3.org/2000/svg">
<path d="M94.1213 66.2889C82.0506 91.6014 63.4765 97.0703 50 97.0703C34.824 97.0703 20.5271 89.4922 11.7381 77.1289C2.8908 64.6484 0.781035 48.8281 5.87869 33.7107L6.81639 31.7773C13.9646 14.7264 31.3086 2.92969 50 2.92969C65.176 2.92969 79.4728 10.5078 88.2619 22.8711C97.1092 35.3516 99.2189 51.1719 94.1213 66.2889Z" fill="#65B1FC"/>
<path d="M94.1213 66.2889C82.0506 91.6014 63.4766 97.0703 50 97.0703V2.92969C65.176 2.92969 79.4729 10.5078 88.2619 22.8711C97.1092 35.3516 99.2189 51.1719 94.1213 66.2889Z" fill="#1689FC"/>
<path d="M90.6641 21.1717C81.2893 8.04668 66.1133 0 50 0C29.9024 0 11.5039 12.6172 3.94535 31.1912L2.94906 33.2422C-2.43082 49.6242 -0.336099 65.1412 9.33597 78.8279C18.7108 91.9529 33.8867 100 50 100C69.8633 100 88.0274 87.6758 95.8203 69.5115L96.6991 67.7537C102.556 51.0898 100.504 35.0816 90.6641 21.1717ZM14.1407 75.4295C5.82054 63.7107 3.88675 48.8867 8.69144 34.6484L9.45316 33.0662C14.1993 21.699 23.6328 12.8906 34.8826 8.67168C27.793 17.9297 23.5155 35.9373 24.043 41.7967C23.9844 41.9727 23.9256 42.1482 23.9256 42.3828C22.4022 62.0115 26.8553 80.957 35.2342 91.5625C26.8555 88.5154 19.4143 82.8711 14.1407 75.4295ZM47.0703 93.6131C45.0198 92.91 42.9688 91.3672 41.035 89.3162C32.8321 80.4688 28.3203 61.7773 29.7852 42.8514V42.3242C29.7852 42.1482 29.8438 41.9141 29.8438 41.7381C31.5428 23.5154 38.6914 9.14062 47.0703 6.38652V93.6131ZM52.9297 93.5545V6.38652C61.953 9.37481 69.5119 25.9764 70.3905 45.7811C71.2108 64.0623 66.6407 81.2303 58.7303 89.5508C56.8553 91.4842 54.9221 92.91 52.9297 93.5545ZM91.3086 65.3516C84.7461 79.1797 75.4883 87.6951 64.7658 91.5039C72.6172 81.6016 77.0703 63.9453 76.2498 45.5469C75.5467 29.9607 71.1522 16.5236 64.7657 8.4375C73.1446 11.4842 80.5858 17.1289 85.8592 24.5701C94.1795 36.2889 96.1133 51.1133 91.3086 65.3516Z" fill="#96EBE6"/>
<path d="M90.6641 21.1717C81.2893 8.04668 66.1133 0 50 0V100C69.8633 100 88.0273 87.6758 95.8203 69.5115L96.699 67.7537C102.556 51.0898 100.504 35.0816 90.6641 21.1717ZM52.9297 93.5545V6.38652C61.9529 9.37481 69.5119 25.9764 70.3904 45.7811C71.2107 64.0623 66.6406 81.2303 58.7303 89.5508C56.8553 91.4842 54.9221 92.91 52.9297 93.5545ZM91.3086 65.3516C84.7461 79.1797 75.4883 87.6951 64.7658 91.5039C72.6172 81.6016 77.0703 63.9453 76.2498 45.5469C75.5467 29.9607 71.1522 16.5236 64.7656 8.4375C73.1445 11.4842 80.5857 17.1289 85.8592 24.5701C94.1795 36.2889 96.1133 51.1133 91.3086 65.3516Z" fill="#00C8C8"/>
<path d="M91.0156 29.4922H8.98438C4.1209 29.4922 0 33.4178 0 38.2812V61.7188C0 66.5818 4.1209 70.5078 8.98438 70.5078H91.0156C95.8791 70.5078 100 66.5818 100 61.7188V38.2812C100 33.4178 95.8791 29.4922 91.0156 29.4922Z" fill="#0053BF"/>
<path d="M100 38.2812V61.7188C100 66.5818 95.8791 70.5078 91.0156 70.5078H50V29.4922H91.0156C95.8791 29.4922 100 33.4178 100 38.2812Z" fill="#05377F"/>
<path d="M64.3554 45.4295L58.496 57.1482C57.9687 58.1445 56.9726 58.789 55.8593 58.789C54.746 58.789 53.75 58.1445 53.2226 57.1482L50 50.7031L46.7773 57.1482C45.7814 59.1406 42.4998 59.1406 41.5037 57.1482L35.6443 45.4295C34.9412 44.0232 35.5273 42.2656 36.9921 41.5039C38.3984 40.8007 40.156 41.3865 40.9177 42.8513L44.1406 49.2968L47.3632 42.8513C47.8908 41.8554 48.9455 41.3279 50 41.3279C51.0544 41.3279 52.1093 41.8554 52.6367 42.8513L55.8593 49.2968L59.082 42.8513C59.8437 41.3865 61.6015 40.8007 63.0076 41.5039C64.4724 42.2656 65.0585 44.0232 64.3554 45.4295Z" fill="#E1F1FA"/>
<path d="M85.1563 58.7891C84.0461 58.7891 83.0334 58.1626 82.5356 57.1698L79.2969 50.6924L76.0582 57.1698C75.0625 59.1553 71.8125 59.1553 70.8168 57.1698L65.2035 45.9403C64.8402 45.494 64.6055 44.9419 64.5654 44.3352C64.4625 42.7215 65.5982 41.334 67.2117 41.2282C68.4363 41.1997 69.6723 41.7776 70.1986 42.8303L73.4375 49.3077L76.6762 42.8303C77.6719 40.8448 80.9219 40.8448 81.9176 42.8303L85.1563 49.3077L88.3949 42.8303C89.1217 41.3797 90.8811 40.8047 92.326 41.52C93.7736 42.2438 94.3602 44.0034 93.6363 45.451L87.777 57.1698C87.2791 58.1626 86.2664 58.7891 85.1563 58.7891Z" fill="#BFE1FF"/>
<path d="M32.6107 41.2167C31.4578 41.2051 30.3277 41.7774 29.8012 42.8303L26.5625 49.3077L23.3238 42.8303C22.2686 40.727 19.1262 40.7428 18.0824 42.8303L14.8438 49.3077L11.6051 42.8303C10.8783 41.3797 9.11602 40.8047 7.67403 41.52C6.22637 42.2438 5.63985 44.0034 6.36368 45.451L12.2231 57.1698C12.7209 58.1626 13.7336 58.7891 14.8438 58.7891C15.9539 58.7891 16.9666 58.1626 17.4645 57.1698L20.7031 50.6924L23.9418 57.1698C24.4397 58.1626 25.4523 58.7891 26.5625 58.7891C27.6727 58.7891 28.6854 58.1626 29.1832 57.1698L34.7022 46.1319C35.1199 45.6569 35.3889 45.0303 35.4346 44.3352C35.5375 42.7215 34.2244 41.3225 32.6107 41.2167Z" fill="#E1F1FA"/>
<path d="M64.3555 45.4295L58.4961 57.1482C57.9688 58.1445 56.9727 58.789 55.8594 58.789C54.7461 58.789 53.75 58.1445 53.2227 57.1482L50 50.7031V41.3279C51.0547 41.3279 52.1094 41.8554 52.6367 42.8513L55.8594 49.2968L59.082 42.8513C59.8438 41.3865 61.6016 40.8007 63.0076 41.5039C64.4725 42.2656 65.0586 44.0232 64.3555 45.4295Z" fill="#BFE1FF"/>
</svg>
