<svg id="Layer_1" enable-background="new 0 0 510 510" height="512" viewBox="0 0 510 510" width="512" xmlns="http://www.w3.org/2000/svg"><g id="XMLID_1_"><path id="XMLID_489_" d="m255 15 15 88.388-15 88.388-164.962-8.742c-1.672-92.212 72.814-168.034 164.962-168.034z" fill="#90cc1c"/><path id="XMLID_468_" d="m419.962 183.033-164.962 8.742c0-4.986 0-171.789 0-176.775 91.786 0 166.641 75.456 164.962 168.033z" fill="#00b44b"/><path id="XMLID_273_" d="m90.038 183.033s90 144.717 90 143.934c-.009.506 41.962 64.033 41.962 64.033l33 77.225c-26.575 17.362-57.608 26.775-90 26.775-90.979 0-165-74.016-165-165 0-63.541 36.208-119.399 90.038-146.967z" fill="#ff435b"/><path id="XMLID_253_" d="m419.962 183.033c53.862 27.584 90.038 83.46 90.038 146.967 0 90.978-74.016 165-165 165-32.383 0-63.417-9.408-90-26.775l64.333-157.558z" fill="#4b7eec"/><path id="XMLID_248_" d="m255 191.775-74.962 135.191c-53.515-27.406-88.881-82.256-90-143.934 51.637-26.444 114.755-24.058 164.962 8.743z" fill="#ffda2d"/><path id="XMLID_244_" d="m329.962 326.967-74.962-135.192c49.652-32.439 112.724-35.495 164.962-8.742-1.117 61.574-36.392 116.48-90 143.934z" fill="#4bb9ec"/><path id="XMLID_243_" d="m180.038 326.967c1.017-56.055 30.209-105.952 74.962-135.191l15 76.612-15 76.612-38.556 7z" fill="#fdbf00"/><path id="XMLID_242_" d="m329.962 326.967-36.406 23.283-38.556-5.25c0-8.506 0-144.719 0-153.225 44.742 29.233 73.945 79.124 74.962 135.192z" fill="#ff9721"/><path id="XMLID_145_" d="m255 468.225c-46.92-30.654-76.012-83.367-74.962-141.258 23.195 11.879 48.755 18.033 74.962 18.033l15 61.612z" fill="#ff7b4a"/><path id="XMLID_2_" d="m329.962 326.967c1.051 57.98-28.117 110.652-74.962 141.258 0-14.902 0-108.225 0-123.225 26.164 0 51.728-6.135 74.962-18.033z" fill="#ff435b"/></g></svg>